<?xml version="1.0" encoding="utf-8"?>
<!-- Generator: Adobe Illustrator 24.2.3, SVG Export Plug-In . SVG Version: 6.00 Build 0)  -->
<svg version="1.1" id="Capa_1" xmlns="http://www.w3.org/2000/svg" xmlns:xlink="http://www.w3.org/1999/xlink" x="0px" y="0px"
	 viewBox="0 0 512 512" style="enable-background:new 0 0 512 512;" xml:space="preserve">
<style type="text/css">
	.st0{fill:#FFFFFF;}
</style>
<g>
	<path class="st0" d="M187.3,252.7c8,11.6,5.6,1.9,5.6,234c0,20.8,23.7,32.7,40.4,20.2c71.4-53.8,85.6-58.5,85.6-83.6
		c0-169.1-2-159.6,5.6-170.6L440.5,95h-369L187.3,252.7z"/>
	<path class="st0" d="M484.2,12.9C480.1,4.9,472,0,463,0H48.9C29.6,0,18.2,21.8,29.3,37.6c0.1,0.2-1.3-1.7,20.1,27.4h413.1
		C480.7,40.2,492.9,29.5,484.2,12.9z"/>
</g>
</svg>
