<?xml version="1.0" encoding="utf-8"?>
<!-- Generator: Adobe Illustrator 24.2.3, SVG Export Plug-In . SVG Version: 6.00 Build 0)  -->
<svg version="1.1" id="Layer_1" xmlns="http://www.w3.org/2000/svg" xmlns:xlink="http://www.w3.org/1999/xlink" x="0px" y="0px"
	 viewBox="0 0 230.9 38" style="enable-background:new 0 0 230.9 38;" xml:space="preserve">
<style type="text/css">
	.st0{fill:#FF9901;}
</style>
<g>
	<path class="st0" d="M22.6,34.8L3,32.1c0.5-2.8,0.9-4.4,1.3-5s0.5-1.3,0.1-2.2l-0.2-0.7L7.5,24c-0.5-1.3-1.4-1.9-2.6-1.9
		c-1.3,0.1-2.5-0.1-4-0.5c1.1-0.5,1.4-1,1.2-1.7l-0.5-0.2c-0.3-0.6,0.8-2.1,3.2-4.2c2.4-2.2,3.7-4.9,3.9-8.3l6-4.8
		c1.9,0.7,5.2,0.8,10,0.1c4.7-0.6,8-0.7,9.8-0.1c0.3,0.6,3.5,1.1,9.6,1c6.2,0.1,13,0,20.6-0.4c7.6-0.3,14.8-0.5,21.9-0.6
		c7-0.1,11.7,0.1,14.3,0.7c2.7-0.3,4.5-0.7,5.2-1c0.6-0.2,0.9-0.5,1.1-0.7s0.5-0.4,0.8-0.5s0.6-0.1,1,0v1.2c3-0.3,6.9-0.3,11.6,0
		s9.5,0.5,14.5,0.8c5,0.2,9.8,0.4,14.4,0.6s8.4,0,11.4-0.5c2.9-0.5,6-0.5,9.3-0.2s6.5,0.7,9.6,1s6.1,0.6,8.8,0.8
		c2.8,0.2,4.9-0.1,6.5-0.7c3.8,0.7,6.9,1.4,9.5,1.7c2.5,0.4,4.8,0.7,7,1.1s3.6,0.5,4.1,0.3c3.2-0.6,6.1-0.9,8.7-1.1
		c2.6-0.2,4.3,0.7,5.1,2.7l0.5,1.3c-0.5,0.4-0.8,1.3-0.8,2.6c-0.1,1.3-0.5,2.2-1.4,2.5l0.6,17.5c-1,1.9-2.3,3.2-3.6,3.8
		c-0.6,0.2-2,0.4-4.5,0.6c-2.4,0.1-5.2,0.2-8.2,0.1c-3,0-6.1-0.2-9.3-0.4s-5.6-0.6-7.1-1.3l-0.2,0.5c-6-0.9-10.5-1.5-13.5-1.9
		s-5.1-0.8-6.3-1.1s-2-0.5-2.4-0.5c-0.4-0.1-0.9-0.3-1.6-0.5l-9,1c-0.1-0.2-0.1-0.4,0-0.5s0.1-0.4,0-0.5c-0.3-0.6-0.8-1-1.5-0.9
		s-1.3-0.1-1.8-0.4l-1.3,1.3c-1.8-0.5-3.1-1.1-4.2-1.5c-1-0.5-1.9-0.9-2.7-1.4c0,1.5-0.7,2.6-2.1,3.1c-1.8,0-3.1-0.2-3.7-0.8
		c-0.5-0.5-1.7-0.6-3.4-0.1l0.3,1.8c-0.7-1-1.5-1.5-2.2-1.4s-1.5,0.1-2.1,0.1h-18.8c-1.8,0.2-3.5,0.7-5.1,1.3s-3.2,0.9-4.9,0.8
		c0-0.8,0.5-1.5,1.5-2.1l-3.9-0.3l1.8-1.5h-1c-0.3,0.1-1.3,0.3-3.1,0.5l-2.3,1.4c-0.4-0.1-1.6,0.1-3.6,0.5c-2,0.4-3.3,0.6-3.9,0.7
		l-0.3,1.6h1l0.1-0.8l2.5,0.2l-0.6,1l0.5,0.2c-0.6,0.2-2.2,0.7-5.1,1.3s-5.7,0.7-8.4,0l-0.5-0.2c0.2-0.3,0.7-0.7,1.4-1
		c1.4-0.6,2.9-1,4.5-1.1c1.7-0.1,2.8-0.4,3.3-0.6c-0.7-0.2-2-0.2-4-0.1s-3.2,0.3-3.8,0.6l0.1-0.8c-0.3-0.6,0-1.2,0.8-1.5l-6.7-0.4
		c-0.6,1-1.4,1.8-2.8,2.3c-1.4,0.6-2.9,0.9-4.6,0.9c-1.7,0.1-3.2,0.1-4.4,0.1c0.2-1.2,0.9-1.9,1.9-2.3c1.1-0.5,1.8-1.4,2.2-2.8
		l-5,0.5l-1,1h3.8c-0.6,0.2-1.1,0.5-1.8,0.9c-0.6,0.4-1.2,0.7-1.8,0.9c-0.8,0.3-1.8,0.5-3.1,0.5l-1.5-0.2c0.8-1.1,1.6-1.9,2.3-2.3
		c0.8-0.4,1.4-0.8,2-1l1.6-0.6c1.6-0.6,2.7-1.5,3.2-2.5l-10-0.1c-0.6,0-1.2,0-1.7-0.1c-0.4,0-1-0.1-1.7-0.1L56,27.3l1.1,0.3
		c0.2,0.5-0.3,1.7-1.4,3.8c-1.2,2.1-2.3,3.4-3.4,3.9c-1.1,0.5-1.8,0.5-2.3,0.2S49,35,48.4,35c0.1-0.6,0.1-1.3,0-2.3
		c-0.1-0.9-0.3-1.7-0.4-2.1l-1.1,3.1c-1.8,0.8-4.6,1.4-8.2,1.9c-3.6,0.4-6.6,0.7-9.1,0.7l-0.5-0.2L28,36l0.2-0.5l1.9-1.2L25.2,34
		l-2.6,1V34.8z M46.4,26.2L46.3,27c0.6-0.2,1-0.3,1.3-0.3s0.6,0,0.9-0.2l0.4-0.2L46.4,26.2z M50.7,29.9l0.8-0.3l0.6-1l0.9-2.3
		l-0.8,0.3c-0.6,0.2-1.2,0.6-1.9,1.2c-0.8,0.5-1.3,1.1-1.8,1.5c0.1,0.2,0.3,0.4,0.6,0.5L50.7,29.9z M52.1,32.3V30l-0.9,2.3H52.1z
		 M63.9,27.9c-0.1,0.6-0.4,0.9-0.9,1.1l-1.2,0.5l0.3-1.6H63.9z M58.3,35.6v-2.3l2.9,0.3L58.3,35.6z M78.2,27l-3.4-0.1l-0.4,1.4
		L78.2,27z M61,36.8l-0.5-1.3l2.9,0.3L61,36.8z M72.7,32l-0.1,0.8c1.3,0,2-0.1,2.3-0.2s0.3-0.2,0.2-0.5L72.7,32z M73.8,35.7
		l-0.4,0.2c-1.1,0.5-1.7,0.3-2-0.4c-0.1-0.2,0.1-0.5,0.7-0.7c0.8-0.3,1.4-0.1,1.6,0.5L73.8,35.7L73.8,35.7z M100.6,35.5
		c0.1,0.2-0.1,0.5-0.7,0.7s-0.9,0.2-1.1-0.3c-0.3-0.6-0.1-1.1,0.4-1.4c0.6-0.2,1,0,1.3,0.7L100.6,35.5z M108.8,32.5l-0.4,0.2
		c-0.3,0.1-0.4,0.1-0.4,0s-0.2-0.1-0.4,0l-0.5-0.2c-0.2-0.5,0-0.8,0.6-1s1,0,1.3,0.7l0.2,0.4L108.8,32.5z M105.4,33.6l-0.7,0.7
		c-0.3,0.1-0.3,0.2-0.2,0.5l-0.4,0.2h-1c0.4-0.7,1.2-1.3,2.4-2.2L105.4,33.6z M114,30.3l-1.6,0.6l-0.1,0.8l0.4-0.2
		c0.8-0.3,1.5-0.7,2.3-1.4L114,30.3z M117.4,30.6l-0.3-0.6c-0.1-0.2-0.2-0.3-0.5-0.2s-0.3,0.2-0.2,0.5l0.3,0.6l0.3,0.6L117.4,30.6z"
		/>
</g>
</svg>
