<?xml version="1.0" encoding="utf-8"?>
<!-- Generator: Adobe Illustrator 24.2.3, SVG Export Plug-In . SVG Version: 6.00 Build 0)  -->
<svg version="1.1" id="Layer_1" xmlns="http://www.w3.org/2000/svg" xmlns:xlink="http://www.w3.org/1999/xlink" x="0px" y="0px"
	 viewBox="0 0 108.7 137.4" style="enable-background:new 0 0 108.7 137.4;" xml:space="preserve">
<style type="text/css">
	.st0{fill:#212121;}
</style>
<g>
	<path class="st0" d="M5.8,91.4c-0.4,0-0.9-0.1-1.6-0.3c-0.6-0.2-0.9-0.4-0.9-0.6c0.6,0,0.9-0.5,0.9-1.6v-3.4l-3.1-1.9V82L2,80.8
		c-0.4-0.8-0.8-1.8-1.1-3c-0.3-1.1-0.5-1.9-0.5-2.3c0-2.9,0.5-4.9,1.4-6.1c0.9-1.1,2.5-2.7,4.8-4.5c0.6-0.6,1.7-1.7,3.1-3.1
		c1.5-1.5,3-3,4.5-4.7c1.6-1.7,3.1-3.2,4.5-4.5c1.5-1.4,2.5-2.2,3.1-2.7l0.9,1.6c1.7-0.4,3.6-1.4,5.9-3c2.3-1.6,3.9-3.1,5-4.5
		l7.8-7.2L52.9,29c1-1.2,2.7-2.7,5-4.4c2.3-1.7,4.7-3.3,7.2-4.8s4.9-3.1,7.3-4.5c2.4-1.5,4.4-2.8,6.1-4.1l0.9-0.9
		c0.2-0.6,0.7-1.4,1.6-2.2c0.8-0.8,1.8-1.7,3-2.7c1.1-0.9,2.2-1.9,3.3-2.8c1-0.9,1.9-1.7,2.5-2.3c1.7,0.6,3.4,0.9,5.1,0.9
		c1.8,0,3.3,0.1,4.7,0.3c1.4,0.2,2.5,0.8,3.4,1.7c0.9,0.9,1.4,2.7,1.4,5.1s-2.2,5.8-6.7,10s-9.6,8.3-15.4,12.5s-11.5,8-17.2,11.5
		c-5.6,3.5-9.6,5.9-11.9,7.2l-20.6,19l1.9,0.6c0.2,0.2,0.5,0.3,0.9,0.3v1.2l-5.6,2.8c0,0.6,0.7,1.5,2.2,2.7c1.5,1.1,3.2,2.3,5.1,3.6
		c2,1.2,3.9,2.5,5.9,3.7s3.6,2.2,4.8,2.8c1.7,1,4.8,2.6,9.4,4.5c4.6,2,9.5,4.1,14.7,6.4c5.2,2.3,10.2,4.4,15,6.4s8.1,3.4,10,4.2
		c4.8,2.3,8.5,5.6,11.2,10l-0.3,19h-5.9c-0.4,0-1.6-0.3-3.4-0.9c-1.9-0.6-3-0.9-3.4-0.9c-8.7-2.1-17.1-5.1-25-9.1
		c-7.9-3.9-15.9-7.9-24-11.9c-2.7-1.2-5.4-2.3-8-3.1s-5-1.8-7.3-2.8c-3.5-1.7-6.9-3.8-10.1-6.4c-3.2-2.6-6.6-4.7-10.1-6.4l-5-0.9
		v-2.9H5.8z"/>
</g>
</svg>
