<?xml version="1.0" encoding="utf-8"?>
<!-- Generator: Adobe Illustrator 24.2.3, SVG Export Plug-In . SVG Version: 6.00 Build 0)  -->
<svg version="1.1" id="Layer_1" xmlns="http://www.w3.org/2000/svg" xmlns:xlink="http://www.w3.org/1999/xlink" x="0px" y="0px"
	 viewBox="0 0 108.7 137.4" style="enable-background:new 0 0 108.7 137.4;" xml:space="preserve">
<style type="text/css">
	.st0{fill:#212121;}
</style>
<g>
	<path class="st0" d="M102.7,45.6c0.4,0,0.9,0.1,1.6,0.3c0.6,0.2,0.9,0.4,0.9,0.6c-0.6,0-0.9,0.5-0.9,1.6v3.4l3.1,1.9V55l-0.9,1.2
		c0.4,0.8,0.8,1.8,1.1,3c0.3,1.1,0.5,1.9,0.5,2.3c0,2.9-0.5,4.9-1.4,6.1c-0.9,1.1-2.5,2.7-4.8,4.5c-0.6,0.6-1.7,1.7-3.1,3.1
		c-1.5,1.5-3,3-4.5,4.7c-1.6,1.7-3.1,3.2-4.5,4.5c-1.5,1.4-2.5,2.2-3.1,2.7l-0.9-1.6c-1.7,0.4-3.6,1.4-5.9,3c-2.3,1.6-3.9,3.1-5,4.5
		l-7.8,7.2L55.6,108c-1,1.2-2.7,2.7-5,4.4c-2.3,1.7-4.7,3.3-7.2,4.8s-4.9,3.1-7.3,4.5c-2.4,1.5-4.4,2.8-6.1,4.1l-0.9,0.9
		c-0.2,0.6-0.7,1.4-1.6,2.2c-0.8,0.8-1.8,1.7-3,2.7c-1.1,0.9-2.2,1.9-3.3,2.8c-1,0.9-1.9,1.7-2.5,2.3c-1.7-0.6-3.4-0.9-5.1-0.9
		c-1.8,0-3.3-0.1-4.7-0.3c-1.4-0.2-2.5-0.8-3.4-1.7c-0.9-0.9-1.4-2.7-1.4-5.1c0-2.4,2.2-5.8,6.7-10s9.6-8.3,15.4-12.5
		s11.5-8,17.2-11.5c5.6-3.5,9.6-5.9,11.9-7.2l20.6-19L74,67.9c-0.2-0.2-0.5-0.3-0.9-0.3v-1.2l5.6-2.8c0-0.6-0.7-1.5-2.2-2.7
		c-1.5-1.1-3.2-2.3-5.1-3.6c-2-1.2-3.9-2.5-5.9-3.7c-2-1.2-3.6-2.2-4.8-2.8c-1.7-1-4.8-2.6-9.4-4.5c-4.6-2-9.5-4.1-14.7-6.4
		c-5.2-2.3-10.2-4.4-15-6.4s-8.1-3.4-10-4.2c-4.8-2.3-8.5-5.6-11.2-10l0.3-19h5.9C7,0.3,8.2,0.6,10,1.2c1.9,0.6,3,0.9,3.4,0.9
		c8.7,2.1,17.1,5.1,25,9.1c7.9,3.9,15.9,7.9,24,11.9c2.7,1.2,5.4,2.3,8,3.1s5,1.8,7.3,2.8c3.5,1.7,6.9,3.8,10.1,6.4
		c3.2,2.6,6.6,4.7,10.1,6.4l5,0.9v2.9H102.7z"/>
</g>
</svg>
