<?xml version="1.0" encoding="utf-8"?>
<!-- Generator: Adobe Illustrator 24.2.3, SVG Export Plug-In . SVG Version: 6.00 Build 0)  -->
<svg version="1.1" id="Layer_1" xmlns="http://www.w3.org/2000/svg" xmlns:xlink="http://www.w3.org/1999/xlink" x="0px" y="0px"
	 viewBox="0 0 328 271" style="enable-background:new 0 0 328 271;" xml:space="preserve">
<style type="text/css">
	.st0{fill:#EF8607;}
	.st1{fill:#FFFFFF;}
	.st2{fill:#841E47;}
	.st3{fill:#333333;}
	.st4{fill:#212121;}
</style>
<g>
	<path class="st4" d="M36.3,173.2c-0.4,0-0.9-0.1-1.6-0.3c-0.6-0.2-0.9-0.4-0.9-0.6c0.6,0,0.9-0.5,0.9-1.6v-3.4l-3.1-1.9v-1.6
		l0.9-1.2c-0.4-0.8-0.8-1.8-1.1-3c-0.3-1.1-0.5-1.9-0.5-2.3c0-2.9,0.5-4.9,1.4-6.1c0.9-1.1,2.5-2.7,4.8-4.5c0.6-0.6,1.7-1.7,3.1-3.1
		c1.5-1.5,3-3,4.5-4.7c1.6-1.7,3.1-3.2,4.5-4.5c1.5-1.4,2.5-2.2,3.1-2.7l0.9,1.6c1.7-0.4,3.6-1.4,5.9-3c2.3-1.6,3.9-3.1,5-4.5
		l7.8-7.2l11.5-7.8c1-1.2,2.7-2.7,5-4.4c2.3-1.7,4.7-3.3,7.2-4.8s4.9-3.1,7.3-4.5c2.4-1.5,4.4-2.8,6.1-4.1l0.9-0.9
		c0.2-0.6,0.7-1.4,1.6-2.2c0.8-0.8,1.8-1.7,3-2.7c1.1-0.9,2.2-1.9,3.3-2.8c1-0.9,1.9-1.7,2.5-2.3c1.7,0.6,3.4,0.9,5.1,0.9
		c1.8,0,3.3,0.1,4.7,0.3c1.4,0.2,2.5,0.8,3.4,1.7c0.9,0.9,1.4,2.7,1.4,5.1s-2.2,5.8-6.7,10c-4.5,4.2-9.6,8.3-15.4,12.5
		c-5.8,4.2-11.5,8-17.2,11.5c-5.6,3.5-9.6,5.9-11.9,7.2l-20.6,19l1.9,0.6c0.2,0.2,0.5,0.3,0.9,0.3v1.2l-5.6,2.8
		c0,0.6,0.7,1.5,2.2,2.7c1.5,1.1,3.2,2.3,5.1,3.6c2,1.2,3.9,2.5,5.9,3.7c2,1.2,3.6,2.2,4.8,2.8c1.7,1,4.8,2.6,9.4,4.5
		c4.6,2,9.5,4.1,14.7,6.4c5.2,2.3,10.2,4.4,15,6.4c4.8,2,8.1,3.4,10,4.2c4.8,2.3,8.5,5.6,11.2,10l-0.3,19h-5.9
		c-0.4,0-1.6-0.3-3.4-0.9c-1.9-0.6-3-0.9-3.4-0.9c-8.7-2.1-17.1-5.1-25-9.1c-7.9-3.9-15.9-7.9-24-11.9c-2.7-1.2-5.4-2.3-8-3.1
		c-2.6-0.8-5-1.8-7.3-2.8c-3.5-1.7-6.9-3.8-10.1-6.4c-3.2-2.6-6.6-4.7-10.1-6.4l-5-0.9V173.2z"/>
</g>
<g>
	<path class="st4" d="M188.5,253l-10,17c-2.4-1.5-3.7-2.5-4.1-3.1c-0.4-0.6-1-0.9-2-0.9h-0.7l1.1-3.1c-1.4,0-2.3,0.6-2.7,1.7
		c-0.4,1.2-1,2.3-2,3.5c0-1.2-0.4-1.7-1.1-1.7l-0.4,0.4c-0.7,0-1.6-1.5-2.7-4.6c-1.1-3.1-3.1-5.3-6.2-6.8l-2.1-7.4
		c1.4-1.5,2.7-4.5,3.9-9.2c1.2-4.6,2.4-7.7,3.6-9.1c0.7,0,2.3-2.8,4.6-8.5c2.4-5.7,4.9-12,7.5-19.2c2.6-7.1,5.2-13.9,7.8-20.5
		c2.6-6.5,4.6-10.8,6.1-12.9c0.7-2.6,1.1-4.4,1.1-5.2c0-0.6-0.1-1-0.2-1.3c-0.1-0.3-0.2-0.6-0.2-0.9c0-0.3,0.1-0.6,0.4-0.9l1.1,0.4
		c0.9-2.9,2.4-6.5,4.4-10.7c2-4.2,4.1-8.6,6.2-13.1c2.1-4.5,4.1-8.9,6-13.1c1.9-4.2,3.2-7.8,3.9-10.7c0.7-2.9,1.8-5.8,3.4-8.7
		c1.5-2.9,3.1-5.7,4.6-8.5c1.5-2.8,2.9-5.4,4.1-7.8c1.2-2.5,1.8-4.6,1.8-6.3c2.1-3.2,3.9-5.9,5.2-8.1c1.3-2.2,2.5-4.2,3.7-6.1
		c1.2-1.9,1.8-3.1,1.8-3.7c0.7-3.2,1.5-6,2.3-8.5c0.8-2.5,2.3-3.7,4.4-3.7h1.4c0.2,0.6,0.9,1.2,2.1,1.7c1.2,0.6,1.8,1.3,1.8,2.2
		l16.4,6.1c1.4,1.7,2.1,3.3,2.1,4.8c0,0.6-0.4,2-1.2,4.4c-0.8,2.3-1.8,4.9-3,7.6c-1.2,2.8-2.5,5.6-3.9,8.5c-1.4,2.9-2.7,4.9-3.9,6.1
		l0.4,0.4c-3.1,5.2-5.4,9.1-6.9,11.8c-1.5,2.6-2.7,4.4-3.4,5.4c-0.7,1-1.2,1.7-1.4,2s-0.6,0.7-1.1,1.3l-2.5,8.7
		c-0.2,0-0.4-0.1-0.5-0.2c-0.1-0.1-0.3-0.2-0.5-0.2c-0.7,0-1.2,0.4-1.4,1.1c-0.2,0.7-0.6,1.2-1.1,1.5l0.7,1.7
		c-1.2,1.5-2.2,2.5-3,3.3c-0.8,0.7-1.6,1.4-2.3,2c1.4,0.6,2.1,1.6,2.1,3.1c-0.7,1.7-1.4,2.8-2.1,3.1c-0.7,0.3-1.2,1.3-1.4,3.1
		l1.8,0.4c-1.2,0.3-1.9,0.8-2.1,1.5c-0.2,0.7-0.5,1.4-0.7,2l-7.1,17.4c-0.5,1.7-0.7,3.5-0.7,5.2s-0.4,3.3-1.1,4.8
		c-0.7-0.3-1.2-1-1.4-2.2l-1.8,3.5l-0.7-2.2l-0.4,0.9c0,0.3-0.2,1.3-0.7,3.1l0.4,2.6c-0.2,0.3-0.5,1.5-0.9,3.5
		c-0.4,2-0.7,3.3-0.9,3.9l1.4,0.9l0.4-0.9l-0.7-0.4l1.1-2.2l0.7,0.9l0.4-0.4c0,0.6-0.2,2.3-0.7,5.2c-0.5,2.9-1.5,5.5-3.2,7.8
		l-0.4,0.4c-0.2-0.3-0.4-0.9-0.4-1.7c0-1.5,0.2-3,0.7-4.6c0.5-1.6,0.7-2.7,0.7-3.3c-0.5,0.6-1,1.8-1.6,3.7c-0.6,1.9-0.9,3.1-0.9,3.7
		l-0.7-0.4c-0.7,0-1.1-0.4-1.1-1.3L207,199c0.7,0.9,1.1,2,1.1,3.5c0,1.5-0.3,3-0.9,4.6c-0.6,1.6-1.1,3-1.6,4.1
		c-1-0.6-1.4-1.5-1.4-2.6c0-1.2-0.6-2.2-1.8-3.1l-1.4,4.8l0.4,1.3l1.4-3.5c0,0.6,0.1,1.2,0.2,2c0.1,0.7,0.2,1.4,0.2,2
		c0,0.9-0.2,1.9-0.7,3.1l-0.7,1.3c-0.7-1.2-1.1-2.2-1.2-3c-0.1-0.9-0.2-1.6-0.2-2.2v-1.7c0-1.7-0.4-3.1-1.1-3.9l-3.9,9.2
		c-0.2,0.6-0.5,1.1-0.7,1.5c-0.2,0.4-0.5,0.9-0.7,1.5l0.4,1.3l0.7-0.9c0.5,0,1.5,0.9,3,2.8c1.5,1.9,2.3,3.4,2.3,4.6
		c0,1.2-0.2,1.9-0.7,2.2c-0.5,0.3-0.8,0.7-1.1,1.3c-0.5-0.3-1.2-0.6-2.1-0.9c-0.9-0.3-1.7-0.4-2.1-0.4l2.5,2.2c0,2-0.5,4.8-1.4,8.3
		c-1,3.5-1.9,6.4-2.8,8.7l-0.4,0.4l-0.7,0.9l-0.4-0.4l-0.4-2.2l-2.1,4.4V253z M189.6,227.7l0.7,0.4c0-0.6,0.1-1,0.2-1.3
		c0.1-0.3,0.2-0.6,0.2-0.9v-0.4L189.6,227.7z M194.6,225.1v-0.9l-0.7-0.9l-1.8-1.7v0.9c0,0.6,0.1,1.3,0.4,2.2
		c0.2,0.9,0.5,1.6,0.7,2.2c0.2,0,0.5-0.1,0.7-0.4L194.6,225.1z M197.4,224.7l-2.1-0.9l1.8,1.7L197.4,224.7z M197.8,212.1
		c0.5,0.3,0.7,0.7,0.7,1.3v1.3l-1.4-0.9L197.8,212.1z M202.8,220.3l-2.1-0.9l1.4-2.6L202.8,220.3z M202.4,198.6l-1.4,3.1l1.1,0.9
		L202.4,198.6z M204.9,218.2h-1.4l1.4-2.6V218.2z M204.9,205.5l0.7,0.4c0.5-1.2,0.7-1.9,0.7-2.2c0-0.3-0.1-0.4-0.4-0.4L204.9,205.5z
		 M208.8,206v0.4c0,1.2-0.4,1.7-1.1,1.7c-0.2,0-0.4-0.3-0.4-0.9c0-0.9,0.4-1.3,1.1-1.3H208.8z M218.8,181.1c0.2,0,0.4,0.3,0.4,0.9
		c0,0.6-0.2,0.9-0.7,0.9c-0.7,0-1.1-0.3-1.1-0.9c0-0.6,0.4-0.9,1.1-0.9H218.8z M219.1,172.4v0.4c0,0.3-0.1,0.4-0.2,0.4
		c-0.1,0-0.2,0.1-0.2,0.4l-0.4,0.4c-0.5,0-0.7-0.3-0.7-0.9c0-0.6,0.4-0.9,1.1-0.9H219.1z M218.8,175.9l0.4,0.9
		c0,0.3,0.1,0.4,0.4,0.4v0.4l-0.4,0.9c-0.5-0.6-0.8-1.6-1.1-3.1L218.8,175.9z M219.1,166.7v1.7l0.7,0.4v-0.4c0-0.9-0.1-1.7-0.4-2.6
		L219.1,166.7z M220.6,163.7h-0.7c-0.2,0-0.4,0.1-0.4,0.4c0,0.3,0.1,0.4,0.4,0.4h0.7h0.7L220.6,163.7z"/>
</g>
<g>
	<path class="st4" d="M12.4,21.8c-0.5-0.3-1-0.7-1.3-1.2c-1.2-1.9-2.2-3.7-3-5.4c-0.9-1.7-1.8-3.2-2.5-4.4C4.9,9.5,4.1,8.9,3.1,8.9
		L1.7,5.3L1,4.9c0-0.7,1.3-1.3,3.9-1.8C7.5,2.6,9,2.3,9.5,2.3L29.3,2c3.3,0,7.8-0.1,13.5-0.2c5.7-0.1,11.4-0.2,17.3-0.2
		c5.9,0,11.7-0.1,17.3-0.2C83,1.3,87.4,1,90.7,0.5c0.1,0,0.3,0,0.4,0h133.6c6.1,0,13.7,0.1,22.7,0.2c9,0.1,18.2,0.4,27.6,0.7
		c9.4,0.4,18.5,1,27.3,2c8.6,1,15.7,2.3,21.3,3.9c0.2,0.1,0.4,0.1,0.5,0.2c0.4,0.2,0.8,0.4,1.1,0.5c1.3,0.5,2.2,1.7,2.2,3.1V19
		c0,1.4-0.9,2.6-2.2,3.1c-3,1.1-5.9,2.3-8.7,3.8c-3.5,1.8-6.5,2.9-8.8,3.1c-0.5,0-1.2-0.2-2.1-0.7l-2.8-0.7c0.5,0-0.7,0.2-3.5,0.7
		l-2.1,0.7c-3.3,0-7.6-0.2-12.7-0.6c-5.2-0.4-10.6-0.9-16.3-1.5c-5.7-0.6-11-1.1-15.9-1.5c-5-0.4-8.6-0.6-11-0.6
		c-3.3,0-6.3,0.1-8.8,0.4c-2.6,0.2-5.6,0.4-8.8,0.4l-34.7-1.1c-3.8,0-7.4,0.3-11,0.9c-3.5,0.6-7.2,0.9-11,0.9c-1.9,0-3.9-0.1-6-0.4
		c-2.1-0.2-4.4-0.4-6.7-0.4c-3.8,0-6.7,0.4-8.8,1.1c-2.1,0.7-5.3,1.1-9.6,1.1c-4.2,0-9.3-0.2-15.2-0.6c-5.9-0.4-10.7-0.6-14.5-0.6
		c-5.2,0-10,0.7-14.5,2c-4.5,1.3-9.3,2-14.5,2c-4.7,0-12-0.2-21.9-0.7c-9.9-0.5-17.5-0.7-22.7-0.7c-1,0-1.5,0.1-1.8,0.2
		c-0.2,0.1-0.6,0.2-1.1,0.2h-0.7c-3.8-1.5-7-2.9-9.6-4.4C16.7,24.1,14.5,22.9,12.4,21.8z"/>
</g>
</svg>
