<?xml version="1.0" encoding="utf-8"?>
<!-- Generator: Adobe Illustrator 24.2.3, SVG Export Plug-In . SVG Version: 6.00 Build 0)  -->
<svg version="1.1" id="Layer_1" xmlns="http://www.w3.org/2000/svg" xmlns:xlink="http://www.w3.org/1999/xlink" x="0px" y="0px"
	 viewBox="0 0 731 91" style="enable-background:new 0 0 731 91;" xml:space="preserve">
<style type="text/css">
	.st0{fill:#EF8607;}
	.st1{fill:#FFFFFF;}
	.st2{fill:#841E47;}
	.st3{fill:#333333;}
	.st4{fill:#212121;}
</style>
<g>
	<path class="st4" d="M3.3,39.3c-0.2,0-0.4,0-0.6-0.1c-0.2-0.1-0.4-0.2-0.4-0.2c0.2,0,0.4-0.2,0.4-0.6V37l-1.2-0.7v-0.6l0.4-0.5
		c-0.2-0.3-0.3-0.7-0.4-1.2c-0.1-0.4-0.2-0.8-0.2-0.9c0-1.1,0.2-1.9,0.6-2.4c0.4-0.4,1-1,1.9-1.8c0.2-0.2,0.7-0.7,1.2-1.2
		c0.6-0.6,1.2-1.2,1.8-1.8c0.6-0.7,1.2-1.2,1.8-1.8c0.6-0.5,1-0.9,1.2-1l0.4,0.6c0.7-0.2,1.4-0.6,2.3-1.2c0.9-0.6,1.5-1.2,2-1.8
		l3.1-2.8l4.5-3.1c0.4-0.5,1.1-1.1,2-1.7c0.9-0.7,1.8-1.3,2.8-1.9s1.9-1.2,2.9-1.8c0.9-0.6,1.7-1.1,2.4-1.6l0.4-0.4
		c0.1-0.2,0.3-0.5,0.6-0.9c0.3-0.3,0.7-0.7,1.2-1c0.4-0.4,0.9-0.7,1.3-1.1c0.4-0.4,0.7-0.7,1-0.9c0.7,0.2,1.3,0.4,2,0.4
		c0.7,0,1.3,0,1.8,0.1c0.5,0.1,1,0.3,1.3,0.7c0.4,0.4,0.6,1,0.6,2s-0.9,2.3-2.6,3.9c-1.8,1.6-3.8,3.3-6.1,4.9
		c-2.3,1.6-4.5,3.1-6.7,4.5c-2.2,1.4-3.8,2.3-4.7,2.8l-8.1,7.5l0.7,0.2c0.1,0.1,0.2,0.1,0.4,0.1v0.5l-2.2,1.1c0,0.2,0.3,0.6,0.9,1
		c0.6,0.4,1.2,0.9,2,1.4c0.8,0.5,1.5,1,2.3,1.5c0.8,0.5,1.4,0.9,1.9,1.1c0.7,0.4,1.9,1,3.7,1.8c1.8,0.8,3.7,1.6,5.8,2.5
		c2,0.9,4,1.7,5.9,2.5c1.9,0.8,3.2,1.3,3.9,1.7c1.9,0.9,3.3,2.2,4.4,3.9l-0.1,7.5h-2.3c-0.2,0-0.6-0.1-1.3-0.4
		c-0.7-0.2-1.2-0.4-1.3-0.4c-3.4-0.8-6.7-2-9.8-3.6c-3.1-1.5-6.2-3.1-9.4-4.7c-1.1-0.5-2.1-0.9-3.1-1.2c-1-0.3-2-0.7-2.9-1.1
		c-1.4-0.7-2.7-1.5-4-2.5c-1.3-1-2.6-1.9-4-2.5l-2-0.4V39.3z"/>
	<path class="st4" d="M57.7,28.3c0.2-0.9,0.7-1.7,1.2-2.3c0.6-0.6,1.1-1.3,1.5-2.1c0.1-0.1,0.3-0.4,0.7-1c0.4-0.6,0.9-1.2,1.3-1.9
		c0.5-0.7,1-1.3,1.4-1.8c0.4-0.5,0.8-0.8,0.9-0.8c0-0.3,0.1-0.7,0.4-1.1c0.3-0.4,0.6-0.8,1-1.2s0.7-0.7,1.1-0.9
		c0.4-0.2,0.6-0.4,0.8-0.4h0.7l0.2,0.5h1.1c0.4,0.1,0.8,0.3,1.2,0.6c0.4,0.3,0.8,0.5,1.2,0.6h1c2.4,0.6,4.9,1.4,7.3,2.4
		c2.4,1,4.4,2.6,6.1,4.8c0.4,1.3,0.8,2.6,1.2,3.7c0.4,1.2,0.9,2.4,1.3,3.7c0,0.7,0,1.5-0.1,2.5c0,1-0.1,3.1-0.3,6.2v0.7
		c0,0.5-0.1,1.2-0.4,2.1c-0.3,0.9-0.6,1.8-1,2.7c-0.4,0.9-0.8,1.7-1.2,2.3c-0.4,0.7-0.7,1-1,1l-0.1,0.1c-0.4,0.7-1.1,1.5-2.1,2.4
		c-1,1-2.3,2-3.7,2.9c-1.5,1-3.1,1.8-4.9,2.5c-1.8,0.7-3.7,1-5.6,1c-1.3,0-2.6-0.1-3.8-0.4c-1.2-0.3-2.4-0.6-3.4-1L60.6,55l-2.7-0.5
		c-0.5-0.3-0.9-0.8-1.3-1.4s-0.7-1.2-1-1.7c-1.1-1.2-1.9-2.5-2.1-3.9c-0.3-1.3-0.4-3-0.4-4.8c0-0.4,0-0.7,0.1-0.9
		c0.1-0.2,0.1-0.5,0.1-0.9v-0.4c0-0.1,0.1-0.3,0.2-0.7c0.1-0.4,0.2-0.8,0.4-1.3c0.1-0.4,0.2-0.9,0.4-1.2c0.1-0.4,0.2-0.6,0.2-0.8
		l0.7-1c0-0.2,0.1-0.5,0.4-0.8c0.2-0.3,0.4-0.5,0.4-0.7l0.2,0.4c0.1-0.2,0.2-0.4,0.2-0.9c0.1-0.4,0.2-0.7,0.2-0.7l0.4-0.9
		c0-0.2,0.1-0.4,0.2-0.9c0.1-0.4,0.2-0.7,0.3-0.9h-0.6c-0.1,0-0.2,0-0.2,0.1L57.7,28.3z M54.3,38.6c-0.2,0.2-0.2,0.4-0.2,0.9
		L54,40.2l0.5-0.5c0-0.2,0.1-0.4,0.2-0.6c0.1-0.2,0.2-0.4,0.2-0.5l0.2-0.6L54.3,38.6z M55.6,35.6c-0.3,0.3-0.5,0.7-0.5,1V37l1-1.2
		L55.6,35.6z M56.6,38.3l0.4-0.2l0.1-1L56.6,38.3z M58.8,32l-1.1,2.4c0,0.3,0,0.6-0.1,0.9c-0.1,0.2-0.1,0.5-0.1,0.9l0.4,0.1l1.1-2.7
		c0-0.2,0-0.4,0.1-0.9c0-0.4,0.1-0.7,0.2-0.7H58.8z M58.8,29c0-0.2-0.1-0.4-0.2-0.4c-0.2,0-0.2,0.1-0.2,0.4c0,0.2,0.1,0.2,0.2,0.2
		L58.8,29z M64.1,41.9c0,0.3,0,0.8-0.1,1.3c0,0.6-0.1,1.1-0.1,1.7c0,0.8,0.1,1.6,0.2,2.2l0.7,3.9l1.2-0.2c0.2,0.3,0.6,0.5,1.1,0.5
		c1.1,0,2.2-0.2,3.3-0.6c1.1-0.4,2.2-1,3.1-1.8l2.2-2.9l1.2-2.8l0.4-2.9c0.3-0.7,0.5-1.5,0.6-2.2c0.1-0.7,0.1-1.5,0.1-2.2v-2.4
		c0-1.1,0-2.4-0.1-4.1c0-1.7-0.4-3-1.2-3.9c-0.6-0.7-1.3-1.4-2.3-2.3c-0.9-0.9-1.7-1.3-2.4-1.3c-0.3,0-0.7,0.2-1.2,0.7
		c-0.4,0.5-0.8,0.7-0.9,0.7c-0.7,0.6-1.2,1.3-1.3,2.2c-0.1,0.9-0.4,1.8-0.8,2.6l-0.2,1.8c-1.1,2.1-2,4.1-2.7,6
		C64.5,37.8,64.1,39.8,64.1,41.9z"/>
	<path class="st4" d="M99.8,38.2c0-0.1,0-0.4,0.1-0.9c0.1-0.5,0.2-1,0.3-1.6c0.1-0.6,0.2-1.1,0.3-1.7c0.1-0.5,0.1-0.9,0.1-1l0.4-1.5
		c0-0.2,0.2-0.6,0.5-1c0.3-0.4,0.5-0.7,0.5-0.9l0.6,0.4c0-0.1,0-0.2-0.1-0.2c0-0.1-0.1-0.2-0.1-0.4c0-0.3,0-0.6,0.1-0.9
		c0-0.2,0.1-0.4,0.1-0.6l0.4-1c0-0.1,0-0.2-0.1-0.3c0-0.1-0.1-0.3-0.1-0.4c0-0.3,0-0.6,0.1-0.9c0-0.3,0.1-0.5,0.1-0.7
		c-0.4,0-0.7,0-0.7,0.1L102,25c0-0.3,0.1-1,0.2-1.9c0.1-0.9,0.3-2,0.6-3.2c0.2-1.2,0.6-2.5,0.9-3.9c0.4-1.4,0.8-2.8,1.3-4.2
		c0.2-0.2,0.4-0.7,0.6-1.3c0.2-0.6,0.4-1.2,0.7-1.8c0.3-0.6,0.8-1.1,1.3-1.6c0.6-0.4,1.4-0.7,2.4-0.7c0.2,0,0.7,0.1,1.5,0.4
		c0.8,0.2,1.8,0.4,3.1,0.4c0.9,0,1.6,0.1,2.1,0.3c0.5,0.2,0.8,0.8,0.8,1.7c0,0.5,0,0.9-0.1,1.1l-0.7,5.9c1.2-0.8,2.2-1.5,2.9-2
		c0.7-0.5,1.8-1,3.2-1.5l3.1-1.3c0.2,0.1,0.3,0.2,0.4,0.4c0.1,0.2,0.3,0.3,0.7,0.4l1,0.4c2.1,0.9,4,2.1,5.7,3.7c1.7,1.6,3,3.6,4,5.9
		c0.2,0.4,0.3,0.8,0.3,1.2c0,0.4,0,0.9,0.2,1.3l0.1,0.2c0.3,0.3,0.5,0.8,0.6,1.5c0,0.7,0.3,1.4,0.8,2.2l0.2,0.4
		c0.5,0,0.7,0.2,0.7,0.6c0,0.4,0,0.7-0.1,0.7l0.6-0.2c0,0.2,0,0.4,0.1,0.4c0,0,0.1,0.2,0.1,0.6c0,0.2,0,0.3-0.1,0.5
		c-0.1,0.2-0.1,0.3-0.1,0.4v0.4l0.4-0.1c0.3,0.2,0.6,0.8,0.7,1.7c0.1,0.9,0.3,1.5,0.4,1.9c-0.2,0-0.2,0.1-0.2,0.4v0.4h0.4
		c-0.2,0.6-0.5,1.2-1,1.8c-0.5,0.6-0.8,1.2-0.9,1.8v0.1c0,0.2-0.1,0.2-0.2,0.2c-0.1,0-0.3,0-0.4,0.1c-0.6,0.5-1.2,1.1-1.8,1.7
		c-0.6,0.7-1.2,1.3-1.7,1.9c-0.5,0.6-0.9,1.2-1.3,1.7c-0.4,0.5-0.6,0.8-0.6,0.9c-0.7,0.6-1.4,1.4-2.1,2.4c-0.8,1-1.5,2-2.1,3
		c-0.7,1-1.4,2.2-2.2,3.6l-0.4-0.1c-0.2,0.2-0.4,0.4-0.7,0.8c-0.3,0.4-0.7,0.8-1,1.2c-0.4,0.4-0.8,0.8-1.2,1.1
		c-0.4,0.3-0.7,0.5-1,0.6c-0.2,0.1-0.4,0.1-0.8,0.1s-0.6,0.1-0.6,0.4c0,0.2,0,0.3,0.1,0.4h-1.1l-0.6-0.5c-0.2,0.2-0.3,0.2-0.3,0.1
		c0-0.1-0.1,0-0.1,0.1c-0.4,0-0.8-0.1-1.3-0.3c-0.4-0.2-0.9-0.3-1.3-0.3c-1.8-0.1-3.4-0.2-4.8-0.3c-1.4-0.1-3-0.2-4.6-0.2h-1.5
		c0,0.3-0.4,0.5-1.1,0.5l-0.4-0.1c-0.2,0-0.2,0.1-0.2,0.4v0.2h-1.3l-0.4,0.2c-0.2-0.7-0.4-1.1-0.6-1.2c-0.2,0.2-0.4,0.4-0.6,0.4
		h-1.1l-0.4-0.5c-0.1,0-0.1,0-0.1,0.1c0,0,0,0.1-0.1,0.1h-0.2c-0.9-0.3-1.5-0.8-1.8-1.5c-0.3-0.7-0.5-1-0.5-0.8l-0.1-0.7v-0.1
		c0-0.2,0-0.4,0.1-0.6c0.1-0.2,0.1-0.5,0.1-0.7c0-0.3,0-0.5-0.1-0.6c-0.1,0-0.1-0.1-0.1-0.3c0-0.1,0-0.2,0.1-0.3
		c0-0.1,0.1-0.4,0.2-0.9c0.1-0.5,0.2-1.2,0.2-2.2c0.1-1,0.2-2.3,0.2-4l0.1-1.2l0.2-1.2c0-0.3-0.1-0.5-0.2-0.5
		c0.5-0.7,0.7-1.4,0.7-2.2C99.7,39.8,99.7,39,99.8,38.2z M101.1,35.5c-0.1,0.1-0.1,0.2-0.1,0.2v1.7l0.6-0.5v-2.3L101.1,35.5z
		 M102,31.6c-0.2,0.2-0.3,0.4-0.3,0.8c0,0.4-0.1,0.6-0.1,0.7v0.6l0.5-0.6l0.5-1.5H102z M104.3,23c0-0.2-0.1-0.2-0.2-0.2
		c-0.2,0-0.2,0.1-0.2,0.2c0,0.4,0.1,0.6,0.4,0.6c0.1,0,0.1-0.1,0.1-0.4V23z M105.3,26.7l-0.5,0.9c0,0.3-0.1,0.8-0.3,1.3
		c-0.2,0.5-0.3,0.9-0.3,1.2v2h0.6l0.5-1c0-0.3,0.1-0.7,0.2-1.2c0.2-0.4,0.2-0.8,0.2-1.2v-2H105.3z M110.8,51.8
		c0.1,0,0.1,0.1,0.1,0.2c0,0.2,0,0.3,0,0.4c0.7,0,1.3,0.1,1.8,0.2c0.6,0.1,1.2,0.2,1.8,0.2c0.5,0,1.1-0.1,1.7-0.4h4.2
		c0.1,0,0.4-0.3,0.9-0.9c0.5-0.6,1.1-1.3,1.8-2.2c0.7-0.9,1.3-1.8,2-2.7c0.7-0.9,1.3-1.7,1.9-2.4l2.4-2.9c0.5-0.6,0.8-1,0.9-1.3
		c0.1-0.3,0.4-1,1.1-2.1l0.7-1.1l-1.1-1.6c-0.2-0.2-0.5-1.1-0.9-2.4c-0.4-1.4-1-2.9-1.6-4.6c-0.6-1.7-1.3-3.2-2-4.7
		c-0.7-1.5-1.4-2.4-2.1-2.9h-0.2c-0.2,0-0.3-0.3-0.5-0.8c-0.2-0.5-0.3-0.8-0.5-0.8c-0.2,0-0.3,0-0.4,0.1c-0.1,0.1-0.2,0.2-0.4,0.4
		c-2,1.5-3.5,2.4-4.7,2.8c-1.2,0.4-2,0.9-2.4,1.6c-0.7,1.2-1.2,2.5-1.5,3.9c-0.2,1.4-0.6,2.8-1.1,4.3c0,0.2,0,0.3-0.1,0.4
		c-0.1,0.1-0.1,0.2-0.1,0.2l0.2,0.4l-0.7,0.9c0,0.2,0.1,0.3,0.2,0.5v0.1c0,0.3-0.1,0.6-0.2,0.7c-0.1,0.1-0.2,0.3-0.2,0.4
		c0,0.4,0.2,0.8,0.5,1.2c0.3,0.4,0.5,0.8,0.5,1.2l0.1,0.1l-0.5,0.2c0.2,0.2,0.2,0.4,0.2,0.6v0.2l-0.4,0.2l0.2,0.9
		c0,0.1-0.1,0.2-0.2,0.4c-0.1,0.2-0.2,0.3-0.2,0.5l-0.2-0.2c-0.2,0.2-0.2,0.3-0.2,0.5c0.1,0.2,0.2,0.4,0.4,0.4L112,43l-0.2,0.2v0.5
		l0.4,0.6c-0.3,0.1-0.5,0.3-0.5,0.7l0.2,0.7c0,0.4-0.2,0.8-0.6,1.3c-0.4,0.4-0.6,0.9-0.6,1.3h0.2c-0.2,0.2-0.3,0.4-0.3,0.6
		c0,0.2-0.1,0.5-0.1,0.7c0,0.8,0,1.3,0.1,1.6V51.8z"/>
	<path class="st4" d="M175,48.2l-0.6,1l-0.9,3.8l0.4,0.9l0.7,0.2c0.2,0.1,0.7,0.1,1.4,0.1c0.7,0,1.3,0.1,1.8,0.2h1.8
		c0.2,0,0.8,0,1.8,0.1c1,0,2.1,0.2,3.2,0.6l0.5,0.1c0.1,0,0.3,0.1,0.7,0.2c0.4,0.1,0.8,0.2,1.2,0.4c0.4,0.1,0.8,0.2,1.2,0.4
		c0.4,0.1,0.6,0.2,0.7,0.2l0.2,0.9l-0.4,3.3l-1.1,0.4c-0.4-0.1-1.6-0.2-3.6-0.5c-2-0.2-3.9-0.4-5.8-0.4h-4H172c-0.3,0-0.6,0-0.9,0
		c-0.3,0-0.6,0-1,0.1c-0.5,0-1.3,0.1-2.4,0.2c-1.1,0.2-2.2,0.3-3.3,0.6c-1.1,0.2-2,0.4-2.8,0.5c-0.8,0.1-1,0.1-0.7,0.1l-1,0.2
		c-0.2,0-0.4,0-0.9,0.1c-0.4,0.1-0.8,0.2-1.2,0.3c-0.4,0.1-0.8,0.2-1.2,0.3c-0.4,0.1-0.6,0.1-0.7,0.1l-0.2-0.1c-0.5,0-0.9,0-1.1-0.1
		l-0.7-0.2l-0.2-1.6l-1.1-1l-0.1-0.5l-1-0.9v-1.2l0.9-0.2l0.2-1.3l0.6-0.4c0.2-0.1,0.4-0.2,0.6-0.4c0.2-0.2,0.4-0.2,0.7-0.2h1.7
		l1.1-0.2c0.2-0.3,0.5-0.6,0.9-0.9l2-1.6l1.5-3.1c0-0.2,0.1-0.6,0.3-0.9c0.2-0.4,0.4-0.7,0.6-1v-1.1c0.2-0.4,0.5-0.9,0.7-1.4
		c0.2-0.5,0.4-1,0.4-1.4l0.6-8l0.4-0.4v-2.1c0-0.2,0-0.3,0.1-0.5c0-0.2,0.1-0.3,0.1-0.4l0.1-0.6l-0.1-0.4l2.7-13.6
		c0-0.3,0-0.7,0-1.2c0-0.4-0.2-0.8-0.5-1.2v0.4h-1.1c-1.9,0-3.3-0.1-4.3-0.4c-1-0.2-1.8-0.6-2.3-1l-1.7-1.5l-0.5-0.6
		c0-0.3,0.2-0.6,0.7-0.7l0.7-0.2c3.1,0,5.5,0,7.3,0.1c1.8,0,3.3,0,4.4,0c1.1,0,2.2-0.1,3.1-0.2c0.9-0.1,2.1-0.3,3.6-0.7l3.3-1.6
		l2.1,0.5l2.4,0.1c0.2,0,0.6,0.1,1,0.3c0.4,0.2,0.9,0.4,1.3,0.7c0.4,0.2,0.9,0.5,1.2,0.8c0.4,0.3,0.6,0.5,0.6,0.6
		c0,0.7-0.3,1.3-0.9,1.9c-0.6,0.6-1.6,1-2.9,1.3c-1.3,0.2-2.5,0.8-3.5,1.7c-1,0.9-1.9,1.9-2.6,3s-1.3,2.2-1.7,3.4
		c-0.4,1.2-0.6,2.3-0.6,3.2c0,0.2,0,0.3-0.1,0.4c0,0.1-0.1,0.3-0.3,0.7h0.2c0,0.5,0,0.8-0.1,0.9c0,0.1-0.2,0.3-0.6,0.6
		c0,0.2,0.1,0.3,0.2,0.4c0.1,0.1,0.2,0.2,0.2,0.2l0.2,0.7c0,0.2,0,0.2-0.1,0.2c-0.1,0-0.1,0.1-0.1,0.2v0.4l0.2,0.1
		c0,0.3-0.1,0.6-0.4,0.8c-0.3,0.2-0.4,0.4-0.4,0.6c0.4,0,0.6,0.1,0.6,0.2c0,0.4-0.1,0.9-0.3,1.5c-0.2,0.6-0.3,1.1-0.4,1.5l-0.9,3.8
		l-0.2,0.4v1.5c0,0.4-0.1,0.9-0.2,1.4c-0.2,0.5-0.4,0.9-0.9,1.2h0.9c0,0.2,0,0.3-0.1,0.4c-0.1,0.1-0.1,0.3-0.1,0.4v0.2
		c0,0.2,0.2,0.2,0.5,0.2c0.4,0,0.7-0.1,0.9-0.2v0.4c0,0.4-0.2,1-0.5,1.7l-0.4,1.5L175,48.2z M164.5,36.2c0,0.2,0,0.3,0.1,0.5
		c0,0.2,0.1,0.3,0.1,0.4h0.1c0.2,0,0.2-0.2,0.2-0.6c0-0.2,0-0.3,0-0.5c0-0.2-0.1-0.2-0.2-0.2l-0.1,0.1L164.5,36.2z M165.4,37.3
		c-0.3,0.2-0.6,0.2-0.7,0.2c-0.1,0-0.2,0.1-0.2,0.6v2.6l0.9-0.7V37.3z M169,40.6c0,0.2,0,0.4-0.1,0.6c0,0.1-0.1,0.3-0.1,0.4
		c0,0.1,0.1,0.4,0.2,0.9c0.1-0.7,0.1-1.3,0.1-2c0-0.7,0-1.3,0-2v-1.8c-0.2,0.4-0.4,0.6-0.9,0.6l-0.4,1.1l0.7-0.6
		c0.2,0,0.2,0.2,0.2,0.5c0,0.2-0.1,0.4-0.4,0.6c-0.2,0.2-0.4,0.2-0.6,0.2c0,0.5,0,0.9,0.1,1.2c0.1,0.3,0.1,0.6,0.1,1
		c0,0.4,0,0.7-0.1,1l0.2-0.4c0-0.2,0.1-0.4,0.2-0.7c0.1-0.3,0.2-0.5,0.2-0.7H169z M169.2,34.2c-0.2,0.2-0.3,0.5-0.4,1
		c-0.1,0.5-0.1,0.9-0.1,1.2c0.2,0,0.4-0.2,0.4-0.7c0-0.4,0.1-0.8,0.1-0.9V34.2z"/>
	<path class="st4" d="M243.8,35.4c-0.3,1.6-0.7,3.2-1.1,4.8c-0.4,1.6-0.6,3.1-0.6,4.7l-0.2,0.6v5.1c0,0.7,0.1,1.2,0.4,1.7
		c0.3,0.5,0.4,1.1,0.4,1.7c0,0.6-0.1,0.8-0.2,0.7c-0.1-0.1-0.3,0-0.4,0.4l-0.5,1c-0.2,0.2-0.6,0.2-1.2,0.2l-0.4-0.2l-0.2,0.5
		c-0.1,0.5-0.4,0.7-1,0.7c-0.6,0-1.1,0.1-1.4,0.6c-0.7-0.3-1.4-0.5-2-0.6c-0.6,0-1.2-0.1-1.9-0.3l-1.1-0.6c-0.6,0-1.2-0.2-1.8-0.6
		c-0.6-0.4-1.2-0.9-1.8-1.5c-0.6-0.6-1.1-1.2-1.5-1.9c-0.4-0.7-0.8-1.4-1-2l-8.9-12.1c-1.1-1.4-1.9-2.9-2.6-4.5
		c-0.7-1.6-1.5-3.1-2.6-4.6l-0.1-0.2l-0.2,0.5c0,0.7-0.1,1.5-0.2,2.3c-0.1,0.8-0.2,1.6-0.2,2.2l0.1,0.9v0.4
		c-0.5,3.5-0.9,6.3-1.2,8.5c-0.3,2.2-0.5,4-0.6,5.6c-0.1,1.6-0.3,3.1-0.4,4.5c-0.2,1.4-0.4,3.1-0.6,5c0,0.1-0.1,0.3-0.2,0.7
		c-0.2,0.4-0.4,0.9-0.6,1.3s-0.5,0.9-0.7,1.3c-0.2,0.4-0.4,0.6-0.5,0.6l-0.9-0.9c0,0.5-0.2,0.9-0.6,1.1l-1.2-1.2v-0.2
		c-0.5,0-0.8,0.1-1,0.3c-0.2,0.2-0.3,0.3-0.5,0.3c-0.9,0-1.5-0.2-1.8-0.7c-0.3-0.5-0.6-1.1-0.9-1.7l-0.4-0.6c0-0.2,0.1-0.3,0.2-0.5
		c0-0.4-0.1-0.9-0.2-1.3c-0.2-0.5-0.3-0.9-0.4-1.2V53c0-1.6,0-3.3,0-5c0-1.7,0-3.3,0.1-5c0-0.2,0-0.6,0.1-1.2
		c0.1-0.6,0.1-1.2,0.2-1.9c0-0.7,0.1-1.3,0.2-1.9c0.1-0.6,0.1-1,0.1-1.2v-0.6c0-0.2,0-0.3-0.1-0.4c0-0.1-0.1-0.2-0.1-0.5l0.1-3.1
		l-0.1-0.4c0-0.9,0.3-1.9,0.9-2.9c0.6-1.1,0.9-2.2,0.9-3.6c0-0.5,0-0.9-0.1-1.2c0.2,0,0.4-0.4,0.4-1.2v-1.2v-0.6
		c-0.2,0-0.2-0.1-0.2-0.2c0-1.5,0.2-2.8,0.5-4.1c0.3-1.3,0.5-2.6,0.5-4.1v-0.4l-0.5,0.2c0.2-0.2,0.2-0.4,0.2-0.9
		c0-0.2-0.1-0.3-0.2-0.6c-0.1-0.2-0.2-0.5-0.2-0.9c0-0.2,0.1-0.4,0.4-0.4h2.1c0.7,0,1.3,0,2.1,0.1c0.7,0.1,1.5,0.1,2.2,0.1
		c0.2,0,0.3,0,0.4-0.1c0.1-0.1,0.3-0.1,0.6-0.1h0.5c0.1,0,0.3,0.2,0.6,0.5c0.3,0.3,0.5,0.5,0.7,0.5l0.6,0.2c0.6,0.2,1.4,1.1,2.4,2.7
		c1,1.6,2,3.2,3.1,5.1c1,1.8,1.9,3.5,2.7,5.1c0.8,1.6,1.2,2.4,1.3,2.6c0.9,1.6,1.9,3.3,2.9,5c1,1.7,1.9,3.5,2.5,5.3
		c0.7,0.7,1.4,1.6,2.1,2.6c0.8,1,1.4,2,2,2.9l0.1,0.6h0.2c0.2,0,0.2-0.1,0.2-0.2c0-0.1,0-0.3,0.1-0.4v-1.6c0-0.8,0.1-1.6,0.4-2.3
		c0.2-0.7,0.4-1.3,0.4-1.9c0-0.2-0.1-0.4-0.2-0.7l-0.5,0.1V36c0-0.3,0.1-0.6,0.4-0.9c0.3-0.2,0.4-0.9,0.4-1.8v-0.2
		c0-0.2,0-0.3-0.1-0.3c0,0-0.1-0.1-0.1-0.3l1-7.3c0.1-0.5,0.2-0.8,0.4-1c0.2-0.2,0.4-0.3,0.6-0.3c0.2,0,0.4-0.1,0.6-0.2
		c0.2-0.1,0.2-0.2,0.2-0.5c0.4-2,0.8-4.2,1.3-6.7c0.4-2.5,0.8-4.6,1.2-6.4L237,9.4c0.2-0.8,0.5-1.7,0.8-2.7c0.3-1,0.6-1.9,1-2.8
		c0.4-0.9,0.8-1.6,1.3-2.2c0.4-0.6,1-1,1.7-1.2l0.1,0.1l0.2-0.4c0.2,0,0.4,0,0.6-0.1c0.2,0,0.3,0,0.4-0.1c1.1,0,2.1,0.2,3.1,0.7
		c1,0.5,1.9,1,2.6,1.7c0.8,0.6,1.4,1.2,1.8,1.8c0.4,0.6,0.7,1,0.7,1.2l0.1,0.2c0,0.1,0.2,0.3,0.5,0.6v0.1c-0.3,0.8-0.7,1.6-1,2.2
		c-0.3,0.7-0.7,1.4-1.1,2.1c-0.4,0.8-0.9,1.7-1.3,2.6s-1,2.2-1.6,3.8v-0.6l-0.7,1v2.2h-0.5c-0.1,0.3-0.3,0.6-0.7,0.9
		c-0.4,0.2-0.7,0.4-0.9,0.6l0.4,0.6c0.1,0,0.1,0,0.1,0.1c0,0.1-0.1,0.2-0.2,0.5c-0.2,0.2-0.2,0.7-0.2,1.2l-0.5-0.5
		c-0.2,0-0.5,0.1-0.7,0.4c-0.2,0.2-0.4,0.7-0.4,1.2h0.2c0.4,0,0.7-0.3,0.9-0.9c0.3,0.2,0.5,0.3,0.5,0.5c0,0.2,0.1,0.3,0.2,0.4
		c0.2-0.1,0.3-0.2,0.5-0.5c0.2-0.2,0.3-0.4,0.5-0.5l0.4,0.1c0,0.2-0.1,0.5-0.4,0.7c-0.3,0.2-0.4,0.5-0.4,0.9c0,0.2,0,0.3,0.1,0.4
		l-0.2-0.1c-0.2,0-0.3,0.2-0.6,0.5c-0.2,0.3-0.7,0.5-1.5,0.5c0.1-0.3,0.2-0.6,0.3-0.8c0.1-0.2,0.2-0.4,0.3-0.6
		c-0.7,0.4-1.1,0.9-1,1.6c0,0.7-0.2,1.2-0.8,1.6l0.4,1c0,0.2-0.2,0.7-0.7,1.2c-0.4,0.6-0.7,1-0.8,1.2h0.2c0.1,0,0.1,0,0.2-0.1
		c0,0,0.1-0.1,0.2-0.1c0.2,0.4,0.5,0.6,0.7,0.6h0.1c0,0.4-0.2,0.9-0.6,1.3c-0.4,0.5-0.6,1.1-0.6,2c0.2,0,0.4,0,0.6,0.1
		c0.2,0,0.3,0.1,0.5,0.1c0.2,0,0.4-0.2,0.7-0.5c0.1,0.1,0.2,0.1,0.2,0.1c0.2,0,0.3-0.1,0.4-0.2c0.1-0.1,0.3-0.2,0.4-0.2L243.8,35.4z
		 M240.2,24.1v-0.5c0-0.2,0-0.4-0.1-0.4c-0.6,0.8-1.1,1.6-1.5,2.3c-0.4,0.7-0.8,1.3-1,2c-0.3,0.7-0.4,1.2-0.4,1.6
		c0,0.3,0.1,0.6,0.4,0.9c0.3,0.2,0.5,0.4,0.7,0.6l0.4-0.5c0-0.5-0.1-0.8-0.2-0.9c-0.1-0.1-0.4-0.4-0.8-0.9l1.1-0.5
		c0.2-0.1,0.2-0.2,0.2-0.4c0-0.2,0-0.4,0-0.7s0.1-0.5,0.2-0.8c0.2-0.3,0.5-0.6,1-0.8c-0.1-0.2-0.1-0.3-0.2-0.4
		c0-0.1-0.1-0.3-0.2-0.6L240.2,24.1z M241.2,22.9c0,0.2,0,0.2-0.1,0.2c0,0-0.1,0.1-0.1,0.2l0.5-0.2L241.2,22.9z M241.7,31.7
		c-0.3-0.2-0.5-0.3-0.5-0.4s0-0.1,0.1-0.1c0,0,0.1,0,0.1-0.1h0.4V31.7z M241.6,33.9c0-0.2,0.1-0.2,0.2-0.2l-0.1,0.6L241.6,33.9z
		 M242.5,34.8c0-0.2,0.1-0.5,0.3-0.7c0.2-0.2,0.3-0.4,0.3-0.6c0-0.1,0-0.1-0.1-0.2c0,0-0.1-0.1-0.1-0.2c0-0.6,0.3-0.9,0.9-0.9
		c-0.4,0.9-0.6,1.6-0.6,2c0,0.4-0.1,0.6-0.4,0.6C242.7,34.9,242.6,34.9,242.5,34.8z M243.4,22.4c0-0.2-0.1-0.4-0.4-0.6l-0.1,0.6
		H243.4z"/>
	<path class="st4" d="M259.3,41.4c0-0.2,0.1-0.6,0.2-1.2c0.2-0.6,0.3-1.2,0.6-1.9c0.2-0.7,0.4-1.3,0.6-1.9c0.2-0.6,0.2-1,0.2-1.2
		l0.2-0.5h0.2v0.9c-0.1,0.2-0.2,0.6-0.3,1.2c-0.1,0.7-0.2,1.4-0.4,2.1c-0.1,0.8-0.2,1.5-0.3,2.1c-0.1,0.7-0.1,1.1-0.1,1.2
		c0,0.7,0.1,1.6,0.2,2.9c0.1,1.3,0.2,2.3,0.2,3.1v0.5c-0.2-0.2-0.4-0.6-0.6-1.2c-0.2-0.7-0.3-1.4-0.4-2.2c-0.1-0.8-0.2-1.6-0.2-2.3
		c0-0.7-0.1-1.2-0.1-1.4V41.4z M261.4,34c0-0.2,0.1-0.6,0.4-1.4c0.3-0.8,0.6-1.2,0.8-1.4v-0.4c0-0.2,0.1-0.3,0.4-0.3
		c0.3,0,0.5-0.1,0.6-0.1c-0.2,0.5-0.3,1-0.5,1.5c-0.2,0.9-0.6,1.7-1.1,2.3h-0.2V34H261.4z M306.1,47.5c-0.4,0.7-0.8,1.6-1.3,2.9
		c-0.4,1.3-0.8,2.4-0.9,3.4l0.2,1l1.1-1.8c0,0.1,0,0.2-0.1,0.5c0,0.2-0.1,0.4-0.1,0.5l-0.6,2.1c-0.9,0.7-1.4,1.2-1.5,1.6l-2.3,1.5
		l-0.2,2.9l0.4,0.6l2.1-2.7v-0.6l0.6-0.4l-0.5,3.3l-2.6,8.6l1.2-0.6l-1.3,1.7l-0.1,0.5c-0.2,0.2-0.5,0.4-0.9,0.8
		c-0.4,0.4-0.7,0.6-0.7,0.8l-1.1,1.1v-0.6l1-2.3l-1.1-1.1V70l-0.6,0.5v0.6c-0.9,2.4-1.5,4.7-1.7,6.7L295,79c0.5-0.2,0.9-0.6,1.2-1.2
		c0.3-0.5,0.8-0.8,1.3-0.8h0.4l-0.1,0.6l-0.7,1l-0.7,2.8c-0.1,0.2-0.2,0.6-0.2,1.2c-0.1,0.5-0.2,1.1-0.2,1.7
		c-0.1,0.6-0.2,1.1-0.2,1.5c-0.1,0.4-0.2,0.6-0.2,0.6c-0.2,0-0.2-0.3-0.2-0.9l-1.1-0.1l0.2,1.6h-0.1h-0.5c-0.2,0-0.3,0-0.5,0.1
		c-0.2,0.1-0.2,0.3-0.2,0.6v0.1c0,0.1,0.1,0.2,0.2,0.4l-1.8,1.2c-0.5-0.2-0.9-0.3-1.3-0.4c-0.4-0.1-0.5-0.2-0.4-0.2
		c-0.2,0-0.4,0-0.9,0.1c-0.4,0.1-0.7,0.2-0.9,0.2c-0.9-0.4-1.6-0.8-2-1.3c-0.4-0.4-1.1-0.7-2-0.7c0.2,0.2,0.3,0.5,0.6,0.9
		c0.2,0.3,0.3,0.8,0.3,1.3v0.2c-0.3,0-0.8-0.3-1.5-1c-0.3,0-0.7,0.3-1.1,1c-0.2-0.4-0.7-0.8-1.2-1.2c-0.6-0.4-1.1-0.7-1.5-1v-5.5
		l1.5-5.6l1.8-5.6c0-0.2,0.1-0.4,0.2-0.8c0.2-0.4,0.3-0.8,0.5-1.2c0.2-0.4,0.3-0.8,0.5-1.2c0.2-0.3,0.2-0.6,0.2-0.7l0.7-1.1V65
		c0.1-0.2,0.4-0.8,0.9-1.5c0.5-0.8,0.7-1.3,0.7-1.7l1.1-2.8c0-0.1,0.1-0.4,0.2-0.9c0.2-0.5,0.3-1,0.5-1.6c0.2-0.7,0.5-1.4,0.9-2.2
		c-1.1,0.3-1.9,0.6-2.5,0.9c-0.6,0.2-1.2,0.5-1.8,0.7c-0.6,0.2-0.9,0.3-1.1,0.3c-0.2,0.1-1,0.1-2.3,0.1c-2,0-4-0.2-5.8-0.5
		c-1.8-0.3-3.4-0.6-4.8-0.7l-0.5-0.7c-0.4-0.1-0.9-0.3-1.5-0.7c-0.6-0.4-1.2-0.7-1.8-1.1c-0.6-0.4-1.1-0.7-1.6-1
		c-0.4-0.3-0.7-0.4-0.8-0.4l-0.6-0.9V50c-0.4-0.5-0.7-1.1-1-2c-0.2-0.8-0.4-1.7-0.6-2.6c-0.1-0.9-0.2-1.9-0.2-2.8
		c0-0.9-0.1-1.6-0.1-2.1c0-1.1,0.2-2.3,0.6-3.7c0.4-1.4,0.8-2.8,1.2-4c0.4-1.3,0.9-2.3,1.2-3.2c0.4-0.9,0.6-1.4,0.6-1.5l-0.4-0.1
		c-0.2,0.2-0.4,0.5-0.7,1.1c-0.3,0.6-0.6,0.9-0.7,0.9v-0.2c0-0.2,0.1-0.4,0.4-0.7c0.3-0.3,0.4-0.6,0.4-0.8V28l1.2-1.6h-0.2v-0.1
		c0-0.2,0.1-0.2,0.2-0.2c0.2,0,0.2,0,0.2,0.1l-0.1,0.1l0.7-0.9c0-0.8,0.5-1.8,1.4-2.8c0.9-1.1,2-2.1,3.3-3.2
		c1.3-1.1,2.5-2.1,3.8-3.1c1.3-1,2.2-1.9,2.9-2.5l-0.2-0.4c0.9-1.1,2.2-1.9,4-2.6c1.8-0.7,3.2-1.4,4.5-2.2c0.7-0.4,1.2-0.8,1.8-1.1
		c0.5-0.3,1.2-0.5,2.1-0.5c0.4,0,0.8,0.1,1.1,0.4c0.3,0.2,0.7,0.4,1.2,0.6l0.6,1.3c0.2,0,0.4,0.2,0.7,0.6c0.3,0.4,0.6,0.8,0.9,1.2
		c0.3,0.4,0.5,0.9,0.7,1.3c0.2,0.4,0.3,0.8,0.3,0.9c0,0.7-0.2,1.3-0.5,1.6c-0.3,0.3-0.7,0.6-1.2,0.7c-0.4,0.2-0.9,0.3-1.4,0.5
		c-0.5,0.2-0.9,0.4-1.2,0.7c0,0.1,0,0.3-0.1,0.6c-0.1,0.3-0.3,0.5-0.6,0.5c-0.1,0-0.2,0-0.2-0.1c-0.2,0.4-0.5,0.8-1,1.2
		c-0.5,0.4-1,0.6-1.4,0.8c-0.2,0-0.3,0-0.6-0.1c-0.2-0.1-0.3-0.1-0.4-0.1c0,0.1,0,0.2-0.1,0.2c0,0.1-0.1,0.2-0.1,0.2
		c0,0.2,0.2,0.2,0.5,0.2h0.1l-5.8,4.3l0.2,0.1c-0.2,0.2-0.3,0.2-0.6,0.2c-0.2,0-0.3,0.1-0.3,0.4l-2,1.3l-0.1,0.5H279l-1.5,2.6
		c-0.1,0.2-0.2,0.6-0.4,1.2c-0.2,0.7-0.4,1.1-0.6,1.5l-0.4,0.6v1.6H276l-0.2,0.5l0.2,0.2c0,0.3-0.1,0.5-0.2,0.6
		c-0.1,0-0.3,0.1-0.4,0.3l-1.3,4.4c0,0.2,0,0.4-0.1,0.6c-0.1,0.2-0.1,0.4-0.1,0.5v1.3c0,0.6,0,1.2,0,1.8s-0.1,1.1-0.2,1.5
		c0.2,0.2,0.4,0.4,0.6,0.9c0.1,0.4,0.3,0.7,0.4,0.9c0.2,0.2,0.7,0.4,1.3,0.6c0.6,0.2,1.3,0.3,2,0.4c0.7,0.1,1.4,0.2,2.1,0.2
		c0.7,0,1.2,0.1,1.6,0.1h0.4c0.7-0.7,1.8-1.3,3.4-1.8c1.6-0.6,3.2-1.4,4.8-2.4l3.7-7.6c0-0.2,0.1-0.4,0.4-0.9
		c0.2-0.4,0.4-0.8,0.4-1.2c0-0.4-0.4-0.6-1.1-0.6c-0.7,0-1.5,0.1-2.4,0.4c-0.9,0.3-1.7,0.4-2.5,0.4c-0.2,0-0.3-0.1-0.5-0.2
		c-0.2-0.1-0.3-0.2-0.5-0.2c-0.2,0-0.3,0-0.3,0.1c0,0-0.1,0.1-0.2,0.1h-0.5h-0.4c-0.2,0-0.3,0-0.4-0.1l-0.2-0.5
		c-0.4-0.2-0.7-0.4-0.9-0.6c-0.2-0.1-0.4-0.5-0.6-1.2v-0.7l-0.4-0.4c-0.1-0.1-0.1-0.4-0.1-0.9c0-0.2,1.2-0.5,3.7-0.8
		c2.5-0.3,5.5-0.6,9-0.9c3.5-0.3,7.1-0.5,10.9-0.7c3.8-0.2,6.9-0.3,9.4-0.3c1,0,2,0.1,3,0.2c1,0.2,1.5,0.6,1.5,1.2
		c0,0.6,0,1-0.1,1.2c-0.1,0.2-0.2,0.4-0.3,0.5c-0.1,0.1-0.2,0.1-0.4,0.1c-0.1,0-0.2,0.1-0.3,0.2l0.2,0.2l-0.2,0.1
		c-0.2,0.2-0.3,0.2-0.5,0.2c-0.1,0-0.2-0.1-0.4-0.2c-0.3,0-0.8,0.1-1.5,0.2c-0.7,0.1-1.2,0.2-1.7,0.2v0.2c0,0.1,0,0.1,0.1,0.1
		c0,0.5-0.3,0.8-0.9,1c-0.6,0.2-1.2,0.4-1.9,0.6c-0.7,0.2-1.3,0.5-1.9,0.9c-0.6,0.4-0.9,0.9-0.9,1.7l-0.1-0.1
		c-0.3,0.2-0.6,0.5-0.9,1.1c-0.2,0.6-0.5,1.2-0.7,1.9c-0.2,0.7-0.5,1.4-0.7,2c-0.2,0.7-0.5,1.1-0.7,1.5l0.2,0.4
		c0,0.2-0.2,0.9-0.6,1.8L306.1,47.5z M263.5,29.6c0,0.3,0,0.5,0.1,0.5H263L263.5,29.6z M265.9,27.3c-0.2,0-0.2,0.1-0.2,0.2
		c0,0.2,0.1,0.2,0.2,0.2c0.2,0,0.2-0.1,0.2-0.2C266.2,27.4,266.1,27.3,265.9,27.3z M291.5,16c0.1,0.1,0.3,0.1,0.6,0.1
		c0.2,0,0.4,0,0.4-0.1c0,0,0.1-0.1,0.2-0.2c-0.1,0-0.1-0.2-0.1-0.5c-0.2,0-0.5,0.1-0.7,0.2C291.6,15.8,291.5,16,291.5,16z M294.6,82
		l-0.7,0.4V83l0.7-0.6V82z M294.3,83.6c-0.2,0-0.4,0.1-0.4,0.4c0,0.4,0.2,0.7,0.6,0.9c0.2,0,0.4-0.1,0.4-0.4
		C295,83.9,294.7,83.6,294.3,83.6z M294.8,80.2h0.5l0.1-0.5L294.8,80.2z M298.3,67.8l-0.1,1.1l2-0.5l0.1-1.1L298.3,67.8z
		 M299.6,48.1h-0.2c-0.4,0-0.6,0.3-0.6,0.9c0,0.3,0.1,0.5,0.4,0.5c0.5,0,0.7-0.3,0.7-0.9C299.9,48.4,299.8,48.3,299.6,48.1z
		 M300.1,65l0.5,0.5l0.1-0.5l-0.6-0.6V65z M303.2,44.8l-1.7,2.9c-0.2,0.2-0.4,0.8-0.6,1.5c-0.2,0.8-0.4,1.3-0.6,1.7l0.4,0.9l2.3-3.9
		c0-0.2,0-0.6,0.1-1c0-0.4,0.1-0.8,0.3-1.1L303.2,44.8z M302.5,52.3c-0.1,0.1-0.1,0.2-0.1,0.4c0,0.2,0.1,0.2,0.2,0.2
		c0.3,0,0.5-0.2,0.5-0.6c0-0.2-0.1-0.2-0.2-0.2C302.7,52,302.6,52.1,302.5,52.3z M304.3,49.5c0.2-0.2,0.2-0.5,0.2-1
		c0-0.5,0.1-1,0.2-1.3l-1.1,2l-0.4,2l0.6-1.1L304.3,49.5z M304.4,57.3c0.2,0,0.4,0.2,0.4,0.5c0,0.4-0.2,0.6-0.5,0.6
		c-0.2,0-0.4-0.2-0.4-0.5C303.9,57.5,304.1,57.3,304.4,57.3z M306.2,51.3c0.2-0.2,0.3-0.2,0.4-0.2c0.2,0,0.2,0.1,0.2,0.2
		c0,0.4-0.2,0.6-0.5,0.6c-0.2,0-0.2-0.1-0.2-0.2v-0.1C306.1,51.5,306.1,51.4,306.2,51.3z M308.3,47.9l-1.3,2.3v-1.6l0.7-1.1
		L308.3,47.9z M308.8,44.3l-0.1,1.5l-0.4,0.6l-0.1-0.9l0.4-0.6L308.8,44.3z M308.5,41c0-0.2,0-0.2-0.1-0.2V41v0.1
		C308.5,41.1,308.5,41.1,308.5,41z"/>
	<path class="st4" d="M380.1,64.4c-0.1,0-0.3,0.1-0.7,0.2c-0.4,0.1-0.8,0.3-1.2,0.6c-0.4,0.2-0.9,0.5-1.2,0.8
		c-0.4,0.3-0.6,0.6-0.6,0.8v0.1c0,0.2,0.1,0.3,0.2,0.5L376,68c-0.3-0.2-0.5-0.3-0.5-0.4c0-0.1,0-0.1,0.1-0.1c0,0,0.1,0,0.1-0.1h-0.1
		c-0.1,0-0.2,0-0.3,0.1c-0.1,0.1-0.3,0.2-0.4,0.2c-0.5-0.2-0.8-0.3-1-0.6c-0.2-0.2-0.4-0.4-0.6-0.6c-0.2-0.2-0.4-0.4-0.6-0.6
		c-0.2-0.2-0.6-0.2-1.1-0.2c0.2,0.2,0.4,0.5,0.6,0.7c0.2,0.2,0.4,0.6,0.4,1.3V68c-0.2,0-0.5-0.1-0.8-0.4c-0.3-0.2-0.6-0.5-0.8-0.9
		c-0.3,0-0.6,0.1-0.8,0.4c-0.2,0.3-0.4,0.6-0.6,0.8c-0.2-0.4-0.7-0.9-1.5-1.5c-0.7-0.6-1.3-1.1-1.7-1.5l0.2-0.6h-0.2
		c0-0.2-0.1-0.4-0.2-0.4c-0.2,0-0.4-0.1-0.6-0.2c-0.2-0.1-0.4-0.3-0.6-0.6c-0.2-0.2-0.2-0.6-0.2-1.1c0-0.7,0.2-1.7,0.7-3.2l-0.2-0.7
		c0-0.3,0.1-0.5,0.4-0.6c0.2-0.1,0.5-0.2,0.9-0.3c0.3-0.1,0.6-0.3,0.9-0.6c0.2-0.2,0.4-0.7,0.4-1.3c0-3.3,0.1-5.6,0.3-6.9
		c0.2-1.3,0.4-2.2,0.7-2.8c0.2-0.6,0.5-1,0.7-1.4c0.2-0.4,0.3-1.2,0.3-2.6c-0.3,0.3-0.6,0.5-0.7,0.5c-0.1,0-0.2-0.1-0.4-0.2l0.2-7.5
		c0.2-0.6,0.3-1.4,0.5-2.4c0.2-1,0.2-1.6,0.2-1.7l1.5-3.3V26l0.1-0.5c0.1-1.1,0.2-1.9,0.4-2.4c0.2-0.6,0.4-1,0.6-1.4
		c0.2-0.4,0.3-0.8,0.5-1.2c0.2-0.4,0.3-1.1,0.5-1.9v-1.2l-4.8,0.6l-3.1,0.7h-0.9c-0.1,0-0.2,0.1-0.4,0.2c-0.2,0.1-0.3,0.2-0.5,0.2
		v-0.1c-0.5,0-0.7-0.1-0.7-0.2c0-0.2-0.2-0.2-0.5-0.2c-0.1,0-0.2,0-0.2,0.1c-0.1,0-0.2,0.1-0.4,0.1h-0.9c-0.1,0-0.2,0.1-0.4,0.2
		c-0.2,0.1-0.4,0.2-0.6,0.2h-0.1c-1.4,0-2.3-0.1-2.6-0.4c-0.4-0.2-0.5-0.3-0.4-0.2v-0.6c-1,0-1.6-0.6-2-1.7c-0.3-1.1-0.5-2-0.5-2.8
		l0.9-0.7l0.2-0.1c0.4,0,0.7,0,1,0.1c0.2,0,0.5,0.1,0.9,0.1c0.8,0,1.4,0,1.7-0.1c0.3-0.1,0.7-0.3,1-0.7h1c1.2,0,2.2-0.1,2.9-0.4
		c0.7-0.3,1.7-0.4,2.8-0.4c0.3,0,0.8,0.1,1.5,0.2c0.7,0.1,1.2,0.2,1.5,0.2h0.1l0.2-0.1c0.1,0.1,0.2,0.1,0.4,0.1c0.3,0,0.7-0.1,1-0.3
		c0.3-0.2,0.5-0.3,0.6-0.3l0.1,0.1c0.3,0,0.9-0.3,1.7-0.8c0.8-0.5,1.4-0.8,2-0.8c0.2,0,0.5,0,0.8,0.1c0.3,0,0.6,0.1,1,0.1
		c0.7,0,1.3-0.1,2.1-0.4h0.6c1,0,1.9-0.1,2.9-0.2c0.9-0.1,1.9-0.2,2.9-0.2h0.6c0.2,0,0.4,0,0.8-0.1c0.4-0.1,0.9-0.1,1.5-0.1
		c0.2,0,0.5,0,0.7,0c0.2,0,0.6,0,1,0.1h3.1c1,0,1.9,0.1,2.8,0.2c0.9,0.1,1.9,0.5,3,1c-0.2,0.2-0.2,0.4-0.2,0.6
		c0,0.2,0.1,0.6,0.2,1.3c0.1,0.7,0.2,1.1,0.2,1.3c0.1,0,0.1,0,0.1-0.1c0,0,0-0.1,0.1-0.1c0.1,0,0.2,0,0.2,0.1
		c-1.4,1-2.9,1.6-4.4,1.9c-1.6,0.3-2.9,0.6-3.9,0.8c-0.2,0-0.8,0.1-2,0.4c-1.1,0.2-3.3,0.7-6.5,1.3l2,1.1c-0.4,0.4-0.7,1-1,1.7
		c-0.2,0.7-0.4,1.3-0.4,1.9l1.1-0.4l-1.3,2.9v4.9c-0.6,0.2-0.9,0.8-0.9,1.6l0.6-0.4h0.2c0.2,0,0.2,0.2,0.2,0.6v0.4
		c0,0.2,0,0.4-0.1,0.7c-0.1,0.3-0.1,0.6-0.1,0.9l-1.1,0.9v2c0.3,0,0.5-0.2,0.5-0.5c0-0.2,0-0.4-0.1-0.4c-0.1,0-0.1-0.1-0.1-0.3
		c0-0.5,0.2-0.7,0.6-0.7c0.3,0,0.5,0.1,0.5,0.2v1v0.7c0,0.5-0.1,0.8-0.2,1L383,37l-0.1,0.9l-0.5-0.2c-0.2,0-0.3,0.2-0.3,0.7
		c0,0.4-0.1,1-0.2,1.5c-0.1,0.6-0.1,1.1-0.1,1.7s0,0.8,0,0.9c0,0.3,0,0.6,0.1,0.9l0.2-0.2c0-0.2,0-0.4,0.1-0.6
		c0.1-0.2,0.1-0.4,0.1-0.5l-0.2-0.2v-0.5c0-0.2,0-0.3,0.1-0.6c0-0.2,0.3-0.3,0.7-0.3c0.2,0,0.4,0.3,0.4,0.9c0,0.3-0.1,0.6-0.2,0.7
		c-0.1,0.2-0.2,0.4-0.2,0.9c0,0.2,0,0.3,0.1,0.4c0,0.1,0.1,0.3,0.1,0.4c0,0.2-0.1,0.3-0.2,0.6c-0.1,0.2-0.2,0.4-0.2,0.6
		c0,0.2,0,0.5,0.1,0.9c0.1,0.4,0.1,0.8,0.1,1c0,0.2-0.1,0.5-0.2,0.8c-0.2,0.3-0.3,0.6-0.5,0.9l-0.7,1.1v4.8
		c-0.2,0.4-0.4,0.8-0.4,1.2c0,0.2,0,0.5,0.1,0.8c0,0.3,0.1,0.5,0.1,0.7L380.1,64.4z M369.5,46.5c-0.1,0.1-0.1,0.2-0.1,0.2
		c0,0.2,0.1,0.3,0.2,0.4c0.2,0.1,0.3,0.2,0.5,0.4v-0.4c0-0.2,0-0.4-0.1-0.6c0-0.2-0.2-0.4-0.4-0.4c-0.4,0-0.8,0.2-1.1,0.7
		c0.3-0.2,0.6-0.4,0.9-0.4H369.5z M369.5,45.2c-0.2,0-0.2,0.1-0.2,0.4c0,0.2,0.1,0.4,0.2,0.4c0.2,0,0.2-0.1,0.2-0.2
		C369.8,45.5,369.7,45.3,369.5,45.2z M380.2,44.8c0.5-2.3,0.7-4.5,0.7-6.7v-1.2l-0.7,2.3V44.8z M380.3,35.6l0.9,0.1
		c0-0.9,0-1.9,0.1-3c0.1-1.1,0.1-2.1,0.1-3l-0.2-1.2c-0.2,0.1-0.3,0.4-0.4,0.9c-0.1,0.5-0.2,1-0.2,1.7c-0.1,0.6-0.1,1.2-0.2,1.8
		c0,0.6-0.1,0.9-0.1,1.1l0.2,0.9L380.3,35.6z"/>
	<path class="st4" d="M410.8,28.3c0.2-0.9,0.7-1.7,1.2-2.3c0.6-0.6,1.1-1.3,1.5-2.1c0.1-0.1,0.3-0.4,0.7-1c0.4-0.6,0.9-1.2,1.3-1.9
		c0.5-0.7,1-1.3,1.4-1.8c0.4-0.5,0.8-0.8,0.9-0.8c0-0.3,0.1-0.7,0.4-1.1c0.3-0.4,0.6-0.8,1-1.2s0.7-0.7,1.1-0.9
		c0.4-0.2,0.6-0.4,0.8-0.4h0.7l0.2,0.5h1.1c0.4,0.1,0.8,0.3,1.2,0.6c0.4,0.3,0.8,0.5,1.2,0.6h1c2.4,0.6,4.9,1.4,7.3,2.4
		c2.4,1,4.4,2.6,6.1,4.8c0.4,1.3,0.8,2.6,1.2,3.7c0.4,1.2,0.9,2.4,1.3,3.7c0,0.7,0,1.5-0.1,2.5c0,1-0.1,3.1-0.3,6.2v0.7
		c0,0.5-0.1,1.2-0.4,2.1c-0.3,0.9-0.6,1.8-1,2.7c-0.4,0.9-0.8,1.7-1.2,2.3c-0.4,0.7-0.7,1-1,1l-0.1,0.1c-0.4,0.7-1.1,1.5-2.1,2.4
		c-1,1-2.3,2-3.7,2.9c-1.5,1-3.1,1.8-4.9,2.5c-1.8,0.7-3.7,1-5.6,1c-1.3,0-2.6-0.1-3.8-0.4c-1.2-0.3-2.4-0.6-3.4-1l-1.1-1.2
		l-2.7-0.5c-0.5-0.3-0.9-0.8-1.3-1.4s-0.7-1.2-1-1.7c-1.1-1.2-1.9-2.5-2.1-3.9c-0.3-1.3-0.4-3-0.4-4.8c0-0.4,0-0.7,0.1-0.9
		c0.1-0.2,0.1-0.5,0.1-0.9v-0.4c0-0.1,0.1-0.3,0.2-0.7c0.1-0.4,0.2-0.8,0.4-1.3c0.1-0.4,0.2-0.9,0.4-1.2c0.1-0.4,0.2-0.6,0.2-0.8
		l0.7-1c0-0.2,0.1-0.5,0.4-0.8c0.2-0.3,0.4-0.5,0.4-0.7l0.2,0.4c0.1-0.2,0.2-0.4,0.2-0.9c0.1-0.4,0.2-0.7,0.2-0.7l0.4-0.9
		c0-0.2,0.1-0.4,0.2-0.9c0.1-0.4,0.2-0.7,0.3-0.9h-0.6c-0.1,0-0.2,0-0.2,0.1L410.8,28.3z M407.5,38.6c-0.2,0.2-0.2,0.4-0.2,0.9
		l-0.1,0.7l0.5-0.5c0-0.2,0.1-0.4,0.2-0.6c0.1-0.2,0.2-0.4,0.2-0.5l0.2-0.6L407.5,38.6z M408.7,35.6c-0.3,0.3-0.5,0.7-0.5,1V37
		l1-1.2L408.7,35.6z M409.7,38.3l0.4-0.2l0.1-1L409.7,38.3z M411.9,32l-1.1,2.4c0,0.3,0,0.6-0.1,0.9c-0.1,0.2-0.1,0.5-0.1,0.9
		l0.4,0.1l1.1-2.7c0-0.2,0-0.4,0.1-0.9c0-0.4,0.1-0.7,0.2-0.7H411.9z M411.9,29c0-0.2-0.1-0.4-0.2-0.4c-0.2,0-0.2,0.1-0.2,0.4
		c0,0.2,0.1,0.2,0.2,0.2L411.9,29z M417.3,41.9c0,0.3,0,0.8-0.1,1.3c0,0.6-0.1,1.1-0.1,1.7c0,0.8,0.1,1.6,0.2,2.2l0.7,3.9l1.2-0.2
		c0.2,0.3,0.6,0.5,1.1,0.5c1.1,0,2.2-0.2,3.3-0.6c1.1-0.4,2.2-1,3.1-1.8L429,46l1.2-2.8l0.4-2.9c0.3-0.7,0.5-1.5,0.6-2.2
		c0.1-0.7,0.1-1.5,0.1-2.2v-2.4c0-1.1,0-2.4-0.1-4.1c0-1.7-0.4-3-1.2-3.9c-0.6-0.7-1.3-1.4-2.3-2.3c-0.9-0.9-1.7-1.3-2.4-1.3
		c-0.3,0-0.7,0.2-1.2,0.7c-0.4,0.5-0.8,0.7-0.9,0.7c-0.7,0.6-1.2,1.3-1.3,2.2c-0.1,0.9-0.4,1.8-0.8,2.6l-0.2,1.8
		c-1.1,2.1-2,4.1-2.7,6C417.6,37.8,417.3,39.8,417.3,41.9z"/>
	<path class="st4" d="M454.5,28.3c0.2-0.9,0.7-1.7,1.2-2.3c0.6-0.6,1.1-1.3,1.5-2.1c0.1-0.1,0.3-0.4,0.7-1c0.4-0.6,0.9-1.2,1.3-1.9
		c0.5-0.7,1-1.3,1.4-1.8c0.4-0.5,0.8-0.8,0.9-0.8c0-0.3,0.1-0.7,0.4-1.1c0.3-0.4,0.6-0.8,1-1.2c0.4-0.4,0.7-0.7,1.1-0.9
		c0.4-0.2,0.6-0.4,0.8-0.4h0.7l0.2,0.5h1.1c0.4,0.1,0.8,0.3,1.2,0.6c0.4,0.3,0.8,0.5,1.2,0.6h1c2.4,0.6,4.9,1.4,7.3,2.4
		c2.4,1,4.4,2.6,6.1,4.8c0.4,1.3,0.8,2.6,1.2,3.7c0.4,1.2,0.9,2.4,1.3,3.7c0,0.7,0,1.5-0.1,2.5c0,1-0.1,3.1-0.3,6.2v0.7
		c0,0.5-0.1,1.2-0.4,2.1c-0.3,0.9-0.6,1.8-1,2.7c-0.4,0.9-0.8,1.7-1.2,2.3c-0.4,0.7-0.7,1-1,1l-0.1,0.1c-0.4,0.7-1.1,1.5-2.1,2.4
		c-1,1-2.3,2-3.7,2.9c-1.5,1-3.1,1.8-4.9,2.5c-1.8,0.7-3.7,1-5.6,1c-1.3,0-2.6-0.1-3.8-0.4c-1.2-0.3-2.4-0.6-3.4-1l-1.1-1.2
		l-2.7-0.5c-0.5-0.3-0.9-0.8-1.3-1.4c-0.4-0.6-0.7-1.2-1-1.7c-1.1-1.2-1.9-2.5-2.1-3.9c-0.3-1.3-0.4-3-0.4-4.8c0-0.4,0-0.7,0.1-0.9
		c0.1-0.2,0.1-0.5,0.1-0.9v-0.4c0-0.1,0.1-0.3,0.2-0.7c0.1-0.4,0.2-0.8,0.4-1.3c0.1-0.4,0.2-0.9,0.4-1.2c0.1-0.4,0.2-0.6,0.2-0.8
		l0.7-1c0-0.2,0.1-0.5,0.4-0.8c0.2-0.3,0.4-0.5,0.4-0.7l0.2,0.4c0.1-0.2,0.2-0.4,0.2-0.9c0.1-0.4,0.2-0.7,0.2-0.7l0.4-0.9
		c0-0.2,0.1-0.4,0.2-0.9c0.1-0.4,0.2-0.7,0.3-0.9h-0.6c-0.1,0-0.2,0-0.2,0.1L454.5,28.3z M451.2,38.6c-0.2,0.2-0.2,0.4-0.2,0.9
		l-0.1,0.7l0.5-0.5c0-0.2,0.1-0.4,0.2-0.6c0.1-0.2,0.2-0.4,0.2-0.5l0.2-0.6L451.2,38.6z M452.4,35.6c-0.3,0.3-0.5,0.7-0.5,1V37
		l1-1.2L452.4,35.6z M453.4,38.3l0.4-0.2l0.1-1L453.4,38.3z M455.6,32l-1.1,2.4c0,0.3,0,0.6-0.1,0.9c-0.1,0.2-0.1,0.5-0.1,0.9
		l0.4,0.1l1.1-2.7c0-0.2,0-0.4,0.1-0.9c0-0.4,0.1-0.7,0.2-0.7H455.6z M455.6,29c0-0.2-0.1-0.4-0.2-0.4c-0.2,0-0.2,0.1-0.2,0.4
		c0,0.2,0.1,0.2,0.2,0.2L455.6,29z M461,41.9c0,0.3,0,0.8-0.1,1.3c0,0.6-0.1,1.1-0.1,1.7c0,0.8,0.1,1.6,0.2,2.2l0.7,3.9l1.2-0.2
		c0.2,0.3,0.6,0.5,1.1,0.5c1.1,0,2.2-0.2,3.3-0.6c1.1-0.4,2.2-1,3.1-1.8l2.2-2.9l1.2-2.8l0.4-2.9c0.3-0.7,0.5-1.5,0.6-2.2
		c0.1-0.7,0.1-1.5,0.1-2.2v-2.4c0-1.1,0-2.4-0.1-4.1c0-1.7-0.4-3-1.2-3.9c-0.6-0.7-1.3-1.4-2.3-2.3c-0.9-0.9-1.7-1.3-2.4-1.3
		c-0.3,0-0.7,0.2-1.2,0.7c-0.4,0.5-0.8,0.7-0.9,0.7c-0.7,0.6-1.2,1.3-1.3,2.2c-0.1,0.9-0.4,1.8-0.8,2.6l-0.2,1.8
		c-1.1,2.1-2,4.1-2.7,6C461.4,37.8,461,39.8,461,41.9z"/>
	<path class="st4" d="M503.1,59.9l-2.4-0.2c-1.4-0.2-2.7-0.7-3.9-1.5c-1.2-0.9-1.9-1.9-2-3.2c0-0.2,0-0.4,0.1-0.5l0.6-0.1l0.2-1.1
		c-0.2,0-0.3-0.1-0.5-0.2l0.1-0.5l0.2-0.2l-0.2-1c0-0.1,0-0.1,0.1-0.1c0.1,0.1,0.2,0.1,0.2,0.1l1-1.2l0.2,0.1
		c-0.2,0-0.3,0.2-0.3,0.5c0,0.3-0.1,0.7-0.1,1.1v0.5c0,0.1,0,0.2,0.1,0.2h0.2c0.1-0.1,0.1-0.2,0.1-0.5v-0.9c0-0.2,0.1-0.5,0.2-1
		c0.1-0.5,0.2-0.9,0.2-1v-3.8c0-0.2,0.1-0.9,0.2-2.1c0.1-1.2,0.3-2.5,0.4-3.9c0.2-1.4,0.3-2.7,0.4-3.9c0.1-1.2,0.2-1.9,0.2-2
		l0.7-1.2l-0.7-1.7c0-0.4,0.1-1.1,0.2-2.1c0.2-1,0.2-1.7,0.2-2l0.4-1.7l0.9-1.2l-0.7-0.5v-2.3l0.6-2l-0.4-0.1l1.3-9.3
		c0-0.1,0-0.1-0.1-0.2c0,0-0.1-0.1-0.1-0.2c0-0.7,0.1-1.4,0.4-2.3c0.2-0.9,0.4-1.4,0.4-1.7l2.2-0.1l2.2-0.7h1.5
		c0.3,0,0.9,0.2,1.7,0.7c0.8,0.5,1.4,0.9,1.8,1.3l1.5,1.3c0.1,0.2,0.2,0.4,0.4,0.9c0.2,0.4,0.3,0.6,0.4,0.6l0.1,0.6
		c-0.1,0.2-0.2,0.7-0.3,1.5c-0.1,0.9-0.3,1.8-0.7,2.8c0.1,0.2,0.1,0.4,0.1,0.6c0,0.2-0.1,0.5-0.2,0.7c-0.1,0.2-0.3,0.4-0.4,0.6v0.1
		l-0.1,0.1c0,0.1,0,0.1,0.1,0.1h0.5c0,0.3-0.2,0.7-0.6,1.1c0.2,0.2,0.2,0.3,0.2,0.4c0,0.2-0.1,0.4-0.4,0.8c-0.3,0.4-0.4,0.9-0.4,1.5
		l0.1,0.4c-0.1,0.2-0.2,0.2-0.2,0.2c-0.1,0-0.1,0-0.1,0.1c0,0.2,0.1,0.4,0.4,0.6c-0.1,0.4-0.2,0.6-0.5,0.6c-0.2,0-0.4,0.4-0.4,1.1
		c0,0.2,0.2,0.3,0.7,0.4l-0.9,0.5c0,0.1,0,0.1,0.1,0.1c0.1,0,0.1,0,0.1,0.1c0,0,0.1,0.1,0.2,0.1l0.5,1.3c-0.2,0.3-0.4,0.6-0.6,0.8
		c-0.2,0.2-0.2,0.5-0.2,0.8v0.1v0.2c0,0.2,0.1,0.3,0.2,0.5c0,1.1-0.1,2-0.3,2.6c-0.2,0.6-0.3,1.1-0.3,1.5c0,0.2,0,0.4,0.1,0.5
		l0.4,0.2c-0.1,0.6-0.2,1.2-0.4,1.8c-0.2,0.6-0.4,1-0.6,1h-0.2l-0.1,0.5l0.6-0.1c-0.2,0.2-0.3,0.3-0.5,0.4c-0.2,0.1-0.2,0.3-0.2,0.4
		c0,0.1,0,0.1,0.1,0.1h0.7l-0.7,2.4h0.6c0.1,0.2,0.1,0.6,0.1,0.9c0,0.4,0,0.6,0.2,0.8l-0.2,0.4c0,0.9,0,1.6-0.1,2
		c0,0.4-0.1,1-0.2,1.7l-0.2,0.2l0.6,0.6c-0.1,0.2-0.1,0.2-0.2,0.2c0,0-0.1,0.1-0.3,0.2l0.1-0.4c-0.5,0.3-0.8,0.5-1,0.6l1.2,0.1
		c-0.5,0.5-0.9,0.7-1.1,0.7h-0.1h-0.4V48c0,1.1,0.2,2.2,0.5,3.2c0.3,1,1.1,1.5,2.3,1.5c0.2,0,0.3,0,0.4-0.1c0.1,0,0.2-0.1,0.2-0.1
		c0,0.2,0.1,0.4,0.2,0.4c0.3,0,0.9-0.1,1.8-0.4c0.9-0.2,1.9-0.4,3-0.4h1.1c0.7,0,1.1-0.2,1.3-0.6c0.2-0.4,0.5-0.6,0.9-0.8
		c0.2,0.1,0.4,0.1,0.4,0.2c0,0,0.1,0.1,0.2,0.3c0.5-0.5,1-0.7,1.6-0.7c0.1,0.1,0.3,0.1,0.7,0.1c0.4,0,0.6,0.2,0.6,0.5l0.5-0.2
		c0.2-0.1,0.3-0.2,0.3-0.2c0-0.1,0.1-0.1,0.2-0.1c0.6,0.6,1.3,0.9,2.2,1l-0.2,0.6c0.1,0.1,0.2,0.1,0.2,0.1c0.2,0,0.3-0.1,0.3-0.2
		c0-0.1,0.3-0.2,0.7-0.2c0,0.1,0.4,0.3,1.2,0.6c0.8,0.3,1.2,0.7,1.2,1.1c0,0.2,0,0.3-0.1,0.4l0.1,1c-0.6,0.2-1.1,0.4-1.6,0.6
		c-0.5,0.2-0.9,0.4-1.2,0.7c-0.2,0-0.5-0.1-0.7-0.2c-0.2-0.2-0.3-0.2-0.2-0.1c-0.1,0.2-0.1,0.4-0.1,0.6v0.1c0,0.1,0.1,0.1,0.2,0.1
		c-0.8,0.1-1.5,0.2-2.1,0.3c-0.6,0.1-1.3,0.2-2,0.2c-0.2,0-0.5,0-0.7-0.1c-0.2,0-0.5-0.1-0.9-0.1c-0.7,0-1.7,0.3-2.8,0.9
		c-1.1,0.6-2.3,0.9-3.5,0.9h-1c-0.3,0-0.8,0-1.3,0.1c-0.6,0-1.1,0.1-1.7,0.2c-0.5,0.1-1,0.2-1.3,0.4c-0.4,0.2-0.6,0.4-0.6,0.7
		l-0.2-0.5c-0.2,0.4-0.3,0.7-0.6,0.9c-0.2,0.2-0.4,0.4-0.6,0.7c-0.2-0.2-0.2-0.4-0.2-0.6c0-0.4,0.1-0.8,0.2-1.2
		c-0.2,0.2-0.8,0.2-1.6,0.2c-0.2-0.4-0.4-0.7-0.6-0.8c-0.2-0.1-0.4-0.2-0.4-0.3l-1.3,0.9L503.1,59.9z M529.7,53.5
		c-0.2,0-0.3,0-0.4,0.1c0,0.1,0.1,0.2,0.2,0.4c0.2,0,0.2-0.1,0.2-0.4C529.8,53.5,529.8,53.5,529.7,53.5z"/>
	<path class="st4" d="M566.8,59.9c-1.2-0.2-2.5-0.4-3.9-0.6c-1.4-0.2-2.7-0.3-4-0.4c-1.3-0.1-2.5-0.2-3.6-0.3
		c-1.1-0.1-2-0.1-2.7-0.1H550v1.3c-0.1,0-0.4,0-0.9,0c-0.5,0-1-0.1-1.4-0.2h-0.2l-0.2,0.5l-2.2,0.4l-2.6-0.7
		c-0.2,0.2-0.4,0.2-0.6,0.2s-0.5,0-0.7,0c-0.5,0-0.8-0.2-1-0.6c-0.2-0.4-0.3-0.9-0.4-1.3c-0.1-0.5-0.1-1-0.1-1.4
		c0-0.4,0-0.8-0.1-0.9l-0.4-0.2l0.1-0.2h0.1h0.1c0-0.2,0-0.2-0.1-0.2c0,0-0.1-0.1-0.1-0.2l0.1-1.3l-0.4,0.4c-0.2,0-0.2,0-0.2-0.1
		v-0.2c0-0.9,0.2-1.8,0.5-2.8c0.3-1,0.4-1.4,0.4-1.3h0.9c-0.2-0.4-0.4-0.6-0.7-0.4c-0.3,0.1-0.5-0.1-0.5-0.8c0-0.4,0.3-0.7,0.9-0.8
		c0.6-0.1,1-0.2,1.3-0.2c0.1,0,0.1,0.1,0.1,0.2l0.2-0.4c0-0.1,0-0.2,0.1-0.2c0-0.1,0.1-0.2,0.1-0.4v-1.2c-0.4,0.2-0.7,0.2-0.7,0.2
		c-0.1,0-0.4,0.1-1.1,0.6v-0.5c0-0.7,0.2-1,0.6-1h0.5v-1c-0.4,0-0.7,0.1-0.8,0.4c-0.1,0.2-0.4,0.4-0.8,0.4c0-0.4,0-0.9,0.1-1.6
		c0.1-0.7,0.4-1.1,1-1.2v-1.6c-0.2,0.2-0.3,0.2-0.4,0.2h-0.2c0.2-0.5,0.2-1,0.2-1.6v-0.5c-0.2,0.2-0.3,0.5-0.4,1.1
		c-0.1,0.6-0.3,1-0.6,1.2v-0.2c0-0.3,0-0.8,0.1-1.5c0.1-0.7,0.1-1.1,0.1-1.2l0.2-0.9l0.5,0.2l0.9-1.5h0.2c0-0.2,0-0.3,0.1-0.4
		c0-0.1,0.1-0.2,0.1-0.3V34l-0.4,0.4l-0.7-0.7c0-0.4,0.1-0.8,0.2-1.1c0.2-0.3,0.3-0.7,0.5-1.1c0.2-1,0.4-1.9,0.6-2.6
		c0.2-0.8,0.5-1.6,0.7-2.5c0.2-0.9,0.4-1.9,0.6-3.1c0.2-1.1,0.2-2.5,0.2-4.2v-0.6h-0.6c0-0.2-0.1-0.3-0.2-0.5c0-0.2,0.1-0.4,0.3-0.9
		c0.2-0.4,0.3-0.7,0.3-0.9c-0.1-0.2-0.1-0.6-0.1-1c0-0.3,0.1-0.6,0.2-0.8c0.1-0.2,0.3-0.6,0.6-1c0.3-0.5,0.6-1.2,1-2.1
		c0.4-0.9,0.9-2.3,1.6-4H546l1-2.2c0.2-0.3,0.4-1.1,0.7-2.3c0.3-1.2,0.7-1.9,1.3-2.3l0.5,0.4c-0.1,0,0.1,0,0.4-0.1
		c0.4,0,0.7-0.1,0.9-0.3c0.7,0.7,1.5,1.3,2.2,1.6c0.7,0.3,1.4,0.6,2.1,0.9s1.3,0.5,1.8,0.8c0.5,0.3,0.9,0.8,1.1,1.5
		c-0.2,0.2-0.3,0.6-0.5,1.3c-0.2,0.7-0.3,1.5-0.4,2.3c-0.1,0.8-0.2,1.5-0.2,2c0,0.5-0.1,0.7-0.1,0.6h0.2c0.2,0,0.5,0,0.9-0.1
		c0.3,0,0.6-0.1,0.9-0.1c1.3-0.5,2.4-0.9,3.3-1.1c0.9-0.2,1.7-0.4,2.3-0.6c0.7-0.2,1.3-0.4,1.8-0.7c0.6-0.3,1.1-0.7,1.7-1.3
		c0.2,0.1,0.5,0.1,0.7,0.1c0.3,0,0.6-0.1,0.7-0.2c0.1-0.2,0.3-0.3,0.5-0.5c0.2-0.2,0.5-0.3,1-0.5c0.4-0.2,1.2-0.2,2.1-0.2
		c0.1,0,0.7,0.1,1.7,0.4c1.1,0.3,2,1.1,2.8,2.5c-0.4,0.2-0.8,0.8-1.1,2c-0.3,1.1-0.6,2.4-0.9,3.9s-0.4,2.9-0.6,4.4
		c-0.2,1.5-0.2,2.7-0.2,3.6c-0.6,1.8-1,2.9-1.2,3.4c-0.2,0.4-0.3,0.8-0.3,1.2c0,0.2,0.2,0.5,0.5,0.7c0.3,0.2,0.7,0.4,1.1,0.6
		c0.4,0.2,0.8,0.4,1.2,0.6c0.4,0.2,0.7,0.4,1,0.7c0.2,0.2,0.5,0.7,0.7,1.3c0.2,0.6,0.4,1,0.6,1.2v2.4c0,1,0,2.2,0,3.6
		c0,1.4-0.2,2.6-0.5,3.5c-0.4,0.2-0.6,0.6-0.6,1.3c0,0.7,0,1.2-0.2,1.4l-0.4,0.6h0.4l-1.2,1.7l-0.1,2.4c-0.1,1.7-0.5,3.3-1.2,4.7
		c-0.7,1.4-1.1,2.9-1.2,4.4h-1l-1.2,1l-0.9,0.1l-2-0.6L566.8,59.9z M551.8,52l0.4,0.2c1.2,0.2,2.5,0.3,3.9,0.6
		c1.3,0.2,2.6,0.3,3.7,0.3c1,0,2.3-0.1,4-0.3c1.7-0.2,3-0.6,3.9-1.2c0-0.2,0-0.5,0.1-1.1c0-0.6,0.1-1.1,0.3-1.5V49
		c0-0.2,0.1-0.6,0.2-1.2c0.2-0.5,0.2-0.9,0.2-1l0.5,0.1l-0.2-1.3c0-1.6,0.1-3.2,0.4-4.8c0.2-1.5,0.4-3.1,0.6-4.8
		c0-0.5-0.4-0.8-1.2-0.9c-0.8-0.1-1.3-0.1-1.7-0.1c-2.2,0-4.6,0.5-7,1.6c-2.5,1.1-4.8,2.2-6.8,3.4l-0.6,0.1
		c-0.2,0.2-0.3,0.6-0.4,1.2c-0.1,0.7-0.2,1-0.5,1h-0.1l-0.7,2.3c0,1.1-0.1,2.2-0.2,3.3c-0.2,1.1-0.2,2.2-0.2,3.3
		c0,0.5,0.2,0.7,0.5,0.7l0.5-0.2L551.8,52z M567.5,22.3c-0.1,0-0.1,0-0.1-0.1c0-0.3,0.3-1.3,0.9-2.8c0.6-1.5,0.9-3,0.9-4.3
		c0-0.4-0.1-0.7-0.4-0.9c-2,0.9-4,1.7-6,2.3c-2,0.6-3.8,1.5-5.1,2.6l-1.7,1.1c-1,1.1-1.6,2.1-2,2.8c-0.3,0.7-0.5,1.3-0.5,1.8
		l0.5-0.5c-0.2,0.8-0.2,1.5-0.2,1.9c0,0.4-0.2,0.9-0.7,1.4l-0.2,0.1h1v0.9c0,0.2,0,0.4-0.1,0.8c-0.1,0.4-0.1,0.7-0.1,0.9
		c0,0.2,0,0.4,0.1,0.6c0,0.2,0.1,0.3,0.1,0.5c0,0.6-0.1,0.9-0.4,1h0.2c0.2,0,0.3-0.1,0.5-0.2c0.2-0.1,0.4-0.2,0.7-0.2
		c0.2,0,0.3,0,0.5,0.1c1.2-0.7,2.6-1.2,4-1.7c1.4-0.5,2.8-1.2,4-2.1l0.4-0.4c0.3-0.1,0.9-0.2,1.7-0.4c0.8-0.2,1.3-0.6,1.5-1.2
		L567.5,22.3z"/>
	<path class="st4" d="M591.5,28.3c0.2-0.9,0.7-1.7,1.2-2.3c0.6-0.6,1.1-1.3,1.5-2.1c0.1-0.1,0.3-0.4,0.7-1c0.4-0.6,0.9-1.2,1.3-1.9
		c0.5-0.7,1-1.3,1.4-1.8c0.4-0.5,0.8-0.8,0.9-0.8c0-0.3,0.1-0.7,0.4-1.1c0.3-0.4,0.6-0.8,1-1.2c0.4-0.4,0.7-0.7,1.1-0.9
		c0.4-0.2,0.6-0.4,0.8-0.4h0.7l0.2,0.5h1.1c0.4,0.1,0.8,0.3,1.2,0.6c0.4,0.3,0.8,0.5,1.2,0.6h1c2.4,0.6,4.9,1.4,7.3,2.4
		c2.4,1,4.4,2.6,6.1,4.8c0.4,1.3,0.8,2.6,1.2,3.7c0.4,1.2,0.9,2.4,1.3,3.7c0,0.7,0,1.5-0.1,2.5c0,1-0.1,3.1-0.3,6.2v0.7
		c0,0.5-0.1,1.2-0.4,2.1c-0.3,0.9-0.6,1.8-1,2.7c-0.4,0.9-0.8,1.7-1.2,2.3c-0.4,0.7-0.7,1-1,1l-0.1,0.1c-0.4,0.7-1.1,1.5-2.1,2.4
		c-1,1-2.3,2-3.7,2.9c-1.5,1-3.1,1.8-4.9,2.5c-1.8,0.7-3.7,1-5.6,1c-1.3,0-2.6-0.1-3.8-0.4c-1.2-0.3-2.4-0.6-3.4-1l-1.1-1.2
		l-2.7-0.5c-0.5-0.3-0.9-0.8-1.3-1.4s-0.7-1.2-1-1.7c-1.1-1.2-1.9-2.5-2.1-3.9c-0.3-1.3-0.4-3-0.4-4.8c0-0.4,0-0.7,0.1-0.9
		c0.1-0.2,0.1-0.5,0.1-0.9v-0.4c0-0.1,0.1-0.3,0.2-0.7c0.1-0.4,0.2-0.8,0.4-1.3c0.1-0.4,0.2-0.9,0.4-1.2c0.1-0.4,0.2-0.6,0.2-0.8
		l0.7-1c0-0.2,0.1-0.5,0.4-0.8c0.2-0.3,0.4-0.5,0.4-0.7l0.2,0.4c0.1-0.2,0.2-0.4,0.2-0.9c0.1-0.4,0.2-0.7,0.2-0.7l0.4-0.9
		c0-0.2,0.1-0.4,0.2-0.9c0.1-0.4,0.2-0.7,0.3-0.9h-0.6c-0.1,0-0.2,0-0.2,0.1L591.5,28.3z M588.2,38.6c-0.2,0.2-0.2,0.4-0.2,0.9
		l-0.1,0.7l0.5-0.5c0-0.2,0.1-0.4,0.2-0.6c0.1-0.2,0.2-0.4,0.2-0.5l0.2-0.6L588.2,38.6z M589.4,35.6c-0.3,0.3-0.5,0.7-0.5,1V37
		l1-1.2L589.4,35.6z M590.4,38.3l0.4-0.2l0.1-1L590.4,38.3z M592.6,32l-1.1,2.4c0,0.3,0,0.6-0.1,0.9c-0.1,0.2-0.1,0.5-0.1,0.9
		l0.4,0.1l1.1-2.7c0-0.2,0-0.4,0.1-0.9c0-0.4,0.1-0.7,0.2-0.7H592.6z M592.6,29c0-0.2-0.1-0.4-0.2-0.4c-0.2,0-0.2,0.1-0.2,0.4
		c0,0.2,0.1,0.2,0.2,0.2L592.6,29z M598,41.9c0,0.3,0,0.8-0.1,1.3c0,0.6-0.1,1.1-0.1,1.7c0,0.8,0.1,1.6,0.2,2.2l0.7,3.9l1.2-0.2
		c0.2,0.3,0.6,0.5,1.1,0.5c1.1,0,2.2-0.2,3.3-0.6c1.1-0.4,2.2-1,3.1-1.8l2.2-2.9l1.2-2.8l0.4-2.9c0.3-0.7,0.5-1.5,0.6-2.2
		c0.1-0.7,0.1-1.5,0.1-2.2v-2.4c0-1.1,0-2.4-0.1-4.1c0-1.7-0.4-3-1.2-3.9c-0.6-0.7-1.3-1.4-2.3-2.3c-0.9-0.9-1.7-1.3-2.4-1.3
		c-0.3,0-0.7,0.2-1.2,0.7c-0.4,0.5-0.8,0.7-0.9,0.7c-0.7,0.6-1.2,1.3-1.3,2.2c-0.1,0.9-0.4,1.8-0.8,2.6l-0.2,1.8
		c-1.1,2.1-2,4.1-2.7,6C598.4,37.8,598,39.8,598,41.9z"/>
	<path class="st4" d="M632.9,85.8l-0.7,0.4l-0.6-0.1l-2.4,0.4l-3.9-1.5h-1.3l-0.9-1.6l0.2-0.5l-0.6-2.2l-0.2-0.2
		c0-0.2,0-0.4-0.1-0.6c-0.1-0.2-0.2-0.4-0.2-0.6l3.2-2.7l-0.2-0.6l1.6-2.2c0.2,0,0.3-0.1,0.5-0.2l-0.1-0.2c0.2-0.2,0.5-0.7,0.7-1.3
		c0.2-0.6,0.5-1.2,0.7-1.8c0.2-0.6,0.5-1.2,0.7-1.7c0.2-0.5,0.4-0.8,0.6-0.9l2.1-3.2c0.1-0.2,0.2-0.4,0.3-0.9
		c0.1-0.4,0.3-0.7,0.4-0.9l2.2-4.4l-0.1-0.5l0.4-0.4c0.2-0.1,0.6-0.3,0.9-0.8c0.4-0.4,0.7-0.9,1-1.4c0.3-0.5,0.6-1,0.9-1.5
		c0.2-0.5,0.4-0.9,0.4-1.1c0-0.7,0.2-1.3,0.5-1.8c0.3-0.5,0.7-1,1.1-1.5c0.4-0.5,0.8-1,1.2-1.5c0.4-0.5,0.6-1.1,0.8-1.8l0.5-1
		c0.1-0.2,0.3-0.5,0.6-0.9c0.7-0.9,1.2-1.6,1.6-2.2c0.4-0.6,0.9-1.3,1.3-2.3h-0.5l4-5.3l0.2-0.5c0.2-0.2,0.3-0.4,0.4-0.6
		c-0.2-0.6-0.4-1.1-0.7-1.5c-0.3-0.4-0.6-0.8-0.9-1.2l-0.2,0.6c-0.2-0.7-0.7-1.7-1.4-2.9c-0.7-1.2-1.5-2.4-2.3-3.8
		c-0.8-1.3-1.7-2.7-2.5-4.2c-0.9-1.4-1.5-2.7-2-3.9l-0.9-0.2l-2-5l-0.9-3.1c0.3,0,0.7-0.1,1.2-0.2c0.5-0.2,0.8-0.2,1-0.2
		c0.5,0,1.1,0,1.8,0c0.7,0,1.4,0.1,2,0.2c0.7,0.1,1.3,0.4,1.9,0.7s1.1,0.9,1.4,1.7l1.8,2.6l1.3,2.7c0,0.1,0,0.1,0.1,0.1
		c0,0,0.1,0,0.1,0.1c0,0.2-0.1,0.3-0.2,0.4c-0.1,0.1-0.2,0.3-0.2,0.4c0-0.1,0.2,0.2,0.7,0.8c0.4,0.6,1,1.3,1.5,2.1
		c0.6,0.8,1.1,1.6,1.7,2.4c0.6,0.8,1,1.4,1.2,1.7c0.2,0.1,0.3,0.3,0.4,0.6c0.1,0.3,0.3,0.4,0.7,0.4v0.1l6.5-12.4
		c0.6-0.8,1-1.5,1.2-2.1c0.2-0.6,0.9-0.9,2.1-0.9l0.1,0.9h0.5l0.7-0.6c0.3,0,0.8,0.1,1.4,0.4c0.6,0.2,1.2,0.6,1.8,0.9
		c0.6,0.4,1.1,0.8,1.6,1.2c0.4,0.4,0.7,0.8,0.7,1.2c0,0.8-0.2,1.7-0.7,2.6c-0.4,0.9-1,1.8-1.5,2.7c-0.6,0.9-1.1,1.6-1.7,2.3
		c-0.5,0.7-0.9,1.2-1,1.7c-0.1,0.2-0.3,0.6-0.6,0.9c-0.3,0.4-0.5,0.8-0.6,1.2c-0.5,1.1-0.9,2.1-1.2,2.8c-0.3,0.7-0.6,1.4-0.9,2
		c-0.2,0.6-0.5,1.2-0.7,1.9c-0.2,0.7-0.5,1.4-0.7,2.2l-0.4,0.7c0.6,1.2,1.2,2.4,2,3.6c0.7,1.1,1.5,2.2,2.2,3.1
		c0.7,0.9,1.4,1.7,1.9,2.3c0.5,0.6,0.8,1,0.9,1c0.5,0.5,0.8,1.1,1,1.8c0.2,0.7,0.6,1.3,1,1.8h0.6c0.2,0,0.5,0.2,0.7,0.6
		c0.2,0.4,0.4,0.9,0.6,1.4c0.2,0.5,0.4,1,0.6,1.5c0.2,0.5,0.3,0.9,0.5,1.1l1.2,1.1l0.2,1.8l-1,0.4l-0.1,0.2c0,0.2,0.1,0.2,0.4,0.2
		c0.2,0,0.4,0,0.4,0.1c0,0.2-0.1,0.3-0.4,0.4c-0.2,0.1-0.4,0.2-0.4,0.4v0.1c0,0.1,0,0.2,0.1,0.2l-1.3,0.9l-3.2,0.9l-2.2,0.1
		c-0.2-0.5-0.7-1.1-1.5-1.8c-0.8-0.7-1.2-1.3-1.2-1.8l0.1-0.5c0-0.2-0.1-0.3-0.2-0.4c-0.1-0.1-0.2-0.2-0.2-0.4h-0.6l-0.1-1.1
		c-2-2.4-3.9-5.3-5.9-8.7l-0.9-0.9l-0.5,1.1c-0.3,0.2-0.7,0.6-1.1,1.1c-0.4,0.5-0.8,1-1.2,1.6c-0.4,0.6-0.8,1.1-1,1.5
		c-0.3,0.4-0.4,0.8-0.4,0.9c-0.9,1.1-1.6,2.2-2,3.3c-0.4,1.1-1,2.3-1.7,3.4c-0.8,0.5-1.4,0.9-1.7,1.3l-0.4-0.6l-0.7,0.2l-0.1,1.2
		l-0.6,1.8l0.5,0.5l1-1v-0.6l0.6-0.2l-0.7,3.3l-3.9,7.3l-0.1,0.7l1.2-0.5l-1.7,2c-0.3,0.2-0.7,0.4-1.1,0.7c-0.4,0.3-0.6,0.6-0.6,0.7
		l-1.3,0.7l1.3-2.4l0.6-2.3l-0.6,0.4l-0.1,0.5c-0.7,1.1-1.2,2-1.7,2.4c-0.4,0.5-0.8,1.3-1.2,2.4l-0.4,1c0.7-0.1,1.1-0.3,1.5-0.8
		c0.3-0.4,0.7-0.7,1.1-0.7h0.4l-0.1,0.5l-1,1l-1.2,2.7c-0.1,0.2-0.2,0.6-0.4,1.1c-0.2,0.5-0.3,1-0.4,1.5c-0.1,0.5-0.3,1-0.4,1.4
		c-0.2,0.4-0.3,0.6-0.4,0.6c-0.1,0-0.1-0.3-0.1-0.9l-1.1-0.2L632.9,85.8z M635.8,81.2c-0.5,0-0.7,0.2-0.7,0.7c0,0.1,0,0.2,0.1,0.4
		c0.1,0.2,0.2,0.2,0.4,0.2c0.2,0,0.4-0.3,0.4-0.9C636,81.3,635.9,81.2,635.8,81.2z M636.2,79.7c-0.2,0-0.3,0-0.4,0.1
		c-0.1,0.1-0.2,0.1-0.2,0.1l-0.2,0.7l0.7-0.5L636.2,79.7z M636.7,77.9l0.5,0.1l0.2-0.5L636.7,77.9z M642,67.8l-0.2,1.1l0.7-0.5
		l0.2-1L642,67.8z M644.5,63.7l0.1,0.6l0.2-0.5l-0.4-0.6V63.7z M648.5,58c0.2,0,0.2,0.1,0.2,0.4c0,0.5-0.2,0.7-0.6,0.7
		c-0.2,0-0.4-0.1-0.4-0.4C647.7,58.3,648,58,648.5,58z"/>
	<path class="st4" d="M689.6,11.5c-1.2-0.5-1.9-1.2-2.1-2.2c-0.2-1-0.3-1.8-0.4-2.6l0.7-1.1c0.5-1.1,1.1-1.6,1.7-1.6
		c0.3,0,0.6,0,0.7,0.1l2.7,1.2c0.6,0.2,1,0.4,1.4,0.5c0.4,0.1,0.7,0.1,0.9,0.2c0.2,0,0.5,0.2,0.8,0.4c0.3,0.2,0.7,0.6,1.2,1.2
		l0.1-0.4l5.8,2.8l2.4,0.9c0.5,0.2,1.4,0.5,2.7,1.1c1.3,0.6,2.7,1.2,4,1.8c1.4,0.6,2.7,1.2,4,1.7c1.3,0.5,2.2,0.9,2.7,1
		c1,0.4,2.1,0.8,3.4,1.3c1.3,0.4,2.4,1,3.6,1.8c1.1,0.7,2.1,1.6,2.9,2.7c0.8,1.1,1.2,2.4,1.2,3.9c0,0.2,0,0.4-0.1,0.6
		c0,0.2-0.1,0.4-0.1,0.6l-0.1,1h-0.2c-0.7,0-1.5,0.3-2.1,0.9c-0.7,0.6-1.4,1.3-2.1,2.2c-0.7,0.9-1.4,1.8-2,2.7
		c-0.7,0.9-1.3,1.7-2,2.4l-2.3,1.8l-0.6-0.2l-4.9,4.7l-0.4,1.1H713c0.1,0-0.3,0.1-1,0.2c-0.8,0.1-1.4,0.4-1.9,0.8l-0.2,0.7
		c-0.2,0.4-0.3,0.6-0.5,0.7c-0.2,0-0.3,0.2-0.5,0.4v0.6c-0.6,0.2-0.9,0.5-1.1,1c-0.2,0.5-0.6,0.8-1.3,0.8c-0.5,0-0.9,0.3-1.3,0.9
		v0.5c-0.2,0.2-0.4,0.4-0.6,0.6c-0.2,0.2-0.6,0.4-1,0.7c-0.4,0.3-1,0.8-1.8,1.3c-0.7,0.5-1.6,1.3-2.7,2.3l-1.2,1.2l0.4,0.7l-0.7,1.7
		L693,58l-0.4-1.7l-1.6-0.4c-0.2-0.6-0.4-1-0.7-1.4c-0.3-0.4-0.6-0.7-0.9-1.1c-0.3-0.4-0.6-0.8-0.8-1.2c-0.2-0.4-0.4-0.9-0.4-1.5
		c0-0.2,0.1-0.3,0.2-0.5c0.2-0.2,0.4-0.6,0.7-1.2c0.3-0.7,0.7-1,1.1-1c0.2,0,0.3,0,0.4,0.1l1.5-0.6l1,0.7l0.9-1.3l-1.1-1.3
		c0.2-0.4,0.6-0.7,1.1-0.7c0.5-0.1,0.9-0.4,1.2-0.9l8.9-7.6l3.6-3.4l-0.2-0.2c0.1,0,0.3-0.1,0.7-0.4c0.4-0.2,0.8-0.5,1.2-0.9
		c0.4-0.3,0.8-0.6,1.2-0.9c0.3-0.3,0.5-0.5,0.6-0.7l1.8-2.1c0.3-0.4,0.8-1,1.3-1.7c0.5-0.7,0.8-1.1,0.9-1.3l1.2-1.6
		c-0.5-0.1-1.1-0.3-1.8-0.8c-0.7-0.4-1.3-0.8-1.7-1l-2-0.6c-1.6-0.5-3-1-4.3-1.7c-1.3-0.6-2.7-1.1-4.2-1.5c-1.6-0.5-3-1.2-4.4-2.2
		c-1.4-1-2.6-1.5-3.6-1.5c0,0.1,0,0.1-0.1,0.1c-0.2,0-0.5-0.1-0.9-0.4c-0.4-0.3-0.9-0.6-1.5-0.9c-0.5-0.3-1-0.6-1.5-0.9
		C690.1,11.6,689.8,11.5,689.6,11.5z"/>
</g>
</svg>
