<?xml version="1.0" encoding="utf-8"?>
<!-- Generator: Adobe Illustrator 24.2.3, SVG Export Plug-In . SVG Version: 6.00 Build 0)  -->
<svg version="1.1" id="Layer_1" xmlns="http://www.w3.org/2000/svg" xmlns:xlink="http://www.w3.org/1999/xlink" x="0px" y="0px"
	 viewBox="0 0 576 95" style="enable-background:new 0 0 576 95;" xml:space="preserve">
<style type="text/css">
	.st0{fill:#EF8607;}
	.st1{fill:#FFFFFF;}
	.st2{fill:#841E47;}
	.st3{fill:#333333;}
	.st4{fill:#212121;}
</style>
<g>
	<path class="st1" d="M1.9,53.2c-0.1,0-0.3,0-0.5-0.1c-0.2-0.1-0.3-0.1-0.3-0.2c0.2,0,0.3-0.2,0.3-0.5v-1.1l-1-0.6v-0.5l0.3-0.4
		c-0.1-0.3-0.2-0.6-0.4-1c-0.1-0.4-0.1-0.6-0.1-0.8c0-0.9,0.1-1.6,0.5-2c0.3-0.4,0.8-0.8,1.5-1.4c0.2-0.2,0.5-0.5,1-1
		c0.5-0.5,1-1,1.5-1.5c0.5-0.5,1-1,1.4-1.5c0.5-0.4,0.8-0.7,1-0.9l0.3,0.5c0.5-0.1,1.2-0.4,1.9-0.9c0.7-0.5,1.3-1,1.6-1.5l2.5-2.3
		l3.7-2.5c0.3-0.4,0.9-0.9,1.6-1.4c0.7-0.5,1.5-1,2.3-1.5s1.6-1,2.3-1.5c0.8-0.5,1.4-0.9,2-1.3l0.3-0.3c0.1-0.2,0.2-0.4,0.5-0.7
		c0.3-0.3,0.6-0.5,1-0.9c0.4-0.3,0.7-0.6,1-0.9c0.3-0.3,0.6-0.5,0.8-0.8c0.5,0.2,1.1,0.3,1.6,0.3c0.6,0,1.1,0,1.5,0.1
		c0.4,0.1,0.8,0.2,1.1,0.6c0.3,0.3,0.4,0.8,0.4,1.6s-0.7,1.9-2.1,3.2c-1.4,1.3-3.1,2.7-5,4c-1.9,1.3-3.7,2.6-5.5,3.7
		c-1.8,1.1-3.1,1.9-3.8,2.3l-6.6,6.1l0.6,0.2c0.1,0.1,0.2,0.1,0.3,0.1v0.4l-1.8,0.9c0,0.2,0.2,0.5,0.7,0.8c0.5,0.4,1,0.8,1.6,1.2
		c0.6,0.4,1.3,0.8,1.9,1.2c0.6,0.4,1.1,0.7,1.5,0.9c0.5,0.3,1.5,0.8,3,1.5c1.5,0.6,3,1.3,4.7,2c1.7,0.7,3.3,1.4,4.8,2
		c1.5,0.6,2.6,1.1,3.2,1.4c1.5,0.7,2.7,1.8,3.6,3.2l-0.1,6.1h-1.9c-0.1,0-0.5-0.1-1.1-0.3c-0.6-0.2-1-0.3-1.1-0.3
		c-2.8-0.7-5.5-1.6-8-2.9c-2.5-1.3-5.1-2.5-7.7-3.8c-0.9-0.4-1.7-0.7-2.6-1c-0.8-0.3-1.6-0.6-2.3-0.9c-1.1-0.5-2.2-1.2-3.2-2
		c-1-0.8-2.1-1.5-3.2-2l-1.6-0.3V53.2z"/>
	<path class="st1" d="M46.3,44.2c0.2-0.7,0.5-1.4,1-1.9c0.5-0.5,0.9-1.1,1.2-1.8c0.1-0.1,0.3-0.3,0.6-0.8c0.3-0.5,0.7-1,1.1-1.5
		c0.4-0.6,0.8-1.1,1.1-1.5c0.4-0.4,0.6-0.7,0.8-0.7c0-0.3,0.1-0.6,0.4-0.9c0.2-0.3,0.5-0.7,0.8-1s0.6-0.5,0.9-0.8
		c0.3-0.2,0.5-0.3,0.6-0.3h0.6l0.2,0.4h0.9c0.3,0.1,0.7,0.2,1,0.5c0.3,0.2,0.6,0.4,1,0.5h0.8c2,0.5,4,1.1,6,2c2,0.8,3.6,2.1,4.9,3.9
		c0.3,1.1,0.7,2.1,1,3.1c0.3,1,0.7,2,1.1,3c0,0.5,0,1.2,0,2c0,0.8-0.1,2.5-0.2,5v0.6c0,0.4-0.1,1-0.4,1.7c-0.2,0.7-0.5,1.5-0.8,2.2
		c-0.3,0.7-0.6,1.4-1,1.9c-0.3,0.5-0.6,0.8-0.8,0.8l-0.1,0.1c-0.3,0.5-0.9,1.2-1.8,2c-0.8,0.8-1.9,1.6-3.1,2.4c-1.2,0.8-2.5,1.5-4,2
		c-1.5,0.6-3,0.9-4.6,0.9c-1.1,0-2.1-0.1-3.1-0.4c-1-0.2-1.9-0.5-2.8-0.8l-0.9-1l-2.2-0.4c-0.4-0.3-0.8-0.6-1-1.1s-0.6-1-0.9-1.4
		c-0.9-1-1.5-2-1.8-3.1c-0.2-1.1-0.3-2.4-0.3-4c0-0.3,0-0.6,0.1-0.8c0.1-0.2,0.1-0.4,0.1-0.8v-0.3c0-0.1,0-0.3,0.1-0.6
		c0.1-0.3,0.2-0.7,0.3-1c0.1-0.4,0.2-0.7,0.3-1c0.1-0.3,0.1-0.5,0.1-0.7l0.6-0.8c0-0.2,0.1-0.4,0.3-0.6c0.2-0.2,0.3-0.4,0.3-0.6
		l0.2,0.3c0.1-0.1,0.1-0.4,0.2-0.7c0.1-0.3,0.1-0.5,0.2-0.6l0.3-0.7c0-0.1,0-0.4,0.1-0.7c0.1-0.3,0.2-0.6,0.2-0.7h-0.5
		c-0.1,0-0.1,0-0.2,0.1L46.3,44.2z M43.6,52.6c-0.1,0.1-0.2,0.4-0.2,0.7l-0.1,0.6l0.4-0.4c0-0.1,0-0.3,0.1-0.5
		c0.1-0.2,0.2-0.3,0.2-0.4l0.2-0.5L43.6,52.6z M44.6,50.2c-0.3,0.3-0.4,0.5-0.4,0.8v0.3l0.8-1L44.6,50.2z M45.4,52.4l0.3-0.2
		l0.1-0.8L45.4,52.4z M47.2,47.2l-0.9,2c0,0.3,0,0.5-0.1,0.7c-0.1,0.2-0.1,0.4-0.1,0.7l0.3,0.1l0.9-2.2c0-0.1,0-0.4,0-0.7
		c0-0.3,0.1-0.5,0.2-0.6H47.2z M47.2,44.8c0-0.2-0.1-0.3-0.2-0.3c-0.1,0-0.2,0.1-0.2,0.3c0,0.1,0.1,0.2,0.2,0.2L47.2,44.8z
		 M51.6,55.3c0,0.3,0,0.6,0,1.1c0,0.5,0,0.9,0,1.4c0,0.7,0.1,1.3,0.2,1.8l0.6,3.2l1-0.2c0.2,0.3,0.5,0.4,0.9,0.4
		c0.9,0,1.8-0.2,2.7-0.5c0.9-0.3,1.8-0.8,2.5-1.5l1.8-2.4l1-2.3l0.3-2.4c0.3-0.6,0.4-1.2,0.5-1.8c0.1-0.6,0.1-1.2,0.1-1.8v-2
		c0-0.9,0-2,0-3.3c0-1.4-0.3-2.4-1-3.2c-0.5-0.5-1.1-1.2-1.8-1.9c-0.8-0.7-1.4-1.1-2-1.1c-0.3,0-0.6,0.2-1,0.6
		c-0.4,0.4-0.6,0.6-0.8,0.6c-0.6,0.5-0.9,1.1-1,1.8c-0.1,0.7-0.3,1.4-0.6,2.1l-0.2,1.5c-0.9,1.7-1.6,3.4-2.2,4.9
		C51.9,52,51.6,53.6,51.6,55.3z"/>
	<path class="st1" d="M80.7,52.3c0-0.1,0-0.3,0.1-0.7c0.1-0.4,0.2-0.8,0.2-1.3c0.1-0.5,0.2-0.9,0.2-1.3s0.1-0.7,0.1-0.9l0.3-1.2
		c0-0.2,0.1-0.5,0.4-0.8c0.3-0.3,0.4-0.6,0.4-0.7l0.5,0.3c0-0.1,0-0.1,0-0.2c0-0.1,0-0.2,0-0.3c0-0.3,0-0.5,0-0.7c0-0.2,0-0.4,0-0.5
		l0.3-0.8c0-0.1,0-0.2,0-0.2c0-0.1,0-0.2,0-0.4c0-0.3,0-0.5,0-0.8c0-0.2,0-0.4,0-0.5c-0.3,0-0.5,0-0.6,0.1l-0.2,0.1
		c0-0.3,0-0.8,0.2-1.5c0.1-0.8,0.2-1.6,0.5-2.6c0.2-1,0.4-2,0.8-3.1c0.3-1.1,0.6-2.3,1-3.4c0.2-0.2,0.4-0.5,0.5-1
		c0.1-0.5,0.3-1,0.6-1.5c0.3-0.5,0.6-0.9,1.1-1.3c0.5-0.4,1.1-0.6,2-0.6c0.1,0,0.5,0.1,1.2,0.3c0.7,0.2,1.5,0.3,2.5,0.3
		c0.7,0,1.3,0.1,1.8,0.2c0.4,0.2,0.7,0.6,0.7,1.3c0,0.4,0,0.7-0.1,0.9l-0.6,4.8c1-0.7,1.8-1.2,2.4-1.6c0.6-0.4,1.5-0.8,2.6-1.2
		l2.5-1.1c0.1,0.1,0.2,0.2,0.3,0.3c0.1,0.1,0.3,0.2,0.6,0.3l0.8,0.3c1.7,0.7,3.3,1.8,4.7,3c1.4,1.3,2.4,2.9,3.2,4.9
		c0.2,0.3,0.3,0.7,0.2,1c0,0.3,0,0.7,0.1,1.1l0.1,0.2c0.3,0.3,0.4,0.7,0.4,1.2c0,0.5,0.2,1.1,0.7,1.8l0.2,0.3c0.4,0,0.6,0.2,0.6,0.5
		c0,0.3,0,0.5-0.1,0.6l0.5-0.2c0,0.2,0,0.3,0,0.3c0,0,0,0.2,0,0.5c0,0.1,0,0.3-0.1,0.4c-0.1,0.1-0.1,0.2-0.1,0.3v0.3l0.3-0.1
		c0.3,0.2,0.4,0.7,0.5,1.4c0.1,0.7,0.2,1.2,0.3,1.5c-0.1,0-0.2,0.1-0.2,0.3v0.3h0.3c-0.1,0.5-0.4,1-0.9,1.5c-0.4,0.5-0.7,1-0.8,1.5
		v0.1c0,0.1,0,0.2-0.1,0.2c-0.1,0-0.2,0-0.4,0c-0.5,0.4-1,0.9-1.5,1.4c-0.5,0.5-0.9,1-1.3,1.5s-0.8,1-1,1.4s-0.5,0.7-0.5,0.8
		c-0.5,0.5-1.1,1.1-1.8,1.9c-0.6,0.8-1.2,1.7-1.8,2.5c-0.5,0.8-1.1,1.8-1.8,2.9l-0.3-0.1c-0.1,0.1-0.3,0.4-0.6,0.7
		c-0.3,0.3-0.5,0.6-0.8,1c-0.3,0.3-0.6,0.6-1,0.9c-0.3,0.3-0.6,0.4-0.8,0.5c-0.1,0.1-0.4,0.1-0.7,0.1s-0.5,0.1-0.5,0.3
		c0,0.1,0,0.2,0.1,0.3h-0.9L98,69.7c-0.1,0.1-0.2,0.2-0.2,0.1c0-0.1,0,0,0,0.1c-0.3,0-0.7-0.1-1-0.2c-0.4-0.2-0.7-0.2-1-0.2
		c-1.5-0.1-2.8-0.1-4-0.2c-1.2-0.1-2.4-0.1-3.8-0.1h-1.2c0,0.3-0.3,0.4-0.9,0.4l-0.3-0.1c-0.1,0-0.2,0.1-0.2,0.3v0.2h-1.1L83.9,70
		c-0.1-0.5-0.3-0.9-0.5-1c-0.1,0.2-0.3,0.3-0.5,0.3H82l-0.3-0.4c-0.1,0-0.1,0-0.1,0.1c0,0,0,0-0.1,0h-0.2c-0.7-0.3-1.2-0.7-1.5-1.2
		c-0.3-0.6-0.4-0.8-0.4-0.7l-0.1-0.6v-0.1c0-0.1,0-0.3,0.1-0.5c0.1-0.2,0.1-0.4,0.1-0.6c0-0.3,0-0.4-0.1-0.5c-0.1,0-0.1-0.1-0.1-0.2
		c0-0.1,0-0.1,0.1-0.2c0-0.1,0.1-0.3,0.1-0.8c0.1-0.4,0.1-1,0.2-1.8c0.1-0.8,0.1-1.9,0.2-3.3l0.1-1l0.2-1c0-0.3-0.1-0.4-0.2-0.4
		c0.4-0.5,0.6-1.1,0.6-1.8C80.6,53.7,80.6,53,80.7,52.3z M81.8,50.1c-0.1,0.1-0.1,0.1-0.1,0.2v1.4l0.5-0.4v-1.9L81.8,50.1z
		 M82.5,46.9c-0.1,0.1-0.2,0.4-0.2,0.7c0,0.3,0,0.5,0,0.5v0.5l0.4-0.5l0.4-1.2H82.5z M84.4,39.9c0-0.1-0.1-0.2-0.2-0.2
		c-0.1,0-0.2,0.1-0.2,0.2c0,0.3,0.1,0.5,0.3,0.5c0.1,0,0.1-0.1,0.1-0.3V39.9z M85.2,42.9l-0.4,0.7c0,0.3-0.1,0.6-0.2,1
		c-0.2,0.4-0.2,0.8-0.2,1v1.6h0.5l0.4-0.8c0-0.3,0.1-0.6,0.2-0.9c0.1-0.4,0.2-0.7,0.2-1v-1.6H85.2z M89.7,63.4
		c0.1,0,0.1,0.1,0.1,0.2c0,0.1,0,0.2,0,0.3c0.5,0,1,0.1,1.5,0.2c0.5,0.1,1,0.2,1.5,0.2c0.4,0,0.9-0.1,1.4-0.3h3.4
		c0.1,0,0.3-0.2,0.8-0.8c0.4-0.5,0.9-1.1,1.4-1.8c0.5-0.7,1.1-1.4,1.7-2.2c0.6-0.8,1.1-1.4,1.5-1.9l2-2.4c0.4-0.5,0.6-0.8,0.7-1
		c0.1-0.2,0.4-0.8,0.9-1.8l0.6-0.9l-0.9-1.3c-0.1-0.2-0.4-0.9-0.8-2c-0.4-1.1-0.8-2.4-1.3-3.8c-0.5-1.4-1-2.7-1.6-3.8
		c-0.6-1.2-1.2-2-1.8-2.4h-0.2c-0.1,0-0.3-0.2-0.4-0.7c-0.1-0.4-0.3-0.6-0.4-0.6c-0.1,0-0.2,0-0.3,0.1c-0.1,0.1-0.2,0.2-0.3,0.3
		c-1.6,1.2-2.9,2-3.8,2.3c-1,0.3-1.6,0.8-2,1.3c-0.6,1-1,2.1-1.2,3.2c-0.2,1.1-0.5,2.3-0.9,3.5c0,0.1,0,0.2-0.1,0.3
		c-0.1,0.1-0.1,0.1-0.1,0.2l0.2,0.3l-0.6,0.7c0,0.1,0.1,0.3,0.2,0.4v0.1c0,0.3,0,0.4-0.1,0.5c-0.1,0.1-0.2,0.2-0.2,0.3
		c0,0.3,0.1,0.7,0.4,1c0.3,0.3,0.4,0.7,0.4,1l0.1,0.1l-0.4,0.2c0.1,0.1,0.2,0.3,0.2,0.5v0.2l-0.3,0.2l0.2,0.7c0,0.1,0,0.2-0.1,0.3
		c-0.1,0.1-0.2,0.3-0.2,0.4l-0.2-0.2c-0.1,0.1-0.2,0.3-0.2,0.4c0.1,0.2,0.2,0.3,0.3,0.3l-0.2,1l-0.2,0.2v0.4l0.3,0.5
		c-0.3,0.1-0.4,0.3-0.4,0.6l0.2,0.6c0,0.3-0.2,0.7-0.5,1c-0.3,0.4-0.5,0.7-0.5,1h0.2c-0.1,0.1-0.2,0.3-0.2,0.5c0,0.2,0,0.4,0,0.6
		c0,0.7,0,1.1,0.1,1.3V63.4z"/>
	<path class="st1" d="M142.1,60.5l-0.5,0.8l-0.7,3.1l0.3,0.7l0.6,0.2c0.2,0.1,0.6,0.1,1.1,0.1c0.6,0,1,0.1,1.5,0.2h1.5
		c0.1,0,0.6,0,1.5,0c0.8,0,1.7,0.2,2.6,0.5l0.4,0.1c0.1,0,0.3,0,0.6,0.1c0.3,0.1,0.7,0.2,1,0.3c0.3,0.1,0.7,0.2,1,0.3
		c0.3,0.1,0.5,0.1,0.5,0.1l0.2,0.7l-0.3,2.7l-0.9,0.3c-0.3-0.1-1.3-0.2-2.9-0.4c-1.6-0.2-3.2-0.3-4.7-0.3h-3.3h-1.9
		c-0.3,0-0.5,0-0.8,0c-0.2,0-0.5,0-0.8,0.1c-0.4,0-1,0.1-2,0.2c-0.9,0.1-1.8,0.3-2.7,0.5c-0.9,0.2-1.7,0.3-2.3,0.4
		c-0.6,0.1-0.8,0.1-0.5,0l-0.8,0.2c-0.1,0-0.4,0-0.7,0.1c-0.3,0.1-0.7,0.2-1,0.2c-0.3,0.1-0.7,0.2-1,0.2c-0.3,0.1-0.5,0.1-0.5,0.1
		l-0.2-0.1c-0.4,0-0.7,0-0.9-0.1l-0.6-0.2l-0.2-1.3l-0.9-0.8l-0.1-0.4l-0.8-0.7v-1l0.7-0.2l0.2-1.1l0.5-0.3c0.2-0.1,0.4-0.2,0.5-0.3
		c0.1-0.1,0.3-0.2,0.6-0.2h1.4l0.9-0.2c0.2-0.3,0.4-0.5,0.7-0.7l1.6-1.3l1.2-2.5c0-0.2,0.1-0.5,0.2-0.8c0.2-0.3,0.3-0.6,0.5-0.8
		v-0.9c0.2-0.3,0.4-0.7,0.6-1.2c0.2-0.4,0.3-0.8,0.3-1.1l0.5-6.5l0.3-0.3v-1.7c0-0.1,0-0.3,0-0.4c0-0.1,0-0.2,0-0.3l0.1-0.5
		l-0.1-0.3l2.2-11.1c0-0.3,0-0.6,0-0.9c0-0.4-0.1-0.7-0.4-1v0.3h-0.9c-1.5,0-2.7-0.1-3.5-0.3s-1.4-0.5-1.9-0.8l-1.4-1.2l-0.4-0.5
		c0-0.3,0.2-0.5,0.6-0.6l0.6-0.2c2.5,0,4.5,0,6,0c1.5,0,2.7,0,3.6,0c0.9,0,1.8-0.1,2.5-0.2c0.8-0.1,1.8-0.3,3-0.5l2.7-1.3l1.7,0.4
		l2,0.1c0.2,0,0.5,0.1,0.8,0.2c0.4,0.2,0.7,0.3,1.1,0.5c0.4,0.2,0.7,0.4,1,0.6c0.3,0.2,0.4,0.4,0.4,0.5c0,0.5-0.2,1-0.7,1.5
		c-0.5,0.5-1.3,0.9-2.4,1.1c-1.1,0.2-2,0.7-2.8,1.4c-0.8,0.7-1.6,1.5-2.2,2.5s-1,1.8-1.3,2.8c-0.3,1-0.5,1.9-0.5,2.7
		c0,0.1,0,0.2,0,0.3c0,0.1-0.1,0.3-0.2,0.5h0.2c0,0.4,0,0.6,0,0.7c0,0.1-0.2,0.2-0.5,0.5c0,0.1,0.1,0.2,0.2,0.3
		c0.1,0.1,0.2,0.1,0.2,0.2l0.2,0.6c0,0.1,0,0.2-0.1,0.2c-0.1,0-0.1,0.1-0.1,0.2v0.3l0.2,0.1c0,0.3-0.1,0.5-0.3,0.6
		c-0.2,0.2-0.3,0.3-0.3,0.5c0.3,0,0.5,0.1,0.5,0.2c0,0.3-0.1,0.7-0.2,1.2c-0.2,0.5-0.3,0.9-0.4,1.2l-0.7,3.1l-0.2,0.3v1.2
		c0,0.3-0.1,0.7-0.2,1.2c-0.1,0.4-0.4,0.8-0.7,0.9h0.7c0,0.1,0,0.2-0.1,0.4c-0.1,0.1-0.1,0.2-0.1,0.3v0.2c0,0.1,0.1,0.2,0.4,0.2
		c0.3,0,0.6-0.1,0.7-0.2v0.3c0,0.3-0.1,0.8-0.4,1.4l-0.3,1.2L142.1,60.5z M133.6,50.7c0,0.1,0,0.3,0,0.4c0,0.1,0,0.2,0,0.3h0.1
		c0.1,0,0.2-0.2,0.2-0.5c0-0.1,0-0.3,0-0.4c0-0.1-0.1-0.2-0.2-0.2l-0.1,0.1L133.6,50.7z M134.3,51.6c-0.3,0.1-0.5,0.2-0.6,0.2
		c-0.1,0-0.1,0.1-0.1,0.5v2.1l0.7-0.6V51.6z M137.2,54.3c0,0.2,0,0.3,0,0.5c0,0.1,0,0.2,0,0.3c0,0.1,0.1,0.3,0.2,0.7
		c0.1-0.5,0.1-1.1,0.1-1.6c0-0.5,0-1.1,0-1.6v-1.5c-0.1,0.3-0.4,0.5-0.7,0.5l-0.3,0.9L137,52c0.1,0,0.2,0.1,0.2,0.4
		c0,0.2-0.1,0.4-0.3,0.5c-0.2,0.1-0.4,0.2-0.5,0.2c0,0.4,0,0.7,0.1,1c0.1,0.2,0.1,0.5,0.1,0.8c0,0.3,0,0.6-0.1,0.8l0.2-0.3
		c0-0.1,0-0.3,0.2-0.5c0.1-0.2,0.1-0.4,0.1-0.5H137.2z M137.4,49c-0.1,0.1-0.2,0.4-0.3,0.8c-0.1,0.4-0.1,0.8-0.1,1
		c0.2,0,0.3-0.2,0.4-0.5c0-0.4,0-0.6,0-0.8V49z"/>
	<path class="st1" d="M198.3,50c-0.3,1.3-0.6,2.6-0.9,3.9c-0.3,1.3-0.5,2.5-0.5,3.8l-0.2,0.5v4.2c0,0.5,0.1,1,0.3,1.4
		c0.2,0.4,0.4,0.9,0.4,1.4c0,0.5,0,0.7-0.2,0.6c-0.1-0.1-0.2,0-0.3,0.3l-0.4,0.8c-0.1,0.1-0.5,0.2-1,0.2l-0.3-0.2l-0.2,0.4
		c-0.1,0.4-0.3,0.6-0.8,0.5c-0.5,0-0.9,0.1-1.2,0.5c-0.6-0.3-1.1-0.4-1.6-0.5c-0.5,0-1-0.1-1.6-0.2l-0.9-0.5c-0.5,0-1-0.2-1.5-0.5
		c-0.5-0.3-1-0.7-1.5-1.2c-0.5-0.5-0.9-1-1.2-1.5c-0.4-0.6-0.6-1.1-0.8-1.6l-7.3-9.9c-0.9-1.1-1.6-2.3-2.1-3.7
		c-0.5-1.3-1.2-2.5-2.1-3.8l-0.1-0.2l-0.2,0.4c0,0.6-0.1,1.2-0.2,1.9c-0.1,0.7-0.2,1.3-0.2,1.8l0.1,0.7v0.3c-0.4,2.9-0.7,5.2-1,7
		c-0.2,1.8-0.4,3.3-0.5,4.6s-0.2,2.5-0.3,3.7c-0.1,1.1-0.3,2.5-0.5,4.1c0,0.1-0.1,0.3-0.2,0.6c-0.1,0.3-0.3,0.7-0.5,1.1
		s-0.4,0.8-0.6,1c-0.2,0.3-0.3,0.5-0.4,0.5l-0.7-0.7c0,0.4-0.2,0.7-0.5,0.9l-1-1v-0.2c-0.4,0-0.7,0.1-0.8,0.2
		c-0.1,0.2-0.3,0.2-0.4,0.2c-0.7,0-1.2-0.2-1.5-0.6c-0.2-0.4-0.5-0.9-0.8-1.4l-0.3-0.5c0-0.1,0.1-0.3,0.2-0.4c0-0.3-0.1-0.7-0.2-1.1
		c-0.1-0.4-0.2-0.7-0.3-1v-2.4c0-1.3,0-2.7,0-4c0-1.4,0-2.7,0.1-4c0-0.1,0-0.5,0.1-1c0.1-0.5,0.1-1,0.1-1.5c0-0.5,0.1-1,0.2-1.5
		c0.1-0.5,0.1-0.8,0.1-1v-0.5c0-0.1,0-0.2,0-0.3c0-0.1,0-0.2,0-0.4l0.1-2.5l-0.1-0.3c0-0.7,0.2-1.5,0.7-2.4c0.5-0.9,0.7-1.8,0.7-2.9
		c0-0.4,0-0.7-0.1-1c0.2,0,0.3-0.3,0.3-1v-1v-0.5c-0.1,0-0.2-0.1-0.2-0.2c0-1.2,0.1-2.3,0.4-3.3c0.3-1,0.4-2.2,0.4-3.4v-0.3
		l-0.4,0.2c0.1-0.1,0.2-0.4,0.2-0.7c0-0.1,0-0.3-0.2-0.5c-0.1-0.2-0.1-0.4-0.1-0.8c0-0.2,0.1-0.3,0.3-0.3h1.7c0.5,0,1.1,0,1.7,0.1
		c0.6,0.1,1.2,0.1,1.8,0.1c0.1,0,0.2,0,0.3-0.1c0.1-0.1,0.2-0.1,0.5-0.1h0.4c0.1,0,0.2,0.1,0.4,0.4c0.2,0.3,0.4,0.4,0.6,0.4l0.5,0.2
		c0.5,0.2,1.1,0.9,1.9,2.2c0.8,1.3,1.7,2.6,2.5,4.1c0.8,1.5,1.6,2.9,2.2,4.2c0.6,1.3,1,2,1,2.1c0.7,1.3,1.5,2.7,2.4,4.1
		c0.8,1.4,1.5,2.8,2,4.3c0.5,0.6,1.1,1.3,1.8,2.2c0.6,0.8,1.2,1.6,1.7,2.3l0.1,0.5h0.2c0.1,0,0.2,0,0.2-0.2c0-0.1,0-0.2,0.1-0.3
		v-1.3c0-0.7,0.1-1.3,0.3-1.9c0.2-0.6,0.3-1.1,0.3-1.5c0-0.1-0.1-0.3-0.2-0.6l-0.4,0.1v-0.1c0-0.3,0.1-0.5,0.3-0.7
		c0.2-0.2,0.4-0.7,0.4-1.5v-0.2c0-0.1,0-0.2,0-0.2c0,0-0.1-0.1-0.1-0.2l0.8-6c0.1-0.4,0.2-0.7,0.3-0.8c0.2-0.1,0.3-0.2,0.5-0.2
		c0.2,0,0.3-0.1,0.5-0.2c0.1-0.1,0.2-0.2,0.2-0.4c0.3-1.6,0.7-3.4,1-5.5c0.4-2,0.7-3.8,1-5.2l-0.3-0.5c0.2-0.7,0.4-1.4,0.7-2.2
		c0.2-0.8,0.5-1.5,0.8-2.2c0.3-0.7,0.7-1.3,1.1-1.8c0.4-0.5,0.8-0.8,1.3-1l0.1,0.1l0.2-0.3c0.2,0,0.4,0,0.5-0.1c0.1,0,0.2,0,0.3-0.1
		c0.9,0,1.7,0.2,2.5,0.6c0.8,0.4,1.5,0.8,2.2,1.3c0.6,0.5,1.1,1,1.5,1.5c0.4,0.5,0.5,0.8,0.5,1l0.1,0.2c0,0.1,0.1,0.2,0.4,0.5v0.1
		c-0.3,0.7-0.5,1.3-0.8,1.8c-0.3,0.5-0.6,1.1-0.9,1.8c-0.3,0.6-0.7,1.3-1.1,2.1s-0.8,1.8-1.3,3.1v-0.5l-0.6,0.8v1.8h-0.4
		c-0.1,0.3-0.3,0.5-0.6,0.7c-0.3,0.2-0.6,0.4-0.7,0.5l0.3,0.5c0.1,0,0.1,0,0.1,0.1c0,0.1-0.1,0.2-0.2,0.4c-0.1,0.2-0.2,0.5-0.2,1
		l-0.4-0.4c-0.2,0-0.4,0.1-0.6,0.3c-0.2,0.2-0.3,0.5-0.3,1h0.2c0.3,0,0.6-0.2,0.7-0.7c0.3,0.1,0.4,0.3,0.4,0.4
		c0,0.1,0.1,0.2,0.2,0.3c0.1-0.1,0.3-0.2,0.4-0.4c0.1-0.2,0.3-0.3,0.4-0.4l0.3,0.1c0,0.2-0.1,0.4-0.4,0.6c-0.2,0.2-0.3,0.4-0.3,0.7
		c0,0.1,0,0.2,0.1,0.3l-0.2-0.1c-0.1,0-0.3,0.1-0.5,0.4c-0.2,0.3-0.6,0.4-1.2,0.4c0.1-0.3,0.1-0.5,0.2-0.7c0.1-0.2,0.2-0.3,0.2-0.5
		c-0.6,0.3-0.9,0.8-0.9,1.3c0,0.5-0.2,1-0.6,1.3l0.3,0.8c0,0.2-0.2,0.5-0.5,1c-0.4,0.5-0.6,0.8-0.7,1h0.2c0.1,0,0.1,0,0.2,0
		c0,0,0.1,0,0.1,0c0.2,0.3,0.4,0.5,0.6,0.5h0.1c0,0.3-0.2,0.7-0.5,1.1s-0.5,0.9-0.5,1.6c0.2,0,0.4,0,0.5,0.1c0.1,0,0.3,0,0.4,0
		c0.1,0,0.3-0.1,0.6-0.4c0.1,0.1,0.1,0.1,0.2,0.1c0.1,0,0.2-0.1,0.4-0.2c0.1-0.1,0.2-0.2,0.3-0.2L198.3,50z M195.4,40.8v-0.4
		c0-0.2,0-0.3-0.1-0.3c-0.5,0.7-0.9,1.3-1.2,1.9c-0.3,0.5-0.6,1.1-0.9,1.6c-0.2,0.5-0.3,1-0.3,1.3c0,0.3,0.1,0.5,0.3,0.7
		c0.2,0.2,0.4,0.4,0.5,0.5l0.3-0.4c0-0.4-0.1-0.6-0.2-0.7c-0.1-0.1-0.3-0.3-0.7-0.7l0.9-0.4c0.1-0.1,0.2-0.2,0.2-0.3
		c0-0.2,0-0.3,0-0.5s0.1-0.4,0.2-0.7c0.1-0.2,0.4-0.5,0.8-0.6c-0.1-0.1-0.1-0.2-0.2-0.3c0-0.1-0.1-0.2-0.1-0.5L195.4,40.8z
		 M196.2,39.8c0,0.1,0,0.2,0,0.2c0,0,0,0.1,0,0.2l0.4-0.2L196.2,39.8z M196.6,47c-0.3-0.1-0.4-0.2-0.4-0.3s0-0.1,0-0.1
		c0,0,0,0,0-0.1h0.3V47z M196.5,48.8c0-0.1,0.1-0.2,0.2-0.2l-0.1,0.5L196.5,48.8z M197.3,49.5c0-0.2,0.1-0.4,0.2-0.5
		c0.2-0.2,0.2-0.3,0.2-0.5c0-0.1,0-0.1,0-0.2c0,0,0-0.1,0-0.1c0-0.5,0.2-0.7,0.7-0.7c-0.3,0.7-0.5,1.3-0.5,1.6
		c0,0.3-0.1,0.5-0.3,0.5C197.5,49.6,197.4,49.6,197.3,49.5z M198,39.4c0-0.2-0.1-0.4-0.3-0.5l-0.1,0.5H198z"/>
	<path class="st1" d="M211,54.9c0-0.1,0.1-0.4,0.2-0.9c0.1-0.5,0.3-1,0.5-1.6c0.2-0.5,0.3-1,0.4-1.5c0.1-0.5,0.2-0.8,0.2-1l0.2-0.4
		h0.2v0.7c-0.1,0.1-0.2,0.5-0.2,1c-0.1,0.5-0.2,1.1-0.3,1.8c-0.1,0.6-0.2,1.2-0.2,1.8c-0.1,0.5-0.1,0.9-0.1,1c0,0.5,0,1.3,0.2,2.4
		c0.1,1.1,0.1,1.9,0.1,2.5V61c-0.2-0.1-0.4-0.5-0.5-1c-0.1-0.5-0.2-1.1-0.3-1.8c-0.1-0.7-0.2-1.3-0.2-1.9c0-0.6,0-1,0-1.1V54.9z
		 M212.7,48.9c0-0.1,0.1-0.5,0.3-1.1c0.2-0.6,0.5-1,0.7-1.2v-0.3c0-0.1,0.1-0.2,0.3-0.2c0.2,0,0.4,0,0.5,0c-0.1,0.4-0.3,0.8-0.4,1.2
		c-0.2,0.7-0.5,1.4-0.9,1.9H213v-0.2H212.7z M249.2,59.9c-0.3,0.5-0.7,1.3-1,2.4c-0.4,1.1-0.6,2-0.8,2.8l0.2,0.8l0.9-1.5
		c0,0.1,0,0.2,0,0.4c0,0.2,0,0.3,0,0.4l-0.5,1.7c-0.7,0.5-1.1,1-1.2,1.3l-1.9,1.2l-0.2,2.4l0.3,0.5l1.7-2.2v-0.5l0.5-0.3l-0.4,2.7
		l-2.1,7l1-0.5l-1.1,1.4l-0.1,0.4c-0.1,0.1-0.4,0.3-0.8,0.7c-0.4,0.3-0.6,0.5-0.6,0.6l-0.9,0.9V82l0.8-1.9l-0.9-0.9v-0.9l-0.5,0.4
		v0.5c-0.7,2-1.2,3.8-1.4,5.5l-0.1,0.9c0.4-0.2,0.7-0.5,1-1c0.3-0.4,0.6-0.6,1.1-0.6h0.3l-0.1,0.5l-0.6,0.8l-0.6,2.3
		c-0.1,0.2-0.1,0.5-0.2,1c-0.1,0.4-0.1,0.9-0.2,1.3c-0.1,0.5-0.1,0.9-0.2,1.2c-0.1,0.3-0.1,0.5-0.2,0.5c-0.1,0-0.2-0.2-0.2-0.7
		l-0.9-0.1l0.2,1.3h-0.1H239c-0.1,0-0.3,0-0.4,0.1c-0.1,0.1-0.2,0.2-0.2,0.5v0.1c0,0.1,0.1,0.2,0.2,0.3l-1.5,1
		c-0.4-0.1-0.8-0.2-1.1-0.3c-0.3-0.1-0.4-0.2-0.3-0.2c-0.1,0-0.4,0-0.7,0.1c-0.3,0.1-0.6,0.1-0.7,0.2c-0.7-0.3-1.3-0.7-1.6-1
		c-0.4-0.4-0.9-0.5-1.7-0.5c0.1,0.2,0.3,0.4,0.5,0.7c0.2,0.3,0.2,0.6,0.2,1.1v0.2c-0.3,0-0.7-0.3-1.2-0.8c-0.3,0-0.6,0.3-0.9,0.8
		c-0.2-0.3-0.5-0.7-1-1c-0.5-0.3-0.9-0.6-1.2-0.8V88l1.2-4.6l1.5-4.6c0-0.1,0.1-0.3,0.2-0.7c0.1-0.3,0.3-0.6,0.4-1
		c0.1-0.4,0.3-0.7,0.4-0.9c0.1-0.3,0.2-0.5,0.2-0.6l0.6-0.9v-0.5c0.1-0.2,0.3-0.6,0.7-1.2c0.4-0.6,0.6-1.1,0.6-1.4l0.9-2.3
		c0-0.1,0.1-0.3,0.2-0.7c0.1-0.4,0.3-0.8,0.4-1.3c0.2-0.5,0.4-1.1,0.7-1.8c-0.9,0.3-1.6,0.5-2.1,0.7c-0.5,0.2-1,0.4-1.4,0.5
		c-0.5,0.2-0.8,0.2-0.9,0.2c-0.2,0.1-0.8,0.1-1.9,0.1c-1.7,0-3.2-0.1-4.8-0.4c-1.5-0.3-2.8-0.5-3.9-0.6l-0.4-0.6
		c-0.3-0.1-0.8-0.2-1.2-0.5c-0.5-0.3-1-0.6-1.5-0.9s-0.9-0.6-1.3-0.8c-0.4-0.2-0.6-0.4-0.7-0.4l-0.5-0.7v-0.3
		c-0.3-0.4-0.6-0.9-0.8-1.6c-0.2-0.7-0.3-1.4-0.5-2.2c-0.1-0.8-0.2-1.5-0.2-2.2c0-0.7,0-1.3,0-1.7c0-0.9,0.2-1.9,0.5-3.1
		c0.3-1.2,0.6-2.3,1-3.3c0.4-1,0.7-1.9,1-2.6c0.3-0.7,0.5-1.1,0.5-1.2l-0.3-0.1c-0.1,0.1-0.3,0.4-0.6,0.9c-0.3,0.5-0.5,0.7-0.6,0.7
		v-0.2c0-0.1,0.1-0.3,0.3-0.5c0.2-0.2,0.4-0.5,0.4-0.7V44l1-1.3h-0.2v-0.1c0-0.1,0.1-0.2,0.2-0.2c0.1,0,0.2,0,0.2,0.1l-0.1,0.1
		l0.6-0.7c0-0.7,0.4-1.4,1.2-2.3c0.8-0.9,1.7-1.7,2.7-2.6c1-0.9,2.1-1.7,3.1-2.5c1-0.8,1.8-1.5,2.4-2.1l-0.2-0.3
		c0.7-0.9,1.8-1.6,3.2-2.1c1.4-0.5,2.6-1.1,3.6-1.8c0.5-0.3,1-0.6,1.5-0.9c0.4-0.3,1-0.4,1.8-0.4c0.3,0,0.6,0.1,0.9,0.3
		c0.3,0.2,0.6,0.4,1,0.5l0.5,1.1c0.1,0,0.3,0.2,0.6,0.5c0.3,0.3,0.5,0.6,0.8,1c0.2,0.4,0.4,0.7,0.6,1.1c0.2,0.4,0.2,0.6,0.2,0.8
		c0,0.6-0.1,1-0.4,1.3c-0.3,0.3-0.6,0.5-1,0.6c-0.4,0.1-0.8,0.3-1.1,0.4c-0.4,0.1-0.7,0.3-1,0.6c0,0.1,0,0.2-0.1,0.5
		c-0.1,0.3-0.2,0.4-0.5,0.4c-0.1,0-0.1,0-0.2-0.1c-0.1,0.3-0.4,0.7-0.8,1c-0.4,0.3-0.8,0.5-1.2,0.6c-0.1,0-0.3,0-0.4-0.1
		c-0.2-0.1-0.3-0.1-0.4-0.1c0,0.1,0,0.1,0,0.2c0,0.1,0,0.1,0,0.2c0,0.1,0.1,0.2,0.4,0.2h0.1l-4.7,3.5l0.2,0.1
		c-0.1,0.1-0.3,0.2-0.5,0.2c-0.2,0-0.2,0.1-0.2,0.3l-1.6,1.1l-0.1,0.4h-0.2l-1.2,2.1c-0.1,0.1-0.2,0.5-0.3,1
		c-0.1,0.5-0.3,0.9-0.5,1.2l-0.3,0.5v1.3h-0.2l-0.2,0.4l0.2,0.2c0,0.3,0,0.4-0.1,0.5c-0.1,0-0.2,0.1-0.4,0.2l-1.1,3.6
		c0,0.1,0,0.3-0.1,0.5c-0.1,0.2-0.1,0.3-0.1,0.4v1.1c0,0.5,0,1,0,1.5s-0.1,0.9-0.2,1.2c0.2,0.1,0.4,0.4,0.5,0.7
		c0.1,0.3,0.2,0.6,0.4,0.7c0.2,0.2,0.5,0.4,1,0.5c0.5,0.1,1,0.2,1.6,0.3c0.6,0.1,1.2,0.2,1.7,0.2c0.5,0,1,0,1.3,0h0.3
		c0.5-0.5,1.4-1,2.8-1.5c1.3-0.5,2.6-1.1,3.9-2l3-6.2c0-0.1,0.1-0.4,0.3-0.7c0.2-0.3,0.3-0.7,0.3-1c0-0.3-0.3-0.5-0.9-0.5
		c-0.6,0-1.2,0.1-2,0.3c-0.7,0.2-1.4,0.3-2,0.3c-0.1,0-0.3,0-0.4-0.1c-0.1-0.1-0.3-0.2-0.4-0.2c-0.1,0-0.2,0-0.2,0
		c0,0-0.1,0.1-0.2,0.1h-0.4h-0.3c-0.1,0-0.2,0-0.3-0.1l-0.2-0.4c-0.3-0.2-0.6-0.4-0.8-0.5c-0.2-0.1-0.3-0.4-0.5-1v-0.6l-0.3-0.3
		c-0.1-0.1-0.1-0.3-0.1-0.7c0-0.2,1-0.4,3-0.7c2-0.2,4.5-0.5,7.4-0.7c2.9-0.2,5.8-0.4,8.9-0.6c3.1-0.2,5.6-0.2,7.7-0.2
		c0.8,0,1.6,0.1,2.5,0.2c0.8,0.1,1.2,0.5,1.2,1c0,0.5,0,0.8-0.1,1c-0.1,0.2-0.2,0.3-0.2,0.4c-0.1,0.1-0.2,0.1-0.3,0.1
		c-0.1,0-0.2,0.1-0.2,0.2l0.2,0.2l-0.2,0.1c-0.1,0.1-0.3,0.2-0.4,0.2c-0.1,0-0.2-0.1-0.3-0.2c-0.3,0-0.7,0-1.2,0.1
		c-0.6,0.1-1,0.2-1.4,0.2v0.2c0,0.1,0,0.1,0.1,0.1c0,0.4-0.2,0.7-0.7,0.8c-0.5,0.2-1,0.3-1.5,0.5c-0.6,0.2-1.1,0.4-1.6,0.7
		c-0.5,0.3-0.7,0.8-0.7,1.4l-0.1-0.1c-0.3,0.1-0.5,0.4-0.7,0.9c-0.2,0.5-0.4,1-0.6,1.5c-0.2,0.6-0.4,1.1-0.6,1.7
		c-0.2,0.5-0.4,0.9-0.6,1.2l0.2,0.3c0,0.2-0.2,0.7-0.5,1.5L249.2,59.9z M214.4,45.3c0,0.3,0,0.4,0.1,0.4H214L214.4,45.3z
		 M216.4,43.4c-0.1,0-0.2,0.1-0.2,0.2c0,0.1,0.1,0.2,0.2,0.2c0.1,0,0.2-0.1,0.2-0.2C216.6,43.5,216.5,43.4,216.4,43.4z M237.3,34.2
		c0.1,0.1,0.2,0.1,0.5,0.1c0.2,0,0.3,0,0.4,0c0,0,0.1-0.1,0.1-0.2c-0.1,0-0.1-0.1-0.1-0.4c-0.2,0-0.4,0.1-0.6,0.2
		C237.4,34.1,237.3,34.2,237.3,34.2z M239.8,88.1l-0.6,0.3v0.5l0.6-0.5V88.1z M239.6,89.4c-0.2,0-0.3,0.1-0.3,0.3
		c0,0.3,0.2,0.6,0.5,0.7c0.2,0,0.3-0.1,0.3-0.3C240.1,89.7,239.9,89.4,239.6,89.4z M240,86.6h0.4l0.1-0.4L240,86.6z M242.8,76.5
		l-0.1,0.9l1.6-0.4l0.1-0.9L242.8,76.5z M243.9,60.4h-0.2c-0.3,0-0.5,0.2-0.5,0.7c0,0.3,0.1,0.4,0.3,0.4c0.4,0,0.6-0.2,0.6-0.7
		C244.1,60.7,244,60.6,243.9,60.4z M244.3,74.2l0.4,0.4l0.1-0.4l-0.5-0.5V74.2z M246.8,57.7l-1.4,2.4c-0.1,0.2-0.3,0.6-0.5,1.2
		c-0.2,0.6-0.4,1.1-0.5,1.4l0.3,0.7l1.9-3.2c0-0.2,0-0.5,0.1-0.8c0-0.3,0.1-0.6,0.2-0.9L246.8,57.7z M246.3,63.8
		c-0.1,0.1-0.1,0.2-0.1,0.3c0,0.1,0.1,0.2,0.2,0.2c0.3,0,0.4-0.2,0.4-0.5c0-0.1-0.1-0.2-0.2-0.2C246.5,63.6,246.4,63.7,246.3,63.8z
		 M247.7,61.5c0.1-0.1,0.2-0.4,0.2-0.9c0-0.4,0.1-0.8,0.2-1l-0.9,1.6l-0.3,1.6l0.5-0.9L247.7,61.5z M247.8,67.9
		c0.2,0,0.3,0.1,0.3,0.4c0,0.3-0.1,0.5-0.4,0.5c-0.2,0-0.3-0.1-0.3-0.4C247.4,68.1,247.5,67.9,247.8,67.9z M249.3,63
		c0.1-0.1,0.2-0.2,0.3-0.2c0.1,0,0.2,0.1,0.2,0.2c0,0.3-0.1,0.5-0.4,0.5c-0.1,0-0.2-0.1-0.2-0.2v-0.1
		C249.2,63.2,249.2,63.1,249.3,63z M251,60.2l-1.1,1.9v-1.3l0.6-0.9L251,60.2z M251.4,57.3l-0.1,1.2L251,59l-0.1-0.7l0.3-0.5
		L251.4,57.3z M251.2,54.6c0-0.1,0-0.2-0.1-0.2v0.2v0.1C251.2,54.7,251.2,54.7,251.2,54.6z"/>
	<path class="st1" d="M315.2,44.2c0.2-0.7,0.5-1.4,1-1.9c0.5-0.5,0.9-1.1,1.2-1.8c0.1-0.1,0.3-0.3,0.6-0.8c0.3-0.5,0.7-1,1.1-1.5
		c0.4-0.6,0.8-1.1,1.1-1.5c0.4-0.4,0.6-0.7,0.8-0.7c0-0.3,0.1-0.6,0.4-0.9c0.2-0.3,0.5-0.7,0.8-1s0.6-0.5,0.9-0.8
		c0.3-0.2,0.5-0.3,0.6-0.3h0.6l0.2,0.4h0.9c0.3,0.1,0.7,0.2,1,0.5c0.3,0.2,0.6,0.4,1,0.5h0.8c2,0.5,4,1.1,6,2c2,0.8,3.6,2.1,4.9,3.9
		c0.3,1.1,0.7,2.1,1,3.1c0.3,1,0.7,2,1.1,3c0,0.5,0,1.2,0,2c0,0.8-0.1,2.5-0.2,5v0.6c0,0.4-0.1,1-0.4,1.7c-0.2,0.7-0.5,1.5-0.8,2.2
		c-0.3,0.7-0.6,1.4-1,1.9c-0.3,0.5-0.6,0.8-0.8,0.8l-0.1,0.1c-0.3,0.5-0.9,1.2-1.8,2c-0.8,0.8-1.9,1.6-3.1,2.4c-1.2,0.8-2.5,1.5-4,2
		c-1.5,0.6-3,0.9-4.6,0.9c-1.1,0-2.1-0.1-3.1-0.4c-1-0.2-1.9-0.5-2.8-0.8l-0.9-1l-2.2-0.4c-0.4-0.3-0.8-0.6-1-1.1s-0.6-1-0.9-1.4
		c-0.9-1-1.5-2-1.8-3.1c-0.2-1.1-0.3-2.4-0.3-4c0-0.3,0-0.6,0.1-0.8c0.1-0.2,0.1-0.4,0.1-0.8v-0.3c0-0.1,0-0.3,0.1-0.6
		c0.1-0.3,0.2-0.7,0.3-1c0.1-0.4,0.2-0.7,0.3-1c0.1-0.3,0.1-0.5,0.1-0.7l0.6-0.8c0-0.2,0.1-0.4,0.3-0.6c0.2-0.2,0.3-0.4,0.3-0.6
		l0.2,0.3c0.1-0.1,0.1-0.4,0.2-0.7c0.1-0.3,0.1-0.5,0.2-0.6l0.3-0.7c0-0.1,0-0.4,0.1-0.7c0.1-0.3,0.2-0.6,0.2-0.7h-0.5
		c-0.1,0-0.1,0-0.2,0.1L315.2,44.2z M312.5,52.6c-0.1,0.1-0.2,0.4-0.2,0.7l-0.1,0.6l0.4-0.4c0-0.1,0-0.3,0.1-0.5
		c0.1-0.2,0.2-0.3,0.2-0.4l0.2-0.5L312.5,52.6z M313.5,50.2c-0.3,0.3-0.4,0.5-0.4,0.8v0.3l0.8-1L313.5,50.2z M314.3,52.4l0.3-0.2
		l0.1-0.8L314.3,52.4z M316.1,47.2l-0.9,2c0,0.3,0,0.5-0.1,0.7c-0.1,0.2-0.1,0.4-0.1,0.7l0.3,0.1l0.9-2.2c0-0.1,0-0.4,0-0.7
		c0-0.3,0.1-0.5,0.2-0.6H316.1z M316.1,44.8c0-0.2-0.1-0.3-0.2-0.3c-0.1,0-0.2,0.1-0.2,0.3c0,0.1,0.1,0.2,0.2,0.2L316.1,44.8z
		 M320.5,55.3c0,0.3,0,0.6,0,1.1c0,0.5,0,0.9,0,1.4c0,0.7,0.1,1.3,0.2,1.8l0.6,3.2l1-0.2c0.2,0.3,0.5,0.4,0.9,0.4
		c0.9,0,1.8-0.2,2.7-0.5c0.9-0.3,1.8-0.8,2.5-1.5l1.8-2.4l1-2.3l0.3-2.4c0.3-0.6,0.4-1.2,0.5-1.8c0.1-0.6,0.1-1.2,0.1-1.8v-2
		c0-0.9,0-2,0-3.3c0-1.4-0.3-2.4-1-3.2c-0.5-0.5-1.1-1.2-1.8-1.9c-0.8-0.7-1.4-1.1-2-1.1c-0.3,0-0.6,0.2-1,0.6
		c-0.4,0.4-0.6,0.6-0.8,0.6c-0.6,0.5-0.9,1.1-1,1.8c-0.1,0.7-0.3,1.4-0.6,2.1l-0.2,1.5c-0.9,1.7-1.6,3.4-2.2,4.9
		C320.8,52,320.5,53.6,320.5,55.3z"/>
	<path class="st1" d="M350.9,44.2c0.2-0.7,0.5-1.4,1-1.9c0.5-0.5,0.9-1.1,1.2-1.8c0.1-0.1,0.3-0.3,0.6-0.8c0.3-0.5,0.7-1,1.1-1.5
		c0.4-0.6,0.8-1.1,1.1-1.5c0.4-0.4,0.6-0.7,0.8-0.7c0-0.3,0.1-0.6,0.4-0.9c0.2-0.3,0.5-0.7,0.8-1s0.6-0.5,0.9-0.8
		c0.3-0.2,0.5-0.3,0.6-0.3h0.6l0.2,0.4h0.9c0.3,0.1,0.7,0.2,1,0.5c0.3,0.2,0.6,0.4,1,0.5h0.8c2,0.5,4,1.1,6,2c2,0.8,3.6,2.1,4.9,3.9
		c0.3,1.1,0.7,2.1,1,3.1c0.3,1,0.7,2,1.1,3c0,0.5,0,1.2,0,2c0,0.8-0.1,2.5-0.2,5v0.6c0,0.4-0.1,1-0.4,1.7c-0.2,0.7-0.5,1.5-0.8,2.2
		c-0.3,0.7-0.6,1.4-1,1.9c-0.3,0.5-0.6,0.8-0.8,0.8l-0.1,0.1c-0.3,0.5-0.9,1.2-1.8,2c-0.8,0.8-1.9,1.6-3.1,2.4c-1.2,0.8-2.5,1.5-4,2
		c-1.5,0.6-3,0.9-4.6,0.9c-1.1,0-2.1-0.1-3.1-0.4c-1-0.2-1.9-0.5-2.8-0.8l-0.9-1l-2.2-0.4c-0.4-0.3-0.8-0.6-1-1.1s-0.6-1-0.9-1.4
		c-0.9-1-1.5-2-1.8-3.1c-0.2-1.1-0.3-2.4-0.3-4c0-0.3,0-0.6,0.1-0.8c0.1-0.2,0.1-0.4,0.1-0.8v-0.3c0-0.1,0-0.3,0.1-0.6
		c0.1-0.3,0.2-0.7,0.3-1c0.1-0.4,0.2-0.7,0.3-1c0.1-0.3,0.1-0.5,0.1-0.7l0.6-0.8c0-0.2,0.1-0.4,0.3-0.6c0.2-0.2,0.3-0.4,0.3-0.6
		l0.2,0.3c0.1-0.1,0.1-0.4,0.2-0.7c0.1-0.3,0.1-0.5,0.2-0.6l0.3-0.7c0-0.1,0-0.4,0.1-0.7c0.1-0.3,0.2-0.6,0.2-0.7h-0.5
		c-0.1,0-0.1,0-0.2,0.1L350.9,44.2z M348.2,52.6c-0.1,0.1-0.2,0.4-0.2,0.7l-0.1,0.6l0.4-0.4c0-0.1,0-0.3,0.1-0.5
		c0.1-0.2,0.2-0.3,0.2-0.4l0.2-0.5L348.2,52.6z M349.2,50.2c-0.3,0.3-0.4,0.5-0.4,0.8v0.3l0.8-1L349.2,50.2z M350,52.4l0.3-0.2
		l0.1-0.8L350,52.4z M351.8,47.2l-0.9,2c0,0.3,0,0.5-0.1,0.7c-0.1,0.2-0.1,0.4-0.1,0.7l0.3,0.1l0.9-2.2c0-0.1,0-0.4,0-0.7
		c0-0.3,0.1-0.5,0.2-0.6H351.8z M351.8,44.8c0-0.2-0.1-0.3-0.2-0.3c-0.1,0-0.2,0.1-0.2,0.3c0,0.1,0.1,0.2,0.2,0.2L351.8,44.8z
		 M356.2,55.3c0,0.3,0,0.6,0,1.1c0,0.5,0,0.9,0,1.4c0,0.7,0.1,1.3,0.2,1.8l0.6,3.2l1-0.2c0.2,0.3,0.5,0.4,0.9,0.4
		c0.9,0,1.8-0.2,2.7-0.5c0.9-0.3,1.8-0.8,2.5-1.5l1.8-2.4l1-2.3l0.3-2.4c0.3-0.6,0.4-1.2,0.5-1.8c0.1-0.6,0.1-1.2,0.1-1.8v-2
		c0-0.9,0-2,0-3.3c0-1.4-0.3-2.4-1-3.2c-0.5-0.5-1.1-1.2-1.8-1.9c-0.8-0.7-1.4-1.1-2-1.1c-0.3,0-0.6,0.2-1,0.6
		c-0.4,0.4-0.6,0.6-0.8,0.6c-0.6,0.5-0.9,1.1-1,1.8c-0.1,0.7-0.3,1.4-0.6,2.1l-0.2,1.5c-0.9,1.7-1.6,3.4-2.2,4.9
		C356.5,52,356.2,53.6,356.2,55.3z"/>
	<path class="st1" d="M390.6,70l-2-0.2c-1.1-0.1-2.2-0.5-3.2-1.2s-1.5-1.6-1.6-2.7c0-0.2,0-0.3,0.1-0.4l0.5-0.1l0.2-0.9
		c-0.1,0-0.3-0.1-0.4-0.2l0.1-0.4l0.2-0.2l-0.2-0.8c0-0.1,0-0.1,0.1-0.1c0.1,0.1,0.1,0.1,0.2,0.1l0.8-1l0.2,0.1
		c-0.1,0-0.2,0.1-0.2,0.4c0,0.3,0,0.6,0,0.9v0.4c0,0.1,0,0.1,0.1,0.2h0.2c0.1-0.1,0.1-0.2,0.1-0.4v-0.7c0-0.1,0-0.4,0.1-0.8
		c0.1-0.4,0.2-0.7,0.2-0.9V58c0-0.1,0-0.7,0.1-1.7c0.1-1,0.2-2.1,0.4-3.2c0.1-1.1,0.2-2.2,0.3-3.1c0.1-1,0.2-1.5,0.2-1.7l0.6-1
		l-0.6-1.4c0-0.3,0.1-0.9,0.2-1.8c0.1-0.8,0.2-1.4,0.2-1.6l0.3-1.4l0.7-1l-0.6-0.4v-1.9l0.5-1.6l-0.3-0.1l1.1-7.6c0-0.1,0-0.1,0-0.2
		c0,0,0-0.1,0-0.1c0-0.5,0.1-1.2,0.3-1.9s0.3-1.1,0.3-1.3l1.8-0.1l1.8-0.6h1.2c0.3,0,0.7,0.2,1.4,0.6c0.7,0.4,1.2,0.8,1.5,1.1
		l1.2,1.1c0.1,0.1,0.2,0.4,0.3,0.7c0.1,0.3,0.2,0.5,0.3,0.5l0.1,0.5c-0.1,0.1-0.2,0.5-0.2,1.2c-0.1,0.7-0.3,1.5-0.6,2.2
		c0.1,0.1,0.1,0.3,0.1,0.5s0,0.4-0.2,0.5c-0.1,0.2-0.2,0.3-0.3,0.5v0.1l-0.1,0.1c0,0.1,0,0.1,0.1,0.1h0.4c0,0.3-0.2,0.6-0.5,0.9
		c0.1,0.1,0.2,0.2,0.2,0.3c0,0.1-0.1,0.3-0.3,0.7c-0.2,0.3-0.4,0.7-0.4,1.2l0.1,0.3c-0.1,0.1-0.1,0.2-0.2,0.2c-0.1,0-0.1,0-0.1,0.1
		c0,0.1,0.1,0.3,0.3,0.5c-0.1,0.3-0.2,0.5-0.4,0.5s-0.3,0.3-0.3,0.9c0,0.1,0.2,0.2,0.6,0.3l-0.7,0.4c0,0.1,0,0.1,0.1,0.1
		c0.1,0,0.1,0,0.1,0c0,0,0.1,0,0.2,0l0.4,1.1c-0.2,0.3-0.4,0.5-0.5,0.6c-0.1,0.2-0.2,0.4-0.2,0.7v0.1v0.2c0,0.1,0.1,0.3,0.2,0.4
		c0,0.9-0.1,1.6-0.2,2.1c-0.2,0.5-0.2,0.9-0.2,1.2c0,0.2,0,0.3,0.1,0.4l0.3,0.2c-0.1,0.5-0.2,0.9-0.3,1.4c-0.2,0.5-0.3,0.8-0.5,0.9
		h-0.2l-0.1,0.4l0.5-0.1c-0.1,0.1-0.3,0.2-0.4,0.3c-0.1,0.1-0.2,0.2-0.2,0.4c0,0.1,0,0.1,0.1,0.1h0.6l-0.6,2h0.5
		c0.1,0.2,0.1,0.5,0,0.8c0,0.3,0,0.5,0.2,0.7l-0.2,0.3c0,0.7,0,1.3,0,1.7c0,0.4-0.1,0.8-0.2,1.3l-0.2,0.2l0.5,0.5
		c-0.1,0.1-0.1,0.2-0.1,0.2c0,0-0.1,0.1-0.2,0.2l0.1-0.3c-0.4,0.3-0.7,0.4-0.8,0.5l1,0.1c-0.4,0.4-0.7,0.6-0.9,0.6h-0.1H395v0.5
		c0,0.9,0.1,1.8,0.4,2.6c0.3,0.8,0.9,1.2,1.9,1.2c0.1,0,0.2,0,0.3,0c0.1,0,0.1,0,0.2,0c0,0.2,0.1,0.3,0.2,0.3c0.3,0,0.8-0.1,1.5-0.3
		c0.7-0.2,1.5-0.3,2.4-0.3h0.9c0.5,0,0.9-0.2,1.1-0.5c0.2-0.3,0.4-0.5,0.7-0.7c0.2,0.1,0.3,0.1,0.3,0.2c0,0,0.1,0.1,0.2,0.2
		c0.4-0.4,0.8-0.6,1.3-0.6c0.1,0.1,0.2,0.1,0.6,0.1c0.3,0,0.4,0.1,0.4,0.4l0.4-0.2c0.1-0.1,0.2-0.1,0.2-0.2c0-0.1,0.1-0.1,0.2-0.1
		c0.5,0.5,1.1,0.7,1.8,0.8l-0.2,0.5c0.1,0.1,0.1,0.1,0.2,0.1c0.1,0,0.2,0,0.2-0.2c0-0.1,0.2-0.1,0.5-0.1c0,0.1,0.3,0.2,1,0.5
		c0.7,0.3,1,0.6,1,0.9c0,0.1,0,0.2-0.1,0.3l0.1,0.8c-0.5,0.2-0.9,0.4-1.3,0.5c-0.4,0.1-0.7,0.3-1,0.6c-0.2,0-0.4-0.1-0.5-0.2
		c-0.2-0.1-0.2-0.2-0.2-0.1c-0.1,0.1-0.1,0.3-0.1,0.5v0.1c0,0.1,0.1,0.1,0.2,0.1c-0.7,0.1-1.2,0.1-1.8,0.2c-0.5,0.1-1,0.1-1.6,0.1
		c-0.2,0-0.4,0-0.6,0c-0.2,0-0.4,0-0.7,0c-0.6,0-1.4,0.2-2.2,0.8c-0.9,0.5-1.9,0.8-2.9,0.8h-0.8c-0.3,0-0.6,0-1.1,0
		c-0.5,0-0.9,0.1-1.4,0.2c-0.4,0.1-0.8,0.2-1.1,0.3c-0.3,0.1-0.5,0.3-0.5,0.6l-0.2-0.4c-0.1,0.3-0.3,0.6-0.5,0.7
		c-0.2,0.1-0.3,0.3-0.4,0.6c-0.1-0.1-0.2-0.3-0.2-0.5c0-0.3,0.1-0.7,0.2-1c-0.2,0.1-0.6,0.2-1.3,0.2c-0.1-0.3-0.3-0.5-0.5-0.7
		c-0.2-0.1-0.3-0.2-0.3-0.2l-1.1,0.7L390.6,70z M412.3,64.8c-0.1,0-0.2,0-0.3,0.1c0,0.1,0.1,0.2,0.2,0.3
		C412.3,65.2,412.4,65.1,412.3,64.8C412.4,64.9,412.4,64.8,412.3,64.8z"/>
	<path class="st1" d="M442.6,70c-1-0.2-2.1-0.4-3.2-0.5c-1.1-0.1-2.2-0.2-3.3-0.4c-1.1-0.1-2-0.2-2.9-0.2c-0.9-0.1-1.6-0.1-2.2-0.1
		h-2.1v1.1c-0.1,0-0.3,0-0.8,0c-0.4,0-0.8-0.1-1.2-0.2h-0.2l-0.2,0.4l-1.8,0.3l-2.1-0.6c-0.1,0.1-0.3,0.2-0.5,0.2s-0.4,0-0.6,0
		c-0.4,0-0.7-0.2-0.9-0.5c-0.2-0.3-0.3-0.7-0.3-1.1c-0.1-0.4-0.1-0.8-0.1-1.1c0-0.4,0-0.6-0.1-0.8l-0.3-0.2l0.1-0.2h0.1h0.1
		c0-0.1,0-0.2,0-0.2c0,0,0-0.1,0-0.2l0.1-1.1l-0.3,0.3c-0.1,0-0.2,0-0.2-0.1v-0.2c0-0.7,0.1-1.5,0.4-2.3c0.3-0.8,0.4-1.2,0.3-1.1
		h0.7c-0.1-0.3-0.3-0.5-0.6-0.4c-0.3,0.1-0.4-0.1-0.4-0.6c0-0.3,0.2-0.6,0.8-0.7s0.8-0.2,1-0.2c0.1,0,0.1,0.1,0.1,0.2l0.2-0.3
		c0-0.1,0-0.1,0-0.2c0-0.1,0-0.2,0-0.3v-1c-0.3,0.1-0.5,0.2-0.6,0.2c-0.1,0-0.4,0.1-0.9,0.4V58c0-0.5,0.2-0.8,0.5-0.8h0.4v-0.8
		c-0.3,0-0.5,0.1-0.7,0.3c-0.1,0.2-0.3,0.3-0.6,0.3c0-0.3,0-0.8,0.1-1.3c0.1-0.5,0.3-0.9,0.8-1v-1.3c-0.1,0.1-0.2,0.2-0.3,0.2h-0.2
		c0.1-0.4,0.2-0.8,0.2-1.3v-0.4c-0.1,0.1-0.2,0.4-0.3,0.9c-0.1,0.5-0.2,0.8-0.5,1v-0.2c0-0.3,0-0.7,0.1-1.2c0.1-0.5,0.1-0.9,0.1-1
		l0.2-0.7l0.4,0.2l0.7-1.2h0.2c0-0.1,0-0.2,0-0.4c0-0.1,0-0.2,0-0.2v-0.2l-0.3,0.3l-0.6-0.6c0-0.3,0.1-0.6,0.2-0.9
		c0.1-0.3,0.3-0.6,0.4-0.9c0.1-0.8,0.3-1.5,0.5-2.2c0.2-0.6,0.4-1.3,0.5-2c0.2-0.7,0.3-1.6,0.5-2.5c0.1-0.9,0.2-2.1,0.2-3.4v-0.5
		h-0.5c0-0.1-0.1-0.3-0.2-0.4c0-0.1,0.1-0.4,0.2-0.7c0.2-0.3,0.2-0.6,0.2-0.7c-0.1-0.2-0.1-0.5-0.1-0.8c0-0.3,0-0.5,0.1-0.6
		c0.1-0.2,0.3-0.5,0.5-0.9c0.2-0.4,0.5-1,0.9-1.8c0.3-0.8,0.8-1.8,1.3-3.2h-0.3l0.8-1.8c0.1-0.3,0.3-0.9,0.5-1.8
		c0.2-1,0.6-1.6,1-1.9l0.4,0.3c-0.1,0,0,0,0.3,0c0.3,0,0.5-0.1,0.8-0.2c0.6,0.6,1.2,1,1.8,1.3c0.6,0.3,1.2,0.5,1.8,0.7
		s1.1,0.4,1.5,0.7c0.4,0.2,0.7,0.6,0.9,1.2c-0.1,0.1-0.3,0.5-0.4,1.1c-0.1,0.6-0.2,1.2-0.3,1.9c-0.1,0.7-0.2,1.2-0.2,1.6
		c0,0.4,0,0.6,0,0.5h0.2c0.2,0,0.4,0,0.7,0c0.3,0,0.5,0,0.7,0c1.1-0.4,2-0.7,2.7-0.9c0.7-0.2,1.4-0.4,1.9-0.5c0.5-0.1,1-0.3,1.5-0.5
		c0.5-0.2,0.9-0.6,1.4-1c0.2,0.1,0.4,0.1,0.6,0.1c0.3,0,0.4-0.1,0.5-0.2c0.1-0.1,0.2-0.3,0.4-0.4c0.2-0.1,0.4-0.3,0.8-0.4
		c0.4-0.1,0.9-0.2,1.8-0.2c0.1,0,0.5,0.1,1.4,0.4c0.9,0.2,1.6,0.9,2.3,2c-0.3,0.1-0.6,0.7-0.9,1.6c-0.3,0.9-0.5,2-0.7,3.2
		s-0.4,2.4-0.5,3.6c-0.1,1.2-0.2,2.2-0.2,2.9c-0.5,1.5-0.8,2.4-1,2.8c-0.2,0.4-0.2,0.7-0.2,1c0,0.2,0.1,0.4,0.4,0.5
		c0.3,0.2,0.6,0.3,0.9,0.5c0.3,0.2,0.7,0.3,1,0.5c0.3,0.2,0.6,0.4,0.8,0.5c0.2,0.2,0.4,0.6,0.5,1.1c0.2,0.5,0.3,0.8,0.5,0.9v2
		c0,0.8,0,1.8,0,3c0,1.2-0.1,2.1-0.4,2.9c-0.3,0.1-0.5,0.5-0.5,1c0,0.6,0,1-0.1,1.1l-0.3,0.5h0.3l-1,1.4l-0.1,2
		c-0.1,1.4-0.4,2.7-1,3.8c-0.6,1.1-0.9,2.3-1,3.6H447l-1,0.8l-0.7,0.1l-1.6-0.5L442.6,70z M430.4,63.6l0.3,0.2c1,0.1,2,0.3,3.2,0.5
		c1.1,0.2,2.1,0.2,3,0.2c0.8,0,1.9-0.1,3.2-0.2c1.4-0.2,2.4-0.5,3.1-1c0-0.1,0-0.4,0.1-0.9c0-0.5,0.1-0.9,0.2-1.2v-0.1
		c0-0.2,0.1-0.5,0.2-1c0.1-0.4,0.2-0.7,0.2-0.8l0.4,0.1l-0.2-1.1c0-1.3,0.1-2.6,0.3-3.9c0.2-1.3,0.4-2.6,0.5-3.9
		c0-0.4-0.3-0.6-1-0.7c-0.6-0.1-1.1-0.1-1.3-0.1c-1.8,0-3.7,0.4-5.8,1.3c-2,0.9-3.9,1.8-5.5,2.8l-0.5,0.1c-0.1,0.1-0.2,0.5-0.3,1
		c-0.1,0.5-0.2,0.8-0.4,0.8h-0.1l-0.6,1.9c0,0.9-0.1,1.8-0.2,2.7c-0.1,0.9-0.2,1.8-0.2,2.7c0,0.4,0.1,0.6,0.4,0.6l0.4-0.2
		L430.4,63.6z M443.2,39.3C443.1,39.3,443.1,39.3,443.2,39.3c-0.1-0.4,0.1-1.1,0.6-2.4c0.5-1.3,0.7-2.4,0.7-3.5
		c0-0.3-0.1-0.6-0.3-0.7c-1.6,0.7-3.2,1.3-4.9,1.8c-1.7,0.5-3.1,1.2-4.2,2.2l-1.4,0.9c-0.8,0.9-1.3,1.7-1.6,2.3
		c-0.3,0.6-0.4,1.1-0.4,1.5l0.4-0.4c-0.1,0.7-0.2,1.2-0.2,1.5c0,0.4-0.2,0.8-0.5,1.2l-0.2,0.1h0.8v0.7c0,0.1,0,0.3-0.1,0.6
		c-0.1,0.3-0.1,0.6-0.1,0.8c0,0.2,0,0.4,0.1,0.5c0,0.1,0,0.3,0,0.4c0,0.5-0.1,0.7-0.3,0.8h0.2c0.1,0,0.3,0,0.4-0.1
		c0.1-0.1,0.3-0.2,0.6-0.2c0.1,0,0.3,0,0.4,0.1c1-0.5,2.1-1,3.2-1.4c1.2-0.4,2.2-1,3.2-1.7L440,44c0.3-0.1,0.7-0.2,1.4-0.4
		c0.7-0.2,1.1-0.5,1.2-0.9L443.2,39.3z"/>
	<path class="st1" d="M462.8,44.2c0.2-0.7,0.5-1.4,1-1.9c0.5-0.5,0.9-1.1,1.2-1.8c0.1-0.1,0.3-0.3,0.6-0.8c0.3-0.5,0.7-1,1.1-1.5
		c0.4-0.6,0.8-1.1,1.1-1.5c0.4-0.4,0.6-0.7,0.8-0.7c0-0.3,0.1-0.6,0.4-0.9c0.2-0.3,0.5-0.7,0.8-1s0.6-0.5,0.9-0.8
		c0.3-0.2,0.5-0.3,0.6-0.3h0.6l0.2,0.4h0.9c0.3,0.1,0.7,0.2,1,0.5c0.3,0.2,0.6,0.4,1,0.5h0.8c2,0.5,4,1.1,6,2c2,0.8,3.6,2.1,4.9,3.9
		c0.3,1.1,0.7,2.1,1,3.1c0.3,1,0.7,2,1.1,3c0,0.5,0,1.2,0,2c0,0.8-0.1,2.5-0.2,5v0.6c0,0.4-0.1,1-0.4,1.7c-0.2,0.7-0.5,1.5-0.8,2.2
		c-0.3,0.7-0.6,1.4-1,1.9c-0.3,0.5-0.6,0.8-0.8,0.8l-0.1,0.1c-0.3,0.5-0.9,1.2-1.8,2c-0.8,0.8-1.9,1.6-3.1,2.4c-1.2,0.8-2.5,1.5-4,2
		c-1.5,0.6-3,0.9-4.6,0.9c-1.1,0-2.1-0.1-3.1-0.4c-1-0.2-1.9-0.5-2.8-0.8l-0.9-1l-2.2-0.4c-0.4-0.3-0.8-0.6-1-1.1s-0.6-1-0.9-1.4
		c-0.9-1-1.5-2-1.8-3.1c-0.2-1.1-0.3-2.4-0.3-4c0-0.3,0-0.6,0.1-0.8c0.1-0.2,0.1-0.4,0.1-0.8v-0.3c0-0.1,0-0.3,0.1-0.6
		c0.1-0.3,0.2-0.7,0.3-1c0.1-0.4,0.2-0.7,0.3-1c0.1-0.3,0.1-0.5,0.1-0.7l0.6-0.8c0-0.2,0.1-0.4,0.3-0.6c0.2-0.2,0.3-0.4,0.3-0.6
		l0.2,0.3c0.1-0.1,0.1-0.4,0.2-0.7c0.1-0.3,0.1-0.5,0.2-0.6l0.3-0.7c0-0.1,0-0.4,0.1-0.7c0.1-0.3,0.2-0.6,0.2-0.7h-0.5
		c-0.1,0-0.1,0-0.2,0.1L462.8,44.2z M460.1,52.6c-0.1,0.1-0.2,0.4-0.2,0.7l-0.1,0.6l0.4-0.4c0-0.1,0-0.3,0.1-0.5
		c0.1-0.2,0.2-0.3,0.2-0.4l0.2-0.5L460.1,52.6z M461.1,50.2c-0.3,0.3-0.4,0.5-0.4,0.8v0.3l0.8-1L461.1,50.2z M461.9,52.4l0.3-0.2
		l0.1-0.8L461.9,52.4z M463.7,47.2l-0.9,2c0,0.3,0,0.5-0.1,0.7c-0.1,0.2-0.1,0.4-0.1,0.7l0.3,0.1l0.9-2.2c0-0.1,0-0.4,0-0.7
		c0-0.3,0.1-0.5,0.2-0.6H463.7z M463.7,44.8c0-0.2-0.1-0.3-0.2-0.3c-0.1,0-0.2,0.1-0.2,0.3c0,0.1,0.1,0.2,0.2,0.2L463.7,44.8z
		 M468.1,55.3c0,0.3,0,0.6,0,1.1c0,0.5,0,0.9,0,1.4c0,0.7,0.1,1.3,0.2,1.8l0.6,3.2l1-0.2c0.2,0.3,0.5,0.4,0.9,0.4
		c0.9,0,1.8-0.2,2.7-0.5c0.9-0.3,1.8-0.8,2.5-1.5l1.8-2.4l1-2.3L479,54c0.3-0.6,0.4-1.2,0.5-1.8c0.1-0.6,0.1-1.2,0.1-1.8v-2
		c0-0.9,0-2,0-3.3c0-1.4-0.3-2.4-1-3.2c-0.5-0.5-1.1-1.2-1.8-1.9c-0.8-0.7-1.4-1.1-2-1.1c-0.3,0-0.6,0.2-1,0.6
		c-0.4,0.4-0.6,0.6-0.8,0.6c-0.6,0.5-0.9,1.1-1,1.8c-0.1,0.7-0.3,1.4-0.6,2.1l-0.2,1.5c-0.9,1.7-1.6,3.4-2.2,4.9
		C468.4,52,468.1,53.6,468.1,55.3z"/>
	<path class="st1" d="M496.6,91.2l-0.6,0.3l-0.5-0.1l-2,0.3l-3.2-1.2h-1.1l-0.7-1.3l0.2-0.4l-0.5-1.8l-0.2-0.2c0-0.1,0-0.3-0.1-0.5
		c-0.1-0.2-0.1-0.4-0.2-0.5l2.6-2.2l-0.2-0.5l1.3-1.8c0.1,0,0.3-0.1,0.4-0.2l-0.1-0.2c0.2-0.2,0.4-0.5,0.6-1c0.2-0.5,0.4-1,0.6-1.5
		s0.4-1,0.5-1.4c0.2-0.4,0.3-0.7,0.5-0.8l1.7-2.6c0.1-0.1,0.1-0.4,0.2-0.7c0.1-0.3,0.2-0.6,0.3-0.7l1.8-3.6l-0.1-0.4l0.3-0.3
		c0.2-0.1,0.5-0.3,0.8-0.6c0.3-0.4,0.6-0.8,0.8-1.2c0.3-0.4,0.5-0.8,0.7-1.2c0.2-0.4,0.3-0.7,0.3-0.9c0-0.6,0.1-1.1,0.4-1.5
		c0.3-0.4,0.6-0.8,0.9-1.2c0.3-0.4,0.6-0.8,0.9-1.2c0.3-0.4,0.5-0.9,0.7-1.5l0.4-0.8c0.1-0.2,0.2-0.4,0.5-0.7c0.5-0.7,1-1.3,1.3-1.8
		c0.3-0.5,0.7-1.1,1.1-1.9h-0.4l3.3-4.3l0.2-0.4c0.1-0.1,0.2-0.3,0.3-0.5c-0.1-0.5-0.3-0.9-0.6-1.2c-0.3-0.3-0.5-0.7-0.7-1l-0.2,0.5
		c-0.2-0.6-0.6-1.4-1.2-2.4c-0.6-1-1.2-2-1.8-3.1c-0.7-1.1-1.4-2.2-2-3.4c-0.7-1.2-1.2-2.2-1.7-3.1l-0.7-0.2l-1.6-4.1l-0.7-2.5
		c0.3,0,0.6-0.1,1-0.2c0.4-0.1,0.7-0.2,0.8-0.2c0.4,0,0.9,0,1.5,0c0.6,0,1.1,0,1.7,0.2c0.5,0.1,1,0.3,1.5,0.6s0.9,0.8,1.1,1.3
		l1.5,2.1l1.1,2.2c0,0.1,0,0.1,0,0.1c0,0,0,0,0,0.1c0,0.1,0,0.2-0.1,0.4c-0.1,0.1-0.2,0.2-0.2,0.3c0-0.1,0.2,0.2,0.5,0.7
		c0.4,0.5,0.8,1.1,1.2,1.8c0.5,0.7,0.9,1.3,1.4,2c0.5,0.7,0.8,1.1,1,1.4c0.1,0.1,0.2,0.2,0.3,0.5c0.1,0.2,0.3,0.4,0.6,0.4v0.1
		l5.3-10.1c0.5-0.7,0.8-1.2,0.9-1.7c0.2-0.5,0.8-0.7,1.8-0.7l0.1,0.7h0.4l0.6-0.5c0.3,0,0.6,0.1,1.1,0.3s1,0.5,1.5,0.8
		s0.9,0.6,1.3,1c0.4,0.4,0.5,0.7,0.5,1c0,0.7-0.2,1.4-0.5,2.1c-0.4,0.8-0.8,1.5-1.2,2.2c-0.5,0.7-0.9,1.3-1.4,1.9
		c-0.4,0.6-0.7,1-0.8,1.3c-0.1,0.2-0.2,0.5-0.5,0.8c-0.2,0.3-0.4,0.6-0.5,1c-0.4,0.9-0.7,1.7-1,2.3c-0.3,0.6-0.5,1.2-0.7,1.7
		c-0.2,0.5-0.4,1-0.6,1.5c-0.2,0.5-0.4,1.1-0.6,1.8l-0.3,0.6c0.5,1,1,2,1.6,2.9c0.6,0.9,1.2,1.8,1.8,2.5c0.6,0.7,1.1,1.4,1.5,1.9
		c0.4,0.5,0.7,0.8,0.8,0.8c0.4,0.4,0.7,0.9,0.9,1.5c0.2,0.6,0.4,1.1,0.8,1.5h0.5c0.2,0,0.4,0.2,0.5,0.5c0.2,0.3,0.3,0.7,0.5,1.2
		c0.2,0.4,0.3,0.8,0.5,1.2c0.1,0.4,0.3,0.7,0.4,0.9l1,0.9l0.2,1.5l-0.8,0.3l-0.1,0.2c0,0.1,0.1,0.2,0.3,0.2s0.3,0,0.3,0.1
		c0,0.1-0.1,0.2-0.3,0.3c-0.2,0.1-0.3,0.2-0.3,0.3V68c0,0.1,0,0.1,0.1,0.2l-1.1,0.7l-2.6,0.7l-1.8,0.1c-0.1-0.4-0.5-0.9-1.2-1.5
		c-0.7-0.6-1-1.1-1-1.5l0.1-0.4c0-0.1,0-0.2-0.2-0.3c-0.1-0.1-0.1-0.2-0.1-0.3h-0.5l-0.1-0.9c-1.6-2-3.2-4.4-4.8-7.1L516,57
		l-0.4,0.9c-0.3,0.2-0.6,0.5-0.9,0.9c-0.3,0.4-0.7,0.8-1,1.3c-0.3,0.5-0.6,0.9-0.8,1.2c-0.2,0.4-0.4,0.6-0.4,0.8
		c-0.7,0.9-1.3,1.8-1.6,2.7c-0.4,0.9-0.8,1.9-1.4,2.8c-0.7,0.4-1.1,0.8-1.4,1.1l-0.3-0.5l-0.6,0.2l-0.1,1l-0.5,1.5l0.4,0.4l0.8-0.8
		V70l0.5-0.2l-0.6,2.7l-3.2,6l-0.1,0.6l1-0.4l-1.4,1.6c-0.3,0.1-0.6,0.3-0.9,0.6c-0.3,0.3-0.5,0.5-0.5,0.6l-1.1,0.6l1.1-2l0.5-1.9
		l-0.5,0.3l-0.1,0.4c-0.5,0.9-1,1.6-1.3,2c-0.4,0.4-0.7,1.1-1,2l-0.3,0.8c0.5-0.1,0.9-0.3,1.2-0.7c0.3-0.4,0.6-0.5,0.9-0.5h0.3
		l-0.1,0.4l-0.8,0.8l-1,2.2c-0.1,0.2-0.2,0.5-0.3,0.9c-0.1,0.4-0.2,0.8-0.4,1.2c-0.1,0.4-0.2,0.8-0.3,1.2c-0.1,0.3-0.2,0.5-0.3,0.5
		c-0.1,0-0.1-0.2-0.1-0.7l-0.9-0.2L496.6,91.2z M499,87.4c-0.4,0-0.6,0.2-0.6,0.6c0,0.1,0,0.2,0.1,0.3c0.1,0.1,0.2,0.2,0.3,0.2
		c0.2,0,0.3-0.2,0.3-0.7C499.1,87.6,499.1,87.4,499,87.4z M499.3,86.2c-0.1,0-0.2,0-0.3,0.1c-0.1,0.1-0.1,0.1-0.2,0.1l-0.2,0.6
		l0.6-0.4L499.3,86.2z M499.7,84.7l0.4,0.1l0.2-0.4L499.7,84.7z M504,76.5l-0.2,0.9l0.6-0.4l0.2-0.8L504,76.5z M506.1,73.1l0.1,0.5
		l0.2-0.4l-0.3-0.5V73.1z M509.3,68.5c0.1,0,0.2,0.1,0.2,0.3c0,0.4-0.2,0.6-0.5,0.6c-0.2,0-0.3-0.1-0.3-0.3
		C508.7,68.7,508.9,68.5,509.3,68.5z"/>
	<path class="st1" d="M542.9,30.5c-1-0.4-1.6-1-1.8-1.8c-0.2-0.8-0.3-1.5-0.4-2.1l0.6-0.9c0.4-0.9,0.9-1.3,1.4-1.3
		c0.3,0,0.5,0,0.6,0.1l2.2,1c0.5,0.2,0.8,0.3,1.1,0.4c0.3,0.1,0.5,0.1,0.8,0.2c0.2,0,0.4,0.1,0.7,0.3c0.2,0.2,0.5,0.5,1,1l0.1-0.3
		l4.7,2.3l2,0.7c0.4,0.1,1.1,0.4,2.2,0.9c1.1,0.5,2.2,1,3.3,1.5c1.1,0.5,2.2,1,3.3,1.4c1.1,0.4,1.8,0.7,2.2,0.8
		c0.8,0.3,1.7,0.7,2.8,1c1,0.4,2,0.9,2.9,1.5c0.9,0.6,1.7,1.3,2.4,2.2c0.7,0.9,1,1.9,1,3.2c0,0.1,0,0.3,0,0.5c0,0.2-0.1,0.4-0.1,0.5
		l-0.1,0.8h-0.2c-0.6,0-1.2,0.2-1.8,0.8c-0.6,0.5-1.1,1.1-1.7,1.8s-1.1,1.4-1.6,2.2c-0.5,0.8-1.1,1.4-1.6,2l-1.9,1.5l-0.5-0.2
		l-4,3.8l-0.3,0.9H562c0.1,0-0.2,0-0.8,0.1c-0.6,0.1-1.2,0.3-1.5,0.7l-0.2,0.6c-0.1,0.3-0.3,0.5-0.4,0.6c-0.1,0-0.3,0.1-0.4,0.3v0.5
		c-0.5,0.1-0.8,0.4-0.9,0.8c-0.1,0.4-0.5,0.7-1.1,0.7c-0.4,0-0.8,0.2-1.1,0.7v0.4c-0.1,0.2-0.3,0.4-0.5,0.5
		c-0.2,0.1-0.5,0.3-0.8,0.6c-0.4,0.3-0.9,0.6-1.5,1c-0.6,0.4-1.3,1-2.2,1.8l-1,1l0.3,0.6l-0.6,1.4l-3.5-0.9l-0.3-1.4l-1.3-0.3
		c-0.1-0.5-0.3-0.8-0.6-1.2c-0.2-0.3-0.5-0.6-0.7-0.9c-0.2-0.3-0.5-0.6-0.7-1c-0.2-0.3-0.3-0.7-0.3-1.2c0-0.1,0.1-0.3,0.2-0.4
		c0.1-0.1,0.3-0.5,0.6-1c0.3-0.5,0.6-0.8,0.9-0.8c0.1,0,0.2,0,0.3,0.1l1.2-0.5l0.8,0.6l0.7-1.1l-0.9-1.1c0.2-0.3,0.5-0.5,0.9-0.6
		c0.4-0.1,0.7-0.3,1-0.7l7.3-6.2l2.9-2.8l-0.2-0.2c0.1,0,0.2-0.1,0.5-0.3s0.6-0.4,1-0.7c0.4-0.3,0.7-0.5,1-0.8
		c0.3-0.2,0.4-0.4,0.5-0.5l1.5-1.7c0.3-0.3,0.6-0.8,1-1.3c0.4-0.6,0.7-0.9,0.8-1l1-1.3c-0.4-0.1-0.9-0.3-1.5-0.7
		c-0.6-0.4-1.1-0.7-1.4-0.8l-1.6-0.5c-1.3-0.4-2.4-0.9-3.5-1.4c-1.1-0.5-2.2-0.9-3.4-1.2c-1.3-0.4-2.5-1-3.6-1.8
		c-1.1-0.8-2.1-1.2-2.9-1.2c0,0.1,0,0.1-0.1,0.1c-0.1,0-0.4-0.1-0.8-0.4c-0.4-0.2-0.8-0.5-1.2-0.8c-0.4-0.3-0.8-0.5-1.2-0.8
		C543.3,30.6,543,30.5,542.9,30.5z"/>
</g>
<g>
	<path class="st1" d="M280.7,80.2l-3.1,5.3c-0.7-0.5-1.2-0.8-1.3-1c-0.1-0.2-0.3-0.3-0.6-0.3h-0.2l0.3-1c-0.4,0-0.7,0.2-0.8,0.5
		c-0.1,0.4-0.3,0.7-0.6,1.1c0-0.4-0.1-0.5-0.3-0.5l-0.1,0.1c-0.2,0-0.5-0.5-0.8-1.4c-0.3-1-1-1.7-2-2.1l-0.7-2.3
		c0.4-0.5,0.9-1.4,1.2-2.9c0.4-1.5,0.7-2.4,1.1-2.9c0.2,0,0.7-0.9,1.5-2.7c0.7-1.8,1.5-3.8,2.3-6c0.8-2.2,1.6-4.4,2.5-6.4
		c0.8-2,1.5-3.4,1.9-4c0.2-0.8,0.3-1.4,0.3-1.6c0-0.2,0-0.3-0.1-0.4c0-0.1-0.1-0.2-0.1-0.3c0-0.1,0-0.2,0.1-0.3l0.3,0.1
		c0.3-0.9,0.8-2,1.4-3.3c0.6-1.3,1.3-2.7,2-4.1c0.7-1.4,1.3-2.8,1.9-4.1c0.6-1.3,1-2.4,1.2-3.3c0.2-0.9,0.6-1.8,1.1-2.7
		c0.5-0.9,1-1.8,1.5-2.7c0.5-0.9,0.9-1.7,1.3-2.5c0.4-0.8,0.6-1.4,0.6-2c0.7-1,1.2-1.8,1.6-2.5c0.4-0.7,0.8-1.3,1.2-1.9
		c0.4-0.6,0.6-1,0.6-1.2c0.2-1,0.5-1.9,0.7-2.7c0.3-0.8,0.7-1.2,1.4-1.2h0.4c0.1,0.2,0.3,0.4,0.7,0.5c0.4,0.2,0.6,0.4,0.6,0.7
		l5.1,1.9c0.4,0.5,0.7,1,0.7,1.5c0,0.2-0.1,0.6-0.4,1.4c-0.3,0.7-0.6,1.5-0.9,2.4c-0.4,0.9-0.8,1.8-1.2,2.7
		c-0.4,0.9-0.9,1.6-1.2,1.9l0.1,0.1c-1,1.6-1.7,2.9-2.2,3.7c-0.5,0.8-0.8,1.4-1.1,1.7c-0.2,0.3-0.4,0.5-0.4,0.6
		c-0.1,0.1-0.2,0.2-0.3,0.4l-0.8,2.7c-0.1,0-0.1,0-0.2-0.1c0,0-0.1-0.1-0.2-0.1c-0.2,0-0.4,0.1-0.4,0.3c-0.1,0.2-0.2,0.4-0.3,0.5
		l0.2,0.5c-0.4,0.5-0.7,0.8-0.9,1c-0.3,0.2-0.5,0.4-0.7,0.6c0.4,0.2,0.7,0.5,0.7,1c-0.2,0.5-0.4,0.9-0.7,1c-0.2,0.1-0.4,0.4-0.4,1
		l0.6,0.1c-0.4,0.1-0.6,0.3-0.7,0.5c-0.1,0.2-0.1,0.4-0.2,0.6l-2.2,5.5c-0.1,0.5-0.2,1.1-0.2,1.6s-0.1,1-0.3,1.5
		c-0.2-0.1-0.4-0.3-0.4-0.7l-0.6,1.1l-0.2-0.7l-0.1,0.3c0,0.1-0.1,0.4-0.2,1l0.1,0.8c-0.1,0.1-0.2,0.5-0.3,1.1
		c-0.1,0.6-0.2,1-0.3,1.2l0.4,0.3l0.1-0.3L289,59l0.3-0.7l0.2,0.3l0.1-0.1c0,0.2-0.1,0.7-0.2,1.6c-0.2,0.9-0.5,1.7-1,2.5l-0.1,0.1
		c-0.1-0.1-0.1-0.3-0.1-0.5c0-0.5,0.1-0.9,0.2-1.4c0.1-0.5,0.2-0.8,0.2-1c-0.1,0.2-0.3,0.6-0.5,1.2c-0.2,0.6-0.3,1-0.3,1.2l-0.2-0.1
		c-0.2,0-0.3-0.1-0.3-0.4l-0.9,1.8c0.2,0.3,0.3,0.6,0.3,1.1c0,0.5-0.1,0.9-0.3,1.4c-0.2,0.5-0.4,0.9-0.5,1.3
		c-0.3-0.2-0.4-0.5-0.4-0.8c0-0.4-0.2-0.7-0.6-1l-0.4,1.5l0.1,0.4l0.4-1.1c0,0.2,0,0.4,0.1,0.6c0,0.2,0.1,0.4,0.1,0.6
		c0,0.3-0.1,0.6-0.2,1l-0.2,0.4c-0.2-0.4-0.4-0.7-0.4-1c0-0.3-0.1-0.5-0.1-0.7v-0.5c0-0.5-0.1-1-0.3-1.2l-1.2,2.9
		c-0.1,0.2-0.2,0.3-0.2,0.5c-0.1,0.1-0.1,0.3-0.2,0.5l0.1,0.4l0.2-0.3c0.1,0,0.5,0.3,0.9,0.9c0.5,0.6,0.7,1.1,0.7,1.4
		c0,0.4-0.1,0.6-0.2,0.7c-0.2,0.1-0.3,0.2-0.3,0.4c-0.2-0.1-0.4-0.2-0.7-0.3c-0.3-0.1-0.5-0.1-0.7-0.1l0.8,0.7
		c0,0.6-0.2,1.5-0.4,2.6c-0.3,1.1-0.6,2-0.9,2.7l-0.1,0.1l-0.2,0.3l-0.1-0.1l-0.1-0.7l-0.7,1.4V80.2z M281,72.3l0.2,0.1
		c0-0.2,0-0.3,0.1-0.4c0-0.1,0.1-0.2,0.1-0.3v-0.1L281,72.3z M282.6,71.5v-0.3l-0.2-0.3l-0.6-0.5v0.3c0,0.2,0,0.4,0.1,0.7
		c0.1,0.3,0.1,0.5,0.2,0.7c0.1,0,0.1,0,0.2-0.1L282.6,71.5z M283.5,71.3l-0.7-0.3l0.6,0.5L283.5,71.3z M283.6,67.4
		c0.1,0.1,0.2,0.2,0.2,0.4v0.4l-0.4-0.3L283.6,67.4z M285.1,69.9l-0.7-0.3l0.4-0.8L285.1,69.9z M285,63.1l-0.4,1l0.3,0.3L285,63.1z
		 M285.8,69.3h-0.4l0.4-0.8V69.3z M285.8,65.3l0.2,0.1c0.1-0.4,0.2-0.6,0.2-0.7c0-0.1,0-0.1-0.1-0.1L285.8,65.3z M287,65.4v0.1
		c0,0.4-0.1,0.5-0.3,0.5c-0.1,0-0.1-0.1-0.1-0.3c0-0.3,0.1-0.4,0.3-0.4H287z M290.2,57.7c0.1,0,0.1,0.1,0.1,0.3
		c0,0.2-0.1,0.3-0.2,0.3c-0.2,0-0.3-0.1-0.3-0.3c0-0.2,0.1-0.3,0.3-0.3H290.2z M290.3,54.9v0.1c0,0.1,0,0.1-0.1,0.1
		c0,0-0.1,0-0.1,0.1l-0.1,0.1c-0.2,0-0.2-0.1-0.2-0.3c0-0.2,0.1-0.3,0.3-0.3H290.3z M290.2,56l0.1,0.3c0,0.1,0,0.1,0.1,0.1v0.1
		l-0.1,0.3c-0.2-0.2-0.3-0.5-0.3-1L290.2,56z M290.3,53.1v0.5l0.2,0.1v-0.1c0-0.3,0-0.5-0.1-0.8L290.3,53.1z M290.7,52.2h-0.2
		c-0.1,0-0.1,0-0.1,0.1c0,0.1,0,0.1,0.1,0.1h0.2h0.2L290.7,52.2z"/>
</g>
<g>
	<path class="st1" d="M225.4,7.7c-0.2-0.1-0.3-0.2-0.4-0.4c-0.4-0.6-0.7-1.2-1-1.7c-0.3-0.5-0.6-1-0.8-1.4c-0.2-0.4-0.5-0.6-0.8-0.6
		l-0.4-1.1l-0.2-0.1c0-0.2,0.4-0.4,1.2-0.6c0.8-0.2,1.3-0.2,1.4-0.2l6.2-0.1c1,0,2.4,0,4.2-0.1c1.8,0,3.6-0.1,5.4-0.1
		c1.8,0,3.7,0,5.4-0.1c1.7,0,3.1-0.1,4.2-0.3c0,0,0.1,0,0.1,0H292c1.9,0,4.3,0,7.1,0.1c2.8,0,5.7,0.1,8.7,0.2c3,0.1,5.8,0.3,8.5,0.6
		c2.7,0.3,4.9,0.7,6.7,1.2c0.1,0,0.1,0,0.2,0.1c0.1,0.1,0.2,0.1,0.4,0.2c0.4,0.2,0.7,0.5,0.7,1v2.5c0,0.4-0.3,0.8-0.7,1
		c-0.9,0.3-1.9,0.7-2.7,1.2c-1.1,0.6-2,0.9-2.8,1c-0.1,0-0.4-0.1-0.7-0.2l-0.9-0.2c0.1,0-0.2,0.1-1.1,0.2l-0.7,0.2
		c-1,0-2.4-0.1-4-0.2c-1.6-0.1-3.3-0.3-5.1-0.5c-1.8-0.2-3.4-0.3-5-0.5s-2.7-0.2-3.4-0.2c-1,0-2,0-2.8,0.1c-0.8,0.1-1.7,0.1-2.8,0.1
		l-10.9-0.3c-1.2,0-2.3,0.1-3.4,0.3c-1.1,0.2-2.3,0.3-3.4,0.3c-0.6,0-1.2,0-1.9-0.1c-0.7-0.1-1.4-0.1-2.1-0.1
		c-1.2,0-2.1,0.1-2.8,0.3c-0.7,0.2-1.7,0.3-3,0.3c-1.3,0-2.9-0.1-4.8-0.2c-1.9-0.1-3.4-0.2-4.6-0.2c-1.6,0-3.1,0.2-4.6,0.6
		c-1.4,0.4-2.9,0.6-4.6,0.6c-1.5,0-3.8-0.1-6.9-0.2c-3.1-0.2-5.5-0.2-7.1-0.2c-0.3,0-0.5,0-0.6,0.1c-0.1,0-0.2,0.1-0.3,0.1h-0.2
		c-1.2-0.5-2.2-0.9-3-1.4C226.8,8.4,226.1,8,225.4,7.7z"/>
</g>
</svg>
