<?xml version="1.0" encoding="utf-8"?>
<!-- Generator: Adobe Illustrator 24.2.3, SVG Export Plug-In . SVG Version: 6.00 Build 0)  -->
<svg version="1.1" id="Layer_1" xmlns="http://www.w3.org/2000/svg" xmlns:xlink="http://www.w3.org/1999/xlink" x="0px" y="0px"
	 viewBox="0 0 580 155" style="enable-background:new 0 0 580 155;" xml:space="preserve">
<style type="text/css">
	.st0{fill:#EF8607;}
	.st1{fill:#FFFFFF;}
	.st2{fill:#841E47;}
	.st3{fill:#333333;}
	.st4{fill:#212121;}
</style>
<g>
	<path class="st1" d="M20.6,96.7c-0.2,0-0.5-0.1-0.9-0.2c-0.3-0.1-0.5-0.2-0.5-0.3c0.3,0,0.5-0.3,0.5-0.9v-1.9l-1.7-1v-0.9l0.5-0.7
		c-0.2-0.5-0.4-1-0.6-1.7c-0.2-0.6-0.3-1.1-0.3-1.3c0-1.6,0.3-2.8,0.8-3.4c0.5-0.6,1.4-1.5,2.7-2.5c0.3-0.3,0.9-0.9,1.7-1.7
		c0.8-0.8,1.7-1.7,2.5-2.6c0.9-0.9,1.7-1.8,2.5-2.5c0.8-0.8,1.4-1.2,1.7-1.5l0.5,0.9c0.9-0.2,2-0.8,3.3-1.6c1.3-0.9,2.2-1.7,2.8-2.5
		l4.3-4l6.4-4.3c0.6-0.7,1.5-1.5,2.8-2.4c1.3-0.9,2.6-1.8,4-2.7c1.4-0.9,2.8-1.7,4.1-2.5c1.3-0.8,2.5-1.6,3.4-2.3l0.5-0.5
		c0.1-0.3,0.4-0.8,0.9-1.2c0.5-0.5,1-1,1.7-1.5c0.6-0.5,1.2-1,1.8-1.6c0.6-0.5,1-1,1.4-1.3c0.9,0.3,1.9,0.5,2.9,0.5
		c1,0,1.9,0.1,2.6,0.2c0.8,0.1,1.4,0.4,1.9,1c0.5,0.5,0.8,1.5,0.8,2.9c0,1.4-1.2,3.2-3.7,5.6c-2.5,2.3-5.4,4.6-8.6,7
		c-3.2,2.3-6.4,4.5-9.6,6.4c-3.1,2-5.3,3.3-6.6,4L35.7,84l1,0.3c0.1,0.1,0.3,0.2,0.5,0.2v0.7l-3.1,1.6c0,0.3,0.4,0.8,1.2,1.5
		c0.8,0.6,1.8,1.3,2.9,2c1.1,0.7,2.2,1.4,3.3,2.1c1.1,0.7,2,1.2,2.7,1.6c0.9,0.6,2.7,1.4,5.2,2.5c2.5,1.1,5.3,2.3,8.2,3.6
		c2.9,1.3,5.7,2.5,8.3,3.6c2.7,1.1,4.5,1.9,5.6,2.3c2.7,1.3,4.7,3.1,6.3,5.6l-0.2,10.6h-3.3c-0.2,0-0.9-0.2-1.9-0.5
		c-1-0.3-1.7-0.5-1.9-0.5c-4.9-1.2-9.5-2.8-13.9-5c-4.4-2.2-8.9-4.4-13.4-6.6c-1.5-0.7-3-1.3-4.4-1.7c-1.5-0.5-2.8-1-4.1-1.6
		c-2-0.9-3.9-2.1-5.6-3.6c-1.8-1.4-3.7-2.6-5.6-3.6l-2.8-0.5V96.7z"/>
</g>
<g>
	<path class="st1" d="M105.4,141.1l-5.5,9.5c-1.3-0.8-2.1-1.4-2.3-1.7c-0.2-0.3-0.6-0.5-1.1-0.5h-0.4l0.6-1.7c-0.8,0-1.3,0.3-1.5,1
		c-0.2,0.6-0.6,1.3-1.1,1.9c0-0.6-0.2-1-0.6-1l-0.2,0.2c-0.4,0-0.9-0.9-1.5-2.5c-0.6-1.7-1.8-2.9-3.5-3.8l-1.2-4.1
		c0.8-0.8,1.5-2.5,2.2-5.1c0.7-2.6,1.3-4.3,2-5.1c0.4,0,1.3-1.6,2.6-4.7c1.3-3.2,2.7-6.7,4.2-10.7c1.5-4,2.9-7.8,4.4-11.4
		c1.5-3.6,2.6-6,3.4-7.2c0.4-1.5,0.6-2.4,0.6-2.9c0-0.3,0-0.6-0.1-0.7c-0.1-0.2-0.1-0.3-0.1-0.5c0-0.2,0.1-0.3,0.2-0.5l0.6,0.2
		c0.5-1.6,1.4-3.6,2.5-5.9c1.1-2.3,2.3-4.8,3.5-7.3c1.2-2.5,2.3-4.9,3.4-7.3c1.1-2.3,1.8-4.3,2.2-5.9c0.4-1.6,1-3.2,1.9-4.9
		c0.9-1.6,1.7-3.2,2.6-4.7c0.9-1.5,1.6-3,2.3-4.4c0.7-1.4,1-2.5,1-3.5c1.2-1.8,2.1-3.3,2.9-4.5c0.7-1.2,1.4-2.3,2.1-3.4
		c0.7-1,1-1.7,1-2.1c0.4-1.8,0.8-3.4,1.3-4.7c0.5-1.4,1.3-2.1,2.5-2.1h0.8c0.1,0.3,0.5,0.6,1.2,1c0.7,0.3,1,0.7,1,1.2l9.1,3.4
		c0.8,1,1.2,1.9,1.2,2.7c0,0.3-0.2,1.1-0.7,2.4c-0.5,1.3-1,2.7-1.7,4.2c-0.7,1.5-1.4,3.1-2.2,4.7c-0.8,1.6-1.5,2.8-2.2,3.4l0.2,0.2
		c-1.7,2.9-3,5.1-3.9,6.6c-0.9,1.5-1.5,2.5-1.9,3c-0.4,0.6-0.7,0.9-0.8,1.1c-0.1,0.2-0.3,0.4-0.6,0.7l-1.4,4.9c-0.1,0-0.2,0-0.3-0.1
		c-0.1-0.1-0.2-0.1-0.3-0.1c-0.4,0-0.7,0.2-0.8,0.6c-0.1,0.4-0.3,0.7-0.6,0.9l0.4,1c-0.7,0.8-1.2,1.4-1.7,1.8
		c-0.5,0.4-0.9,0.8-1.3,1.1c0.8,0.3,1.2,0.9,1.2,1.7c-0.4,1-0.8,1.5-1.2,1.7c-0.4,0.2-0.7,0.7-0.8,1.7l1,0.2
		c-0.7,0.2-1.1,0.4-1.2,0.8c-0.1,0.4-0.3,0.8-0.4,1.1l-4,9.7c-0.3,1-0.4,1.9-0.4,2.9c0,1-0.2,1.9-0.6,2.7c-0.4-0.2-0.7-0.6-0.8-1.2
		l-1,1.9l-0.4-1.2l-0.2,0.5c0,0.2-0.1,0.7-0.4,1.7l0.2,1.5c-0.1,0.2-0.3,0.8-0.5,1.9c-0.2,1.1-0.4,1.9-0.5,2.2l0.8,0.5l0.2-0.5
		l-0.4-0.2l0.6-1.2l0.4,0.5l0.2-0.2c0,0.3-0.1,1.3-0.4,2.9c-0.3,1.6-0.9,3.1-1.8,4.4l-0.2,0.2c-0.1-0.2-0.2-0.5-0.2-1
		c0-0.8,0.1-1.7,0.4-2.5c0.3-0.9,0.4-1.5,0.4-1.8c-0.3,0.3-0.6,1-0.9,2.1c-0.3,1.1-0.5,1.7-0.5,2.1l-0.4-0.2c-0.4,0-0.6-0.2-0.6-0.7
		l-1.6,3.2c0.4,0.5,0.6,1.1,0.6,1.9c0,0.8-0.2,1.7-0.5,2.5c-0.3,0.9-0.6,1.7-0.9,2.3c-0.5-0.3-0.8-0.8-0.8-1.5c0-0.6-0.3-1.2-1-1.7
		l-0.8,2.7l0.2,0.7l0.8-1.9c0,0.3,0,0.7,0.1,1.1c0.1,0.4,0.1,0.8,0.1,1.1c0,0.5-0.1,1.1-0.4,1.7l-0.4,0.7c-0.4-0.6-0.6-1.2-0.7-1.7
		c-0.1-0.5-0.1-0.9-0.1-1.2v-1c0-1-0.2-1.7-0.6-2.2l-2.2,5.1c-0.1,0.3-0.3,0.6-0.4,0.8c-0.1,0.2-0.3,0.5-0.4,0.9l0.2,0.7l0.4-0.5
		c0.3,0,0.8,0.5,1.7,1.6c0.9,1.1,1.3,1.9,1.3,2.5c0,0.6-0.1,1.1-0.4,1.2c-0.3,0.2-0.5,0.4-0.6,0.7c-0.3-0.2-0.7-0.3-1.2-0.5
		c-0.5-0.2-0.9-0.2-1.2-0.2l1.4,1.2c0,1.1-0.3,2.7-0.8,4.6c-0.5,1.9-1.1,3.6-1.6,4.9l-0.2,0.2l-0.4,0.5l-0.2-0.2l-0.2-1.2l-1.2,2.4
		V141.1z M106,127l0.4,0.2c0-0.3,0-0.6,0.1-0.7c0.1-0.2,0.1-0.3,0.1-0.5v-0.2L106,127z M108.8,125.6v-0.5l-0.4-0.5l-1-1v0.5
		c0,0.3,0.1,0.7,0.2,1.2c0.1,0.5,0.3,0.9,0.4,1.2c0.1,0,0.3-0.1,0.4-0.2L108.8,125.6z M110.4,125.3l-1.2-0.5l1,1L110.4,125.3z
		 M110.6,118.3c0.3,0.2,0.4,0.4,0.4,0.7v0.7l-0.8-0.5L110.6,118.3z M113.3,122.9l-1.2-0.5l0.8-1.5L113.3,122.9z M113.2,110.8
		l-0.8,1.7l0.6,0.5L113.2,110.8z M114.5,121.7h-0.8l0.8-1.5V121.7z M114.5,114.7l0.4,0.2c0.3-0.6,0.4-1,0.4-1.2
		c0-0.2-0.1-0.2-0.2-0.2L114.5,114.7z M116.7,114.9v0.2c0,0.6-0.2,1-0.6,1c-0.1,0-0.2-0.2-0.2-0.5c0-0.5,0.2-0.7,0.6-0.7H116.7z
		 M122.3,101.1c0.1,0,0.2,0.2,0.2,0.5c0,0.3-0.1,0.5-0.4,0.5c-0.4,0-0.6-0.2-0.6-0.5c0-0.3,0.2-0.5,0.6-0.5H122.3z M122.5,96.2v0.2
		c0,0.2,0,0.2-0.1,0.2c-0.1,0-0.1,0.1-0.1,0.2l-0.2,0.2c-0.3,0-0.4-0.2-0.4-0.5c0-0.3,0.2-0.5,0.6-0.5H122.5z M122.3,98.2l0.2,0.5
		c0,0.2,0.1,0.2,0.2,0.2v0.2l-0.2,0.5c-0.3-0.3-0.5-0.9-0.6-1.7L122.3,98.2z M122.5,93.1v1l0.4,0.2V94c0-0.5-0.1-1-0.2-1.5
		L122.5,93.1z M123.3,91.4h-0.4c-0.1,0-0.2,0.1-0.2,0.2c0,0.2,0.1,0.2,0.2,0.2h0.4h0.4L123.3,91.4z"/>
</g>
<g>
	<path class="st1" d="M7.4,12.3c-0.3-0.2-0.5-0.4-0.7-0.7c-0.7-1.1-1.2-2.1-1.7-3c-0.5-1-1-1.8-1.4-2.4c-0.4-0.7-0.9-1-1.4-1l-0.8-2
		L1,2.9c0-0.4,0.7-0.7,2.2-1c1.4-0.3,2.3-0.4,2.6-0.4l11-0.2c1.8,0,4.3,0,7.5-0.1c3.2-0.1,6.4-0.1,9.7-0.1c3.3,0,6.5,0,9.7-0.1
		c3.1-0.1,5.5-0.2,7.4-0.5c0.1,0,0.2,0,0.2,0h74.4c3.4,0,7.6,0,12.6,0.1c5,0.1,10.1,0.2,15.4,0.4c5.3,0.2,10.3,0.6,15.2,1.1
		c4.8,0.5,8.7,1.3,11.9,2.2c0.1,0,0.2,0.1,0.3,0.1c0.2,0.1,0.4,0.2,0.6,0.3c0.7,0.3,1.2,1,1.2,1.7v4.4c0,0.8-0.5,1.5-1.2,1.7
		c-1.7,0.6-3.3,1.3-4.9,2.1c-2,1-3.6,1.6-4.9,1.7c-0.3,0-0.7-0.1-1.2-0.4l-1.6-0.4c0.3,0-0.4,0.1-2,0.4l-1.2,0.4
		c-1.8,0-4.2-0.1-7.1-0.3c-2.9-0.2-5.9-0.5-9.1-0.8c-3.2-0.3-6.1-0.6-8.9-0.8c-2.8-0.2-4.8-0.3-6.1-0.3c-1.8,0-3.5,0.1-4.9,0.2
		c-1.4,0.1-3.1,0.2-4.9,0.2l-19.3-0.6c-2.1,0-4.1,0.2-6.1,0.5c-2,0.3-4,0.5-6.1,0.5c-1.1,0-2.2-0.1-3.3-0.2
		c-1.2-0.1-2.4-0.2-3.7-0.2c-2.1,0-3.7,0.2-4.9,0.6c-1.2,0.4-3,0.6-5.3,0.6c-2.4,0-5.2-0.1-8.5-0.3c-3.3-0.2-6-0.3-8.1-0.3
		c-2.9,0-5.6,0.4-8.1,1.1c-2.5,0.7-5.2,1.1-8.1,1.1c-2.6,0-6.7-0.1-12.2-0.4c-5.5-0.3-9.7-0.4-12.6-0.4c-0.5,0-0.9,0-1,0.1
		c-0.1,0.1-0.3,0.1-0.6,0.1h-0.4c-2.1-0.8-3.9-1.6-5.3-2.4C9.8,13.6,8.5,13,7.4,12.3z"/>
</g>
<g>
	<path class="st1" d="M163.1,77.7c0.3-1.2,0.8-2.2,1.6-2.9c0.7-0.8,1.4-1.7,1.9-2.8c0.1-0.1,0.4-0.5,1-1.3c0.5-0.7,1.1-1.6,1.8-2.5
		c0.6-0.9,1.2-1.7,1.8-2.4c0.6-0.7,1-1,1.2-1c0-0.4,0.2-0.9,0.6-1.4c0.4-0.5,0.8-1,1.3-1.5c0.5-0.5,1-0.9,1.4-1.2
		c0.5-0.3,0.8-0.5,1-0.5h1l0.3,0.6h1.4c0.5,0.1,1,0.3,1.5,0.7c0.5,0.4,1,0.6,1.5,0.7h1.3c3.2,0.7,6.3,1.8,9.5,3.1
		c3.1,1.3,5.8,3.4,7.9,6.3c0.5,1.7,1.1,3.3,1.6,4.9c0.5,1.5,1.1,3.2,1.8,4.9c0,0.9,0,1.9-0.1,3.3c-0.1,1.3-0.2,4-0.4,8v1
		c0,0.6-0.2,1.5-0.6,2.7c-0.4,1.2-0.8,2.3-1.3,3.5c-0.5,1.2-1,2.2-1.5,3c-0.5,0.9-1,1.3-1.3,1.3l-0.2,0.2c-0.5,0.9-1.5,1.9-2.8,3.2
		c-1.3,1.3-2.9,2.5-4.9,3.8c-1.9,1.3-4,2.4-6.4,3.3c-2.3,0.9-4.8,1.4-7.3,1.4c-1.7,0-3.3-0.2-4.9-0.6c-1.6-0.4-3.1-0.8-4.5-1.4
		l-1.4-1.6l-3.5-0.6c-0.6-0.4-1.2-1-1.7-1.8c-0.5-0.8-0.9-1.5-1.4-2.2c-1.5-1.6-2.4-3.3-2.8-5c-0.4-1.8-0.6-3.9-0.6-6.3
		c0-0.5,0.1-0.9,0.2-1.2c0.1-0.3,0.2-0.7,0.2-1.2v-0.5c0-0.1,0.1-0.4,0.2-1c0.2-0.5,0.3-1.1,0.5-1.7c0.2-0.6,0.3-1.1,0.5-1.6
		c0.2-0.5,0.2-0.8,0.2-1l1-1.3c0-0.3,0.2-0.7,0.5-1c0.3-0.4,0.5-0.7,0.5-0.9l0.3,0.5c0.1-0.2,0.2-0.6,0.3-1.1c0.1-0.5,0.2-0.8,0.3-1
		l0.5-1.1c0-0.2,0.1-0.6,0.2-1.1c0.2-0.5,0.3-0.9,0.4-1.1H162c-0.1,0-0.2,0.1-0.3,0.2L163.1,77.7z M158.8,91
		c-0.2,0.2-0.3,0.6-0.3,1.1l-0.2,1l0.6-0.6c0-0.2,0.1-0.5,0.2-0.8s0.2-0.5,0.2-0.6l0.3-0.8L158.8,91z M160.4,87.2
		c-0.4,0.4-0.6,0.9-0.6,1.3V89l1.3-1.6L160.4,87.2z M161.7,90.7l0.5-0.3l0.2-1.3L161.7,90.7z M164.6,82.4l-1.4,3.2
		c0,0.4-0.1,0.8-0.2,1.1c-0.1,0.3-0.2,0.7-0.2,1.1l0.5,0.2l1.4-3.5c0-0.2,0-0.6,0.1-1.1c0.1-0.5,0.1-0.8,0.2-1H164.6z M164.6,78.6
		c0-0.3-0.1-0.5-0.3-0.5c-0.2,0-0.3,0.2-0.3,0.5c0,0.2,0.1,0.3,0.3,0.3L164.6,78.6z M171.6,95.4c0,0.4,0,1-0.1,1.8
		c-0.1,0.7-0.1,1.5-0.1,2.2c0,1.1,0.1,2,0.3,2.9l1,5.1l1.6-0.3c0.3,0.4,0.8,0.6,1.4,0.6c1.4,0,2.8-0.2,4.3-0.7
		c1.5-0.5,2.8-1.2,4-2.3l2.9-3.8l1.6-3.7l0.5-3.8c0.4-1,0.7-1.9,0.8-2.9c0.1-1,0.2-1.9,0.2-2.9v-3.2c0-1.4,0-3.2-0.1-5.3
		c-0.1-2.2-0.6-3.8-1.5-5c-0.7-0.8-1.7-1.9-2.9-3c-1.2-1.2-2.3-1.8-3.1-1.8c-0.4,0-0.9,0.3-1.5,1c-0.6,0.6-1,1-1.2,1
		c-1,0.7-1.5,1.7-1.7,2.9c-0.2,1.2-0.5,2.3-1,3.3l-0.3,2.4c-1.4,2.8-2.5,5.4-3.5,7.8C172,90,171.6,92.6,171.6,95.4z"/>
	<path class="st1" d="M220,77.7c0.3-1.2,0.8-2.2,1.6-2.9c0.7-0.8,1.4-1.7,1.9-2.8c0.1-0.1,0.4-0.5,1-1.3c0.5-0.7,1.1-1.6,1.8-2.5
		c0.6-0.9,1.2-1.7,1.8-2.4c0.6-0.7,1-1,1.2-1c0-0.4,0.2-0.9,0.6-1.4c0.4-0.5,0.8-1,1.3-1.5c0.5-0.5,1-0.9,1.4-1.2
		c0.5-0.3,0.8-0.5,1-0.5h1l0.3,0.6h1.4c0.5,0.1,1,0.3,1.5,0.7c0.5,0.4,1,0.6,1.5,0.7h1.3c3.2,0.7,6.3,1.8,9.5,3.1
		c3.1,1.3,5.8,3.4,7.9,6.3c0.5,1.7,1.1,3.3,1.6,4.9c0.5,1.5,1.1,3.2,1.8,4.9c0,0.9,0,1.9-0.1,3.3c-0.1,1.3-0.2,4-0.4,8v1
		c0,0.6-0.2,1.5-0.6,2.7c-0.4,1.2-0.8,2.3-1.3,3.5c-0.5,1.2-1,2.2-1.5,3c-0.5,0.9-1,1.3-1.3,1.3l-0.2,0.2c-0.5,0.9-1.5,1.9-2.8,3.2
		c-1.3,1.3-2.9,2.5-4.9,3.8c-1.9,1.3-4,2.4-6.4,3.3c-2.3,0.9-4.8,1.4-7.3,1.4c-1.7,0-3.3-0.2-4.9-0.6c-1.6-0.4-3.1-0.8-4.5-1.4
		l-1.4-1.6l-3.5-0.6c-0.6-0.4-1.2-1-1.7-1.8c-0.5-0.8-0.9-1.5-1.4-2.2c-1.5-1.6-2.4-3.3-2.8-5c-0.4-1.8-0.6-3.9-0.6-6.3
		c0-0.5,0.1-0.9,0.2-1.2c0.1-0.3,0.2-0.7,0.2-1.2v-0.5c0-0.1,0.1-0.4,0.2-1c0.2-0.5,0.3-1.1,0.5-1.7c0.2-0.6,0.3-1.1,0.5-1.6
		c0.2-0.5,0.2-0.8,0.2-1l1-1.3c0-0.3,0.2-0.7,0.5-1c0.3-0.4,0.5-0.7,0.5-0.9l0.3,0.5c0.1-0.2,0.2-0.6,0.3-1.1c0.1-0.5,0.2-0.8,0.3-1
		l0.5-1.1c0-0.2,0.1-0.6,0.2-1.1c0.2-0.5,0.3-0.9,0.4-1.1h-0.8c-0.1,0-0.2,0.1-0.3,0.2L220,77.7z M215.7,91
		c-0.2,0.2-0.3,0.6-0.3,1.1l-0.2,1l0.6-0.6c0-0.2,0.1-0.5,0.2-0.8s0.2-0.5,0.2-0.6l0.3-0.8L215.7,91z M217.3,87.2
		c-0.4,0.4-0.6,0.9-0.6,1.3V89l1.3-1.6L217.3,87.2z M218.6,90.7l0.5-0.3l0.2-1.3L218.6,90.7z M221.5,82.4l-1.4,3.2
		c0,0.4-0.1,0.8-0.2,1.1c-0.1,0.3-0.2,0.7-0.2,1.1l0.5,0.2l1.4-3.5c0-0.2,0-0.6,0.1-1.1c0.1-0.5,0.1-0.8,0.2-1H221.5z M221.5,78.6
		c0-0.3-0.1-0.5-0.3-0.5c-0.2,0-0.3,0.2-0.3,0.5c0,0.2,0.1,0.3,0.3,0.3L221.5,78.6z M228.5,95.4c0,0.4,0,1-0.1,1.8
		c-0.1,0.7-0.1,1.5-0.1,2.2c0,1.1,0.1,2,0.3,2.9l1,5.1l1.6-0.3c0.3,0.4,0.8,0.6,1.4,0.6c1.4,0,2.8-0.2,4.3-0.7
		c1.5-0.5,2.8-1.2,4-2.3l2.9-3.8l1.6-3.7l0.5-3.8c0.4-1,0.7-1.9,0.8-2.9c0.1-1,0.2-1.9,0.2-2.9v-3.2c0-1.4,0-3.2-0.1-5.3
		c-0.1-2.2-0.6-3.8-1.5-5c-0.7-0.8-1.7-1.9-2.9-3c-1.2-1.2-2.3-1.8-3.1-1.8c-0.4,0-0.9,0.3-1.5,1c-0.6,0.6-1,1-1.2,1
		c-1,0.7-1.5,1.7-1.7,2.9c-0.2,1.2-0.5,2.3-1,3.3l-0.3,2.4c-1.4,2.8-2.5,5.4-3.5,7.8C228.9,90,228.5,92.6,228.5,95.4z"/>
	<path class="st1" d="M283.3,118.8l-3.2-0.3c-1.8-0.2-3.5-0.9-5.1-2s-2.4-2.5-2.5-4.2c0-0.3,0.1-0.5,0.2-0.6l0.8-0.2l0.3-1.4
		c-0.2,0-0.4-0.1-0.6-0.3l0.2-0.6l0.3-0.3l-0.3-1.3c0-0.1,0.1-0.2,0.2-0.2c0.1,0.1,0.2,0.2,0.3,0.2l1.3-1.6l0.3,0.2
		c-0.2,0-0.3,0.2-0.4,0.6c-0.1,0.4-0.1,0.9-0.1,1.4v0.6c0,0.1,0.1,0.2,0.2,0.3h0.3c0.1-0.1,0.2-0.3,0.2-0.6v-1.1
		c0-0.2,0.1-0.7,0.2-1.4c0.2-0.7,0.2-1.1,0.2-1.4v-4.9c0-0.2,0.1-1.1,0.2-2.7c0.2-1.6,0.3-3.3,0.6-5.1c0.2-1.8,0.4-3.5,0.6-5
		c0.2-1.5,0.2-2.4,0.2-2.6l1-1.6l-1-2.2c0-0.5,0.1-1.5,0.3-2.8c0.2-1.3,0.3-2.2,0.3-2.6l0.5-2.2l1.1-1.6l-1-0.6v-3l0.8-2.5l-0.5-0.2
		l1.8-12.1c0-0.1,0-0.2-0.1-0.2c-0.1-0.1-0.1-0.1-0.1-0.2c0-0.8,0.2-1.8,0.5-2.9c0.3-1.1,0.5-1.8,0.5-2.2l2.9-0.2l2.9-1h1.9
		c0.4,0,1.2,0.3,2.2,1c1.1,0.6,1.9,1.2,2.4,1.8l1.9,1.8c0.1,0.2,0.3,0.6,0.5,1.1c0.2,0.5,0.4,0.8,0.5,0.8l0.2,0.8
		c-0.1,0.2-0.2,0.9-0.4,2s-0.5,2.3-0.9,3.6c0.1,0.2,0.2,0.5,0.2,0.8c0,0.3-0.1,0.6-0.2,0.9c-0.2,0.3-0.3,0.5-0.6,0.7v0.2l-0.2,0.2
		c0,0.1,0.1,0.2,0.2,0.2h0.6c0,0.4-0.3,0.9-0.8,1.4c0.2,0.2,0.3,0.4,0.3,0.5c0,0.2-0.2,0.6-0.6,1c-0.4,0.5-0.6,1.1-0.6,2l0.2,0.5
		c-0.1,0.2-0.2,0.3-0.3,0.3c-0.1,0-0.2,0.1-0.2,0.2c0,0.2,0.2,0.5,0.5,0.8c-0.1,0.5-0.3,0.8-0.6,0.8s-0.5,0.5-0.5,1.4
		c0,0.2,0.3,0.4,1,0.5l-1.1,0.6c0,0.1,0.1,0.2,0.2,0.2c0.1,0,0.2,0,0.2,0.1c0,0.1,0.1,0.1,0.3,0.1l0.6,1.8c-0.3,0.4-0.6,0.8-0.8,1
		c-0.2,0.3-0.3,0.6-0.3,1v0.2v0.3c0,0.2,0.1,0.4,0.3,0.6c0,1.5-0.1,2.6-0.4,3.4c-0.3,0.8-0.4,1.5-0.4,2c0,0.3,0.1,0.5,0.2,0.6
		l0.5,0.3c-0.1,0.7-0.3,1.5-0.6,2.3c-0.3,0.8-0.5,1.2-0.7,1.4h-0.3l-0.2,0.6l0.8-0.2c-0.2,0.2-0.4,0.4-0.6,0.6
		c-0.2,0.2-0.3,0.3-0.3,0.6c0,0.1,0.1,0.2,0.2,0.2h1l-1,3.2h0.8c0.1,0.3,0.1,0.7,0.1,1.2c-0.1,0.5,0,0.8,0.2,1l-0.3,0.5
		c0,1.2,0,2-0.1,2.6c-0.1,0.6-0.1,1.3-0.2,2.2l-0.3,0.3l0.8,0.8c-0.1,0.2-0.2,0.3-0.2,0.3c-0.1,0-0.2,0.1-0.4,0.3l0.2-0.5
		c-0.6,0.4-1.1,0.7-1.3,0.8l1.6,0.2c-0.6,0.6-1.1,1-1.4,1h-0.2h-0.5v0.8c0,1.5,0.2,2.9,0.6,4.1c0.4,1.3,1.4,1.9,3,1.9
		c0.2,0,0.4,0,0.5-0.1c0.1-0.1,0.2-0.1,0.3-0.1c0,0.3,0.1,0.5,0.3,0.5c0.4,0,1.2-0.2,2.3-0.5c1.1-0.3,2.4-0.5,3.9-0.5h1.4
		c0.8,0,1.4-0.2,1.8-0.7c0.3-0.5,0.7-0.8,1.1-1c0.3,0.1,0.5,0.2,0.5,0.2c0,0.1,0.1,0.2,0.3,0.4c0.6-0.6,1.3-1,2.1-1
		c0.1,0.1,0.4,0.2,0.9,0.2c0.5,0,0.7,0.2,0.7,0.6l0.6-0.3c0.2-0.1,0.3-0.2,0.4-0.3c0.1-0.1,0.1-0.2,0.2-0.2c0.7,0.7,1.7,1.2,2.9,1.3
		l-0.3,0.8c0.1,0.1,0.2,0.2,0.3,0.2c0.2,0,0.3-0.1,0.4-0.2c0.1-0.2,0.3-0.2,0.9-0.2c0,0.1,0.5,0.4,1.6,0.8c1.1,0.4,1.6,0.9,1.6,1.4
		c0,0.2-0.1,0.4-0.2,0.5l0.2,1.3c-0.7,0.3-1.4,0.6-2.1,0.8c-0.6,0.2-1.2,0.5-1.6,1c-0.3,0-0.6-0.1-0.9-0.3c-0.3-0.2-0.3-0.3-0.2-0.2
		c-0.1,0.2-0.2,0.5-0.2,0.8v0.2c0,0.1,0.1,0.2,0.3,0.2c-1.1,0.1-2,0.2-2.8,0.4c-0.8,0.2-1.7,0.2-2.6,0.2c-0.3,0-0.6,0-1-0.1
		c-0.3-0.1-0.7-0.1-1.1-0.1c-1,0-2.2,0.4-3.6,1.2c-1.4,0.8-2.9,1.2-4.5,1.2h-1.3c-0.4,0-1,0-1.8,0.1c-0.7,0.1-1.5,0.1-2.2,0.2
		c-0.7,0.1-1.3,0.3-1.8,0.5c-0.5,0.2-0.7,0.5-0.7,1l-0.3-0.6c-0.2,0.5-0.5,0.9-0.7,1.1c-0.3,0.2-0.5,0.5-0.7,1
		c-0.2-0.2-0.3-0.5-0.3-0.8c0-0.5,0.1-1.1,0.3-1.6c-0.3,0.2-1,0.3-2.1,0.3c-0.2-0.5-0.5-0.9-0.8-1c-0.3-0.2-0.5-0.3-0.5-0.4
		l-1.8,1.1L283.3,118.8z M317.9,110.5c-0.2,0-0.4,0.1-0.5,0.2c0,0.1,0.1,0.3,0.3,0.5c0.2,0,0.3-0.2,0.3-0.5
		C318,110.5,318,110.5,317.9,110.5z"/>
	<path class="st1" d="M366.2,118.8c-1.6-0.3-3.3-0.6-5.1-0.8c-1.8-0.2-3.6-0.4-5.3-0.6c-1.7-0.2-3.2-0.3-4.6-0.4
		c-1.4-0.1-2.5-0.2-3.5-0.2h-3.3v1.8c-0.1,0-0.5,0-1.2,0c-0.7,0-1.3-0.1-1.8-0.3H341l-0.3,0.6l-2.9,0.5l-3.3-1
		c-0.2,0.2-0.5,0.3-0.8,0.3c-0.3,0-0.6,0-1,0c-0.6,0-1.1-0.3-1.4-0.8c-0.3-0.5-0.5-1.1-0.6-1.8c-0.1-0.6-0.2-1.2-0.2-1.8
		c0-0.6-0.1-1-0.2-1.2l-0.5-0.3l0.2-0.3h0.2h0.2c0-0.2,0-0.3-0.1-0.3c-0.1,0-0.1-0.1-0.1-0.3l0.2-1.8l-0.5,0.5
		c-0.2,0-0.3-0.1-0.3-0.2v-0.3c0-1.2,0.2-2.4,0.6-3.7c0.4-1.3,0.6-1.9,0.5-1.8h1.1c-0.2-0.5-0.5-0.7-1-0.6c-0.4,0.2-0.6-0.2-0.6-1
		c0-0.5,0.4-0.9,1.2-1s1.4-0.2,1.7-0.2c0.1,0,0.2,0.1,0.2,0.3l0.3-0.5c0-0.1,0-0.2,0.1-0.3c0.1-0.1,0.1-0.3,0.1-0.5v-1.6
		c-0.5,0.2-0.9,0.3-1,0.2c-0.1-0.1-0.6,0.2-1.4,0.7v-0.6c0-0.8,0.3-1.3,0.8-1.3h0.6v-1.3c-0.5,0-0.9,0.2-1,0.5
		c-0.2,0.3-0.5,0.5-1,0.5c0-0.5,0.1-1.2,0.2-2.1c0.1-0.8,0.5-1.4,1.3-1.6v-2.1c-0.2,0.2-0.4,0.3-0.5,0.3h-0.3
		c0.2-0.6,0.3-1.3,0.3-2.1v-0.6c-0.2,0.2-0.4,0.7-0.6,1.4c-0.2,0.7-0.4,1.3-0.7,1.6v-0.3c0-0.4,0.1-1.1,0.2-1.9
		c0.1-0.8,0.2-1.4,0.2-1.6l0.3-1.1l0.6,0.3l1.1-1.9h0.3c0-0.2,0-0.4,0.1-0.6c0.1-0.2,0.1-0.3,0.1-0.4v-0.3l-0.5,0.5l-1-1
		c0-0.5,0.1-1,0.3-1.4c0.2-0.4,0.4-0.9,0.6-1.4c0.2-1.3,0.5-2.4,0.8-3.4c0.3-1,0.6-2.1,0.9-3.3c0.3-1.2,0.5-2.5,0.7-4
		c0.2-1.5,0.3-3.3,0.3-5.4v-0.8h-0.8c0-0.2-0.1-0.4-0.3-0.6c0-0.2,0.1-0.6,0.4-1.1c0.3-0.5,0.4-0.9,0.4-1.1
		c-0.1-0.3-0.2-0.7-0.2-1.3c0-0.4,0.1-0.8,0.2-1c0.2-0.3,0.4-0.7,0.8-1.4c0.4-0.6,0.8-1.6,1.4-2.8c0.5-1.2,1.2-2.9,2.1-5.2h-0.5
		l1.3-2.9c0.2-0.4,0.5-1.4,0.9-2.9c0.4-1.5,0.9-2.5,1.7-2.9l0.6,0.5c-0.1,0,0.1,0,0.6-0.1c0.5-0.1,0.9-0.2,1.2-0.4
		c1,1,1.9,1.6,2.9,2.1c1,0.4,1.9,0.8,2.8,1.1c0.9,0.3,1.7,0.7,2.3,1c0.6,0.4,1.1,1,1.4,2c-0.2,0.2-0.4,0.8-0.6,1.8
		c-0.2,1-0.4,2-0.6,3c-0.2,1.1-0.3,1.9-0.3,2.6c-0.1,0.7-0.1,0.9-0.1,0.7h0.3c0.3,0,0.7,0,1.1-0.1c0.4-0.1,0.8-0.1,1.1-0.1
		c1.7-0.6,3.1-1.1,4.3-1.4c1.2-0.3,2.2-0.6,3-0.8c0.8-0.2,1.6-0.5,2.4-0.9c0.7-0.4,1.5-0.9,2.2-1.7c0.3,0.1,0.6,0.2,1,0.2
		c0.4,0,0.7-0.1,0.9-0.3c0.2-0.2,0.4-0.4,0.6-0.6c0.3-0.2,0.7-0.4,1.3-0.6c0.6-0.2,1.5-0.3,2.8-0.3c0.1,0,0.8,0.2,2.2,0.6
		c1.4,0.4,2.6,1.5,3.7,3.3c-0.5,0.2-1,1.1-1.4,2.5c-0.4,1.5-0.8,3.2-1.1,5.1c-0.3,1.9-0.6,3.8-0.8,5.7c-0.2,1.9-0.3,3.5-0.3,4.6
		c-0.7,2.3-1.2,3.8-1.5,4.4c-0.3,0.6-0.4,1.1-0.4,1.5c0,0.3,0.2,0.6,0.6,0.9c0.4,0.3,0.9,0.5,1.4,0.8c0.5,0.3,1.1,0.5,1.6,0.8
		c0.5,0.3,1,0.6,1.3,0.9c0.3,0.3,0.6,0.9,0.9,1.7c0.3,0.8,0.5,1.3,0.7,1.5v3.2c0,1.3,0,2.8,0,4.7c0,1.9-0.2,3.4-0.6,4.5
		c-0.5,0.2-0.8,0.8-0.7,1.7c0.1,0.9,0,1.5-0.2,1.8l-0.5,0.8h0.5l-1.6,2.2l-0.2,3.2c-0.1,2.2-0.6,4.3-1.6,6.1c-1,1.8-1.5,3.7-1.6,5.7
		h-1.3l-1.6,1.3l-1.1,0.2l-2.5-0.8L366.2,118.8z M346.7,108.6l0.5,0.3c1.6,0.2,3.3,0.5,5,0.7c1.8,0.3,3.4,0.4,4.9,0.4
		c1.3,0,3-0.1,5.2-0.4c2.2-0.3,3.8-0.8,5-1.5c0-0.2,0-0.7,0.1-1.4c0.1-0.7,0.2-1.4,0.4-1.9v-0.2c0-0.3,0.1-0.8,0.3-1.5
		c0.2-0.7,0.3-1.1,0.3-1.4l0.6,0.2l-0.3-1.8c0-2.1,0.2-4.2,0.5-6.2c0.3-2,0.6-4.1,0.8-6.2c0-0.6-0.5-1-1.5-1.1
		c-1-0.1-1.7-0.2-2.2-0.2c-2.9,0-5.9,0.7-9.2,2.1c-3.2,1.4-6.2,2.9-8.8,4.5l-0.8,0.2c-0.2,0.2-0.4,0.7-0.5,1.6
		c-0.1,0.9-0.3,1.3-0.6,1.3h-0.2l-1,3c0,1.5-0.1,2.9-0.3,4.3c-0.2,1.4-0.3,2.8-0.3,4.3c0,0.6,0.2,1,0.6,1l0.6-0.3L346.7,108.6z
		 M367.1,69.9c-0.1,0-0.2-0.1-0.2-0.2c0-0.4,0.4-1.6,1.1-3.7c0.7-2,1.1-3.9,1.1-5.6c0-0.5-0.2-0.9-0.5-1.1c-2.6,1.2-5.2,2.2-7.8,2.9
		c-2.7,0.8-4.9,1.9-6.7,3.4l-2.2,1.4c-1.3,1.5-2.1,2.7-2.5,3.7c-0.4,1-0.6,1.8-0.6,2.4l0.6-0.6c-0.2,1.1-0.3,1.9-0.2,2.5
		c0.1,0.6-0.2,1.2-0.9,1.8L348,77h1.3v1.1c0,0.2-0.1,0.6-0.2,1c-0.1,0.5-0.2,0.9-0.2,1.2c0,0.3,0,0.6,0.1,0.8
		c0.1,0.2,0.1,0.4,0.1,0.6c0,0.7-0.2,1.2-0.5,1.3h0.3c0.2,0,0.4-0.1,0.6-0.2c0.2-0.2,0.5-0.2,1-0.2c0.2,0,0.4,0.1,0.6,0.2
		c1.6-0.8,3.3-1.6,5.2-2.2c1.9-0.6,3.6-1.5,5.2-2.7l0.5-0.5c0.4-0.1,1.2-0.3,2.2-0.6c1.1-0.3,1.7-0.8,1.9-1.5L367.1,69.9z"/>
	<path class="st1" d="M398.4,77.7c0.3-1.2,0.8-2.2,1.6-2.9c0.7-0.8,1.4-1.7,1.9-2.8c0.1-0.1,0.4-0.5,1-1.3c0.5-0.7,1.1-1.6,1.8-2.5
		c0.6-0.9,1.2-1.7,1.8-2.4c0.6-0.7,1-1,1.2-1c0-0.4,0.2-0.9,0.6-1.4c0.4-0.5,0.8-1,1.3-1.5c0.5-0.5,1-0.9,1.4-1.2
		c0.5-0.3,0.8-0.5,1-0.5h1l0.3,0.6h1.4c0.5,0.1,1,0.3,1.5,0.7c0.5,0.4,1,0.6,1.5,0.7h1.3c3.2,0.7,6.3,1.8,9.5,3.1
		c3.1,1.3,5.8,3.4,7.9,6.3c0.5,1.7,1.1,3.3,1.6,4.9c0.5,1.5,1.1,3.2,1.8,4.9c0,0.9,0,1.9-0.1,3.3c-0.1,1.3-0.2,4-0.4,8v1
		c0,0.6-0.2,1.5-0.6,2.7c-0.4,1.2-0.8,2.3-1.3,3.5c-0.5,1.2-1,2.2-1.5,3c-0.5,0.9-1,1.3-1.3,1.3l-0.2,0.2c-0.5,0.9-1.5,1.9-2.8,3.2
		c-1.3,1.3-2.9,2.5-4.9,3.8c-1.9,1.3-4,2.4-6.4,3.3c-2.3,0.9-4.8,1.4-7.3,1.4c-1.7,0-3.3-0.2-4.9-0.6c-1.6-0.4-3.1-0.8-4.5-1.4
		l-1.4-1.6l-3.5-0.6c-0.6-0.4-1.2-1-1.7-1.8c-0.5-0.8-0.9-1.5-1.4-2.2c-1.5-1.6-2.4-3.3-2.8-5c-0.4-1.8-0.6-3.9-0.6-6.3
		c0-0.5,0.1-0.9,0.2-1.2c0.1-0.3,0.2-0.7,0.2-1.2v-0.5c0-0.1,0.1-0.4,0.2-1c0.2-0.5,0.3-1.1,0.5-1.7c0.2-0.6,0.3-1.1,0.5-1.6
		c0.2-0.5,0.2-0.8,0.2-1l1-1.3c0-0.3,0.2-0.7,0.5-1c0.3-0.4,0.5-0.7,0.5-0.9l0.3,0.5c0.1-0.2,0.2-0.6,0.3-1.1c0.1-0.5,0.2-0.8,0.3-1
		l0.5-1.1c0-0.2,0.1-0.6,0.2-1.1c0.2-0.5,0.3-0.9,0.4-1.1h-0.8c-0.1,0-0.2,0.1-0.3,0.2L398.4,77.7z M394.1,91
		c-0.2,0.2-0.3,0.6-0.3,1.1l-0.2,1l0.6-0.6c0-0.2,0.1-0.5,0.2-0.8s0.2-0.5,0.2-0.6l0.3-0.8L394.1,91z M395.6,87.2
		c-0.4,0.4-0.6,0.9-0.6,1.3V89l1.3-1.6L395.6,87.2z M396.9,90.7l0.5-0.3l0.2-1.3L396.9,90.7z M399.8,82.4l-1.4,3.2
		c0,0.4-0.1,0.8-0.2,1.1c-0.1,0.3-0.2,0.7-0.2,1.1l0.5,0.2l1.4-3.5c0-0.2,0-0.6,0.1-1.1c0.1-0.5,0.1-0.8,0.2-1H399.8z M399.8,78.6
		c0-0.3-0.1-0.5-0.3-0.5c-0.2,0-0.3,0.2-0.3,0.5c0,0.2,0.1,0.3,0.3,0.3L399.8,78.6z M406.8,95.4c0,0.4,0,1-0.1,1.8
		c-0.1,0.7-0.1,1.5-0.1,2.2c0,1.1,0.1,2,0.3,2.9l1,5.1l1.6-0.3c0.3,0.4,0.8,0.6,1.4,0.6c1.4,0,2.8-0.2,4.3-0.7
		c1.5-0.5,2.8-1.2,4-2.3l2.9-3.8l1.6-3.7l0.5-3.8c0.4-1,0.7-1.9,0.8-2.9c0.1-1,0.2-1.9,0.2-2.9v-3.2c0-1.4,0-3.2-0.1-5.3
		c-0.1-2.2-0.6-3.8-1.5-5c-0.7-0.8-1.7-1.9-2.9-3c-1.2-1.2-2.3-1.8-3.1-1.8c-0.4,0-0.9,0.3-1.5,1c-0.6,0.6-1,1-1.2,1
		c-1,0.7-1.5,1.7-1.7,2.9c-0.2,1.2-0.5,2.3-1,3.3l-0.3,2.4c-1.4,2.8-2.5,5.4-3.5,7.8C407.3,90,406.8,92.6,406.8,95.4z"/>
	<path class="st1" d="M452.2,152.6l-1,0.5l-0.8-0.2l-3.2,0.5l-5.1-1.9h-1.8l-1.1-2.1l0.3-0.6l-0.8-2.9l-0.3-0.3
		c0-0.2-0.1-0.5-0.2-0.8c-0.1-0.3-0.2-0.6-0.3-0.8l4.1-3.5l-0.3-0.8l2.1-2.9c0.2,0,0.4-0.1,0.6-0.3l-0.2-0.3c0.3-0.3,0.6-0.9,1-1.7
		c0.3-0.8,0.6-1.6,1-2.4c0.3-0.8,0.6-1.5,0.9-2.2c0.3-0.7,0.5-1.1,0.7-1.2l2.7-4.1c0.1-0.2,0.2-0.6,0.4-1.1c0.2-0.5,0.3-0.9,0.6-1.1
		l2.9-5.7l-0.2-0.6l0.5-0.5c0.3-0.1,0.7-0.5,1.2-1c0.5-0.6,0.9-1.2,1.4-1.8c0.4-0.6,0.8-1.3,1.1-1.9c0.3-0.6,0.5-1.1,0.5-1.4
		c0-1,0.2-1.8,0.6-2.4c0.4-0.6,0.9-1.3,1.4-1.9c0.5-0.6,1-1.3,1.5-1.9c0.5-0.6,0.8-1.4,1-2.4l0.6-1.3c0.1-0.3,0.4-0.7,0.8-1.1
		c0.8-1.2,1.5-2.1,2.1-2.9c0.5-0.7,1.1-1.8,1.8-3h-0.6l5.3-6.9l0.3-0.6c0.2-0.2,0.4-0.5,0.5-0.8c-0.2-0.7-0.5-1.4-1-1.9
		c-0.4-0.5-0.8-1.1-1.1-1.6l-0.3,0.8c-0.3-1-0.9-2.2-1.8-3.7c-0.9-1.5-1.9-3.2-2.9-4.9c-1.1-1.8-2.2-3.6-3.3-5.4
		c-1.1-1.9-2-3.5-2.6-5l-1.1-0.3l-2.5-6.5l-1.1-4c0.4,0,1-0.1,1.6-0.3c0.6-0.2,1.1-0.3,1.3-0.3c0.6,0,1.4,0,2.3,0
		c0.9,0,1.8,0.1,2.6,0.2c0.8,0.2,1.7,0.5,2.5,1s1.4,1.2,1.8,2.2l2.4,3.3l1.8,3.5c0,0.1,0,0.2,0.1,0.2c0.1,0,0.1,0.1,0.1,0.2
		c0,0.2-0.1,0.4-0.2,0.6c-0.2,0.2-0.2,0.3-0.2,0.6c0-0.1,0.3,0.2,0.9,1c0.6,0.8,1.2,1.7,2,2.8c0.7,1.1,1.5,2.1,2.2,3.2
		c0.7,1.1,1.3,1.8,1.6,2.2c0.2,0.1,0.4,0.3,0.5,0.7c0.1,0.4,0.4,0.6,1,0.6V73l8.4-16.1c0.7-1.1,1.2-2,1.5-2.7
		c0.3-0.7,1.2-1.1,2.8-1.1l0.2,1.1h0.6l1-0.8c0.4,0,1,0.2,1.8,0.5s1.6,0.7,2.4,1.2s1.5,1,2.1,1.6c0.6,0.6,0.9,1.1,0.9,1.5
		c0,1.1-0.3,2.2-0.9,3.4c-0.6,1.2-1.2,2.4-2,3.5c-0.7,1.1-1.5,2.1-2.2,3c-0.7,0.9-1.1,1.6-1.4,2.2c-0.1,0.3-0.3,0.7-0.7,1.2
		c-0.4,0.5-0.6,1-0.7,1.5c-0.6,1.5-1.2,2.7-1.6,3.7c-0.4,1-0.8,1.8-1.1,2.6c-0.3,0.8-0.6,1.6-1,2.5c-0.3,0.9-0.6,1.8-1,2.9l-0.5,1
		c0.7,1.6,1.6,3.1,2.5,4.6c1,1.5,1.9,2.8,2.9,4c1,1.2,1.8,2.2,2.5,2.9c0.7,0.8,1.1,1.3,1.2,1.4c0.6,0.6,1.1,1.4,1.4,2.4
		c0.3,1,0.7,1.8,1.4,2.4h0.8c0.3,0,0.6,0.3,0.9,0.8c0.3,0.5,0.5,1.1,0.8,1.8c0.3,0.7,0.5,1.4,0.7,2c0.2,0.6,0.4,1.1,0.6,1.4l1.6,1.4
		l0.3,2.4l-1.3,0.5l-0.2,0.3c0,0.2,0.2,0.3,0.5,0.3s0.5,0.1,0.5,0.2c0,0.2-0.2,0.4-0.5,0.5c-0.3,0.1-0.5,0.3-0.5,0.5v0.2
		c0,0.1,0.1,0.2,0.2,0.3l-1.8,1.1l-4.1,1.1l-2.9,0.2c-0.2-0.6-0.9-1.4-1.9-2.4c-1.1-1-1.6-1.8-1.6-2.4l0.2-0.6
		c0-0.2-0.1-0.4-0.2-0.5c-0.2-0.1-0.2-0.3-0.2-0.5h-0.8l-0.2-1.4c-2.5-3.2-5.1-7-7.6-11.3l-1.1-1.1l-0.6,1.4
		c-0.4,0.3-0.9,0.8-1.4,1.4c-0.5,0.6-1.1,1.3-1.6,2.1c-0.5,0.7-1,1.4-1.4,2c-0.4,0.6-0.6,1-0.6,1.2c-1.2,1.4-2,2.8-2.6,4.3
		c-0.6,1.5-1.3,3-2.2,4.5c-1.1,0.6-1.8,1.2-2.2,1.8l-0.5-0.8l-1,0.3l-0.2,1.6l-0.8,2.4l0.6,0.6l1.3-1.3v-0.8l0.8-0.3l-1,4.3
		l-5.1,9.6l-0.2,1l1.6-0.6l-2.2,2.5c-0.4,0.2-0.9,0.5-1.4,1c-0.5,0.4-0.8,0.7-0.8,1l-1.8,1l1.8-3.2l0.8-3l-0.8,0.5l-0.2,0.6
		c-0.9,1.5-1.6,2.6-2.2,3.2c-0.6,0.6-1.1,1.7-1.5,3.2l-0.5,1.3c0.8-0.1,1.5-0.5,1.9-1c0.4-0.6,0.9-0.9,1.4-0.9h0.5l-0.2,0.6
		l-1.3,1.3l-1.6,3.5c-0.1,0.3-0.3,0.8-0.5,1.4c-0.2,0.6-0.4,1.3-0.6,2c-0.2,0.7-0.3,1.3-0.6,1.8c-0.2,0.5-0.4,0.8-0.5,0.8
		c-0.1,0-0.2-0.4-0.2-1.1l-1.4-0.3L452.2,152.6z M456,146.5c-0.6,0-1,0.3-1,1c0,0.1,0.1,0.3,0.2,0.5c0.1,0.2,0.3,0.3,0.5,0.3
		c0.3,0,0.5-0.4,0.5-1.1C456.2,146.7,456.2,146.5,456,146.5z M456.5,144.6c-0.2,0-0.4,0.1-0.5,0.2c-0.1,0.1-0.2,0.2-0.3,0.2l-0.3,1
		l1-0.6L456.5,144.6z M457.2,142.2l0.6,0.2l0.3-0.6L457.2,142.2z M464,129.1l-0.3,1.4l1-0.6l0.3-1.3L464,129.1z M467.4,123.7
		l0.2,0.8l0.3-0.6l-0.5-0.8V123.7z M472.5,116.4c0.2,0,0.3,0.2,0.3,0.5c0,0.6-0.3,1-0.8,1c-0.3,0-0.5-0.2-0.5-0.5
		C471.5,116.7,471.8,116.4,472.5,116.4z"/>
	<path class="st1" d="M526,55.8c-1.6-0.6-2.5-1.6-2.8-2.9c-0.3-1.3-0.5-2.4-0.6-3.3l1-1.4c0.6-1.4,1.4-2.1,2.2-2.1
		c0.4,0,0.7,0.1,1,0.2l3.5,1.6c0.7,0.3,1.4,0.5,1.8,0.6c0.5,0.1,0.9,0.2,1.2,0.2c0.3,0.1,0.7,0.2,1,0.5c0.4,0.3,0.9,0.8,1.5,1.5
		l0.2-0.5l7.5,3.7l3.2,1.1c0.6,0.2,1.8,0.7,3.5,1.4c1.7,0.7,3.5,1.5,5.3,2.3c1.8,0.8,3.6,1.5,5.3,2.2c1.7,0.7,2.9,1.1,3.5,1.4
		c1.3,0.5,2.7,1.1,4.4,1.7c1.6,0.6,3.2,1.4,4.6,2.3s2.7,2.1,3.7,3.5c1.1,1.4,1.6,3.1,1.6,5.1c0,0.2,0,0.5-0.1,0.8
		c-0.1,0.3-0.1,0.6-0.1,0.8l-0.2,1.3H578c-1,0-1.9,0.4-2.8,1.2c-0.9,0.8-1.8,1.8-2.7,2.9c-0.9,1.1-1.8,2.3-2.6,3.5
		c-0.9,1.2-1.7,2.3-2.5,3.1l-3,2.4l-0.8-0.3l-6.4,6.1l-0.5,1.4h-0.2c0.1,0-0.3,0.1-1.4,0.2c-1,0.2-1.8,0.5-2.5,1l-0.3,1
		c-0.2,0.5-0.4,0.8-0.6,0.9c-0.2,0.1-0.4,0.2-0.6,0.6v0.8c-0.7,0.2-1.2,0.7-1.4,1.4c-0.2,0.7-0.8,1-1.8,1c-0.6,0-1.2,0.4-1.8,1.1
		v0.6c-0.2,0.3-0.5,0.6-0.8,0.8c-0.3,0.2-0.8,0.5-1.4,1c-0.6,0.4-1.4,1-2.3,1.7c-1,0.7-2.1,1.7-3.5,2.9l-1.6,1.6l0.5,1l-1,2.2
		l-5.6-1.4l-0.5-2.2l-2.1-0.5c-0.2-0.7-0.5-1.4-0.9-1.8c-0.4-0.5-0.7-1-1.1-1.4c-0.4-0.5-0.7-1-1-1.5c-0.3-0.5-0.5-1.2-0.5-1.9
		c0-0.2,0.1-0.4,0.3-0.6c0.2-0.2,0.5-0.7,1-1.6c0.4-0.8,0.9-1.3,1.4-1.3c0.2,0,0.4,0.1,0.5,0.2l1.9-0.8l1.3,1l1.1-1.8l-1.4-1.8
		c0.3-0.5,0.8-0.8,1.4-1c0.6-0.1,1.2-0.5,1.6-1.1l11.6-9.9l4.6-4.5l-0.3-0.3c0.1,0,0.4-0.2,0.9-0.5s1-0.7,1.6-1.1
		c0.6-0.4,1.1-0.8,1.5-1.2c0.4-0.4,0.7-0.7,0.8-0.9l2.4-2.7c0.4-0.5,1-1.2,1.7-2.2c0.7-0.9,1.1-1.5,1.2-1.7l1.6-2.1
		c-0.6-0.1-1.4-0.5-2.4-1c-1-0.6-1.7-1-2.2-1.4l-2.5-0.8c-2-0.6-3.9-1.4-5.6-2.2c-1.7-0.8-3.5-1.5-5.4-2c-2-0.6-3.9-1.6-5.7-2.9
		c-1.8-1.3-3.3-1.9-4.6-1.9c0,0.1-0.1,0.2-0.2,0.2c-0.2,0-0.6-0.2-1.2-0.6c-0.6-0.4-1.2-0.8-1.9-1.2c-0.7-0.4-1.4-0.8-2-1.2
		C526.7,56,526.2,55.8,526,55.8z"/>
</g>
</svg>
